<svg width="122" height="142" viewBox="0 0 122 142" fill="none" xmlns="http://www.w3.org/2000/svg">
<path d="M50.7 116.1L50.5 115.9H50.15L47.35 116.95L45.35 114.1C45.2833 114 45.2 113.95 45.1 113.95L44.85 113.9L44.6 114.05L44.5 114.3L44.15 117.8L42.45 118.15L42.2 118.25L42.15 118.35L42.1 118.55V118.8H42.15L43.6 121.95H49.6L51.2 120.9L51.35 120.75L51.4 120.6L51.35 120.3L51.05 120.05L49.55 119.65L50.75 116.5V116.15L50.7 116.1ZM59 24.25L58.85 24L58.55 23.9L58.25 24.05L58.1 24.3L57.3 28.4L56.05 28L55.75 28.05L55.5 28.25V28.3V28.6V28.7L56.2 30.5H61.05L61.95 27.4V27.05L61.7 26.85H61.35L59.95 27.4L59 24.25ZM43.95 36.65L43.75 36.85L43.7 36.9V37.25L44.95 40.35L43.4 40.8L43.15 41L43.05 41.35L43.15 41.45L43.25 41.6L44.85 42.7H50.85L52.3 39.55L52.35 39.5L52.4 39.25L52.3 39.1L52.25 39L52 38.85L50.35 38.55L49.95 35.05L49.85 34.8L49.6 34.65H49.35L49.1 34.8L47.15 37.65L44.3 36.65H43.95ZM40 51.9L39.7 52C39.6 52.0667 39.55 52.15 39.55 52.25L38.55 55.4L37.2 54.85H36.85L36.6 55V55.05L36.55 55.4L37.5 58.45H42.35L43.05 56.65V56.55V56.25V56.2L42.8 56H42.5L41.25 56.4L40.4 52.25L40.25 52L40 51.9ZM66.65 47H66.3L63.5 48.05L61.5 45.2L61.25 45.05L61 45L60.75 45.15L60.65 45.4L60.3 48.9L58.6 49.25L58.35 49.35L58.3 49.45L58.25 49.65V49.9H58.3L59.75 53.05H65.75L67.35 52L67.5 51.85L67.55 51.7L67.5 51.4L67.2 51.15L65.7 50.75L66.9 47.6V47.25L66.85 47.2L66.65 47ZM9.69995 50.85L9.65002 50.95L9.59998 51.15V51.4H9.65002L11.1 54.55H17.1L18.7 53.5L18.85 53.35L18.9 53.2L18.85 52.9L18.55 52.65L17.05 52.25L18.25 49.1V48.75L18.2 48.7L18 48.5H17.65L14.85 49.55L12.85 46.7C12.7833 46.6 12.7 46.55 12.6 46.55L12.35 46.5L12.1 46.65L12 46.9L11.65 50.4L9.94995 50.75L9.69995 50.85ZM24.15 63.25V63.3L24.1 63.65L25.05 66.7H29.9L30.6 64.9V64.8V64.5V64.45L30.35 64.25H30.05L28.8 64.65L27.95 60.5L27.8 60.25L27.55 60.15L27.25 60.25L27.1 60.5L26.1 63.65L24.75 63.1H24.4L24.15 63.25ZM12.2 103.4L11.95 103.5L11.9 103.6L11.85 103.8V104.05H11.9L13.35 107.2H19.35L20.95 106.15L21.1 106L21.15 105.85L21.1 105.55L20.8 105.3L19.3 104.9L20.5 101.75V101.4L20.45 101.35L20.25 101.15H19.9L17.1 102.2L15.1 99.35C15.0333 99.25 14.95 99.2 14.85 99.2L14.6 99.15L14.35 99.3L14.25 99.55L13.9 103.05L12.2 103.4ZM72.5 86.9L72.2 87L72.05 87.25L71.05 90.4L69.7 89.85H69.35C69.25 89.85 69.1666 89.9 69.1 90V90.05L69.05 90.4L70 93.45H74.85L75.55 91.65V91.55V91.25V91.2L75.3 91H75L73.75 91.4L72.9 87.25L72.75 87L72.5 86.9ZM62.7 105.75L62.5 105.55H62.15L59.35 106.6L57.35 103.75C57.2833 103.65 57.2 103.6 57.1 103.6L56.85 103.55L56.6 103.7L56.5 103.95L56.15 107.45L54.45 107.8L54.2 107.9L54.15 108L54.1 108.2V108.45H54.15L55.6 111.6H61.6L63.2 110.55L63.35 110.4L63.4 110.25L63.35 109.95L63.05 109.7L61.55 109.3L62.75 106.15V105.8L62.7 105.75ZM1 36L61 1L121 36V106L61 141L1 106V36ZM95.95 32.4L95.7 32.2H95.4L94.15 32.6L93.3 28.45L93.15 28.2L92.9 28.1L92.6 28.2L92.45 28.45L91.45 31.6L90.1 31.05H89.75C89.65 31.05 89.5667 31.1 89.5 31.2V31.25L89.45 31.6L90.4 34.65H95.25L95.95 32.85V32.75V32.45V32.4ZM83.5 86.2H88.35L89.05 84.4V84.3V84V83.95L88.8 83.75H88.5L87.25 84.15L86.4 80L86.25 79.75L86 79.65L85.7 79.75L85.55 80L84.55 83.15L83.2 82.6H82.85C82.75 82.6 82.6666 82.65 82.6 82.75V82.8L82.55 83.15L83.5 86.2ZM108.4 95.8L108.1 95.9C108 95.9667 107.95 96.05 107.95 96.15L106.95 99.3L105.6 98.75H105.25L105 98.9V98.95L104.95 99.3L105.9 102.35H110.75L111.45 100.55V100.45V100.15V100.1L111.2 99.9H110.9L109.65 100.3L108.8 96.15L108.65 95.9L108.4 95.8ZM78.3 120.5L78.1 120.3H77.75L74.95 121.35L72.95 118.5L72.7 118.35L72.45 118.3L72.2 118.45L72.1 118.7L71.75 122.2L70.05 122.55L69.8 122.65L69.75 122.75L69.7 122.95V123.2H69.75L71.2 126.35H77.2L78.8 125.3L78.95 125.15L79 125L78.95 124.7L78.65 124.45L77.15 124.05L78.35 120.9V120.55L78.3 120.5ZM59.45 117.25L58.45 120.4L57.1 119.85H56.75C56.65 119.85 56.5667 119.9 56.5 120V120.05L56.45 120.4L57.4 123.45H62.25L62.95 121.65V121.55V121.25V121.2L62.7 121H62.4L61.15 121.4L60.3 117.25L60.15 117L59.9 116.9L59.6 117L59.45 117.25Z" fill="#27AE60"/>
<path d="M59 24.2499L59.95 27.3999L61.35 26.8499H61.7L61.95 27.0499V27.3999L61.05 30.4999H56.2L55.5 28.6999V28.5999V28.2999V28.2499L55.75 28.0499L56.05 27.9999L57.3 28.3999L58.1 24.2999L58.25 24.0499L58.55 23.8999L58.85 23.9999L59 24.2499Z" fill="url(#paint0_linear_76_93)"/>
<path d="M43.95 36.6499H44.3L47.15 37.6499L49.1 34.7999L49.35 34.6499H49.6L49.85 34.7999L49.95 35.0499L50.35 38.5499L52 38.8499L52.25 38.9999L52.3 39.0999L52.4 39.2499L52.35 39.4999L52.3 39.5499L50.85 42.6999H44.85L43.25 41.5999L43.15 41.4499L43.05 41.3499L43.15 40.9999L43.4 40.7999L44.95 40.3499L43.7 37.2499V36.8999L43.75 36.8499L43.95 36.6499Z" fill="url(#paint1_linear_76_93)"/>
<path d="M40 51.8999L40.25 51.9999L40.4 52.2499L41.25 56.3999L42.5 55.9999H42.8L43.05 56.1999V56.2499V56.5499V56.6499L42.35 58.4499H37.5L36.55 55.3999L36.6 55.0499V54.9999L36.85 54.8499H37.2L38.55 55.3999L39.55 52.2499C39.55 52.1499 39.6 52.0666 39.7 51.9999L40 51.8999Z" fill="url(#paint2_linear_76_93)"/>
<path d="M66.65 47L66.85 47.2L66.9 47.25V47.6L65.7 50.75L67.2 51.15L67.5 51.4L67.55 51.7L67.5 51.85L67.35 52L65.75 53.05H59.75L58.3 49.9H58.25V49.65L58.3 49.45L58.35 49.35L58.6 49.25L60.3 48.9L60.65 45.4L60.75 45.15L61 45L61.25 45.05L61.5 45.2L63.5 48.05L66.3 47H66.65Z" fill="url(#paint3_linear_76_93)"/>
<path d="M9.70007 50.85L9.95007 50.75L11.6501 50.4L12.0001 46.9L12.1001 46.65L12.3501 46.5L12.6001 46.55C12.7001 46.55 12.7834 46.6 12.8501 46.7L14.8501 49.55L17.6501 48.5H18.0001L18.2001 48.7L18.2501 48.75V49.1L17.0502 52.25L18.5502 52.65L18.8501 52.9L18.9001 53.2L18.8501 53.35L18.7001 53.5L17.1001 54.55H11.1001L9.65015 51.4H9.6001V51.15L9.65015 50.95L9.70007 50.85Z" fill="url(#paint4_linear_76_93)"/>
<path d="M24.1501 63.2499L24.4001 63.0999H24.7501L26.1001 63.6499L27.1001 60.4999L27.2501 60.2499L27.5502 60.1499L27.8002 60.2499L27.9501 60.4999L28.8002 64.6499L30.0502 64.2499H30.3501L30.6001 64.4499V64.4999V64.7999V64.8999L29.9001 66.6999H25.0502L24.1001 63.6499L24.1501 63.2999V63.2499Z" fill="url(#paint5_linear_76_93)"/>
<path d="M12.2001 103.4L13.9001 103.05L14.2501 99.5499L14.3501 99.2999L14.6001 99.1499L14.8501 99.1999C14.9501 99.1999 15.0334 99.2499 15.1001 99.3499L17.1001 102.2L19.9001 101.15H20.2501L20.4501 101.35L20.5001 101.4V101.75L19.3002 104.9L20.8002 105.3L21.1001 105.55L21.1501 105.85L21.1001 106L20.9501 106.15L19.3501 107.2H13.3501L11.9001 104.05H11.8501V103.8L11.9001 103.6L11.9501 103.5L12.2001 103.4Z" fill="url(#paint6_linear_76_93)"/>
<path d="M72.5 86.8999L72.75 86.9999L72.9 87.2499L73.75 91.3999L75 90.9999H75.3L75.55 91.1999V91.2499V91.5499V91.6499L74.85 93.4499H70L69.05 90.3999L69.1 90.0499V89.9999C69.1666 89.8999 69.25 89.8499 69.35 89.8499H69.7L71.05 90.3999L72.05 87.2499L72.2 86.9999L72.5 86.8999Z" fill="url(#paint7_linear_76_93)"/>
<path d="M62.7001 105.75L62.7501 105.8V106.15L61.5502 109.3L63.0502 109.7L63.3501 109.95L63.4001 110.25L63.3501 110.4L63.2001 110.55L61.6001 111.6H55.6001L54.1501 108.45H54.1001V108.2L54.1501 108L54.2001 107.9L54.4501 107.8L56.1501 107.45L56.5001 103.95L56.6001 103.7L56.8501 103.55L57.1001 103.6C57.2001 103.6 57.2834 103.65 57.3501 103.75L59.3501 106.6L62.1501 105.55H62.5001L62.7001 105.75Z" fill="url(#paint8_linear_76_93)"/>
<path d="M95.95 32.4001V32.4501V32.7501V32.8501L95.25 34.6501H90.4L89.45 31.6001L89.5 31.2501V31.2001C89.5667 31.1001 89.65 31.0501 89.75 31.0501H90.1L91.45 31.6001L92.45 28.4501L92.6 28.2001L92.9 28.1001L93.15 28.2001L93.3 28.4501L94.15 32.6001L95.4 32.2001H95.7L95.95 32.4001Z" fill="url(#paint9_linear_76_93)"/>
<path d="M83.5 86.1999L82.55 83.1499L82.6 82.7999V82.7499C82.6666 82.6499 82.75 82.5999 82.85 82.5999H83.2L84.55 83.1499L85.55 79.9999L85.7 79.7499L86 79.6499L86.25 79.7499L86.4 79.9999L87.25 84.1499L88.5 83.7499H88.8L89.05 83.9499V83.9999V84.2999V84.3999L88.35 86.1999H83.5Z" fill="url(#paint10_linear_76_93)"/>
<path d="M108.4 95.8L108.65 95.9L108.8 96.15L109.65 100.3L110.9 99.9H111.2L111.45 100.1V100.15V100.45V100.55L110.75 102.35H105.9L104.95 99.3L105 98.95V98.9L105.25 98.75H105.6L106.95 99.3L107.95 96.15C107.95 96.05 108 95.9667 108.1 95.9L108.4 95.8Z" fill="url(#paint11_linear_76_93)"/>
<path d="M78.3 120.5L78.35 120.55V120.9L77.15 124.05L78.65 124.45L78.95 124.7L79 125L78.95 125.15L78.8 125.3L77.2 126.35H71.2L69.75 123.2H69.7V122.95L69.75 122.75L69.8 122.65L70.05 122.55L71.75 122.2L72.1 118.7L72.2 118.45L72.45 118.3L72.7 118.35L72.95 118.5L74.95 121.35L77.75 120.3H78.1L78.3 120.5Z" fill="url(#paint12_linear_76_93)"/>
<path d="M59.45 117.25L59.6 117L59.9 116.9L60.15 117L60.3 117.25L61.15 121.4L62.4 121H62.7L62.95 121.2V121.25V121.55V121.65L62.25 123.45H57.4L56.45 120.4L56.5 120.05V120C56.5667 119.9 56.65 119.85 56.75 119.85H57.1L58.45 120.4L59.45 117.25Z" fill="url(#paint13_linear_76_93)"/>
<path d="M50.7001 116.1L50.7501 116.15V116.5L49.5502 119.65L51.0502 120.05L51.3501 120.3L51.4001 120.6L51.3501 120.75L51.2001 120.9L49.6001 121.95H43.6001L42.1501 118.8H42.1001V118.55L42.1501 118.35L42.2001 118.25L42.4501 118.15L44.1501 117.8L44.5001 114.3L44.6001 114.05L44.8501 113.9L45.1001 113.95C45.2001 113.95 45.2834 114 45.3501 114.1L47.3501 116.95L50.1501 115.9H50.5001L50.7001 116.1Z" fill="url(#paint14_linear_76_93)"/>
<path d="M90.05 24.1L99.15 43.85L99.3 44.9001L98.9 45.85L98.5 46.25L99.7 49.4501C99.8666 49.9167 99.8666 50.3667 99.7 50.8L102 53.6C102.267 53.9334 102.417 54.3167 102.45 54.75C102.483 55.15 102.383 55.5501 102.15 55.9501L101.2 56.7001L87.1 62.3L85.8 62.4001C85.3334 62.2334 84.9833 61.9667 84.75 61.6L77.95 52C77.6833 51.6667 77.55 51.2834 77.55 50.85C77.55 50.4167 77.6667 50.0334 77.9 49.7001L79.4 47.55L78.3 45.9501C78 45.5834 77.8667 45.1667 77.9 44.7001C77.9334 44.2334 78.1 43.8334 78.4 43.5L80.35 41.3L80.15 40.6C80.0834 40.2667 80.1167 39.9501 80.25 39.6501L86.35 24.2001C86.55 23.6667 86.9 23.3 87.4 23.1L88.9 23.05C89.4 23.2167 89.7834 23.5667 90.05 24.1ZM81.85 47.55L79.55 50.85L86.35 60.4501L87.85 59.9001L87.8 59.85L100.45 54.85L96.85 50.5L97.8 50.1501L95.95 45.2001L95.55 45.35L97.3 44.6501L88.2 24.9L82.1 40.35L82.85 41.4001L83.1 41.7001H83.05L82.85 41.4001L79.9 44.8L81.85 47.55Z" fill="#115F32"/>
<path d="M81.85 47.5499L86.8 54.4499L87.45 47.8999V47.8499L83.1 41.6999L82.85 41.3999L82.1 40.3499L88.2 24.8999L87.8 48.3999L95.55 45.3499L95.95 45.1999L97.8 50.1499L96.85 50.4999L87.15 54.2999L86.35 60.4499L79.55 50.8499L81.85 47.5499Z" fill="#168344"/>
<path d="M81.8499 47.5499L79.8999 44.7999L82.8499 41.3999L83.0499 41.6999H83.0999L87.4498 47.8499V47.8999L86.7999 54.4499L81.8499 47.5499Z" fill="#10773C"/>
<path d="M86.3501 60.4499L87.1501 54.2999L96.8501 50.4999L100.45 54.8499L87.8002 59.8499L87.8501 59.8999L86.3501 60.4499ZM95.5502 45.3499L87.8002 48.3999L88.2001 24.8999L97.3002 44.6499L95.5502 45.3499Z" fill="#1B914D"/>
<path d="M90.05 41.8L99.15 61.55L99.3 62.6L98.9 63.55L98.5 63.95L99.7 67.15C99.8666 67.6167 99.8666 68.0667 99.7 68.5L102 71.3C102.267 71.6333 102.417 72.0167 102.45 72.45C102.483 72.85 102.383 73.25 102.15 73.65L101.2 74.4L87.1 80L85.8 80.1C85.3334 79.9333 84.9833 79.6667 84.75 79.3L77.95 69.7C77.6833 69.3667 77.55 68.9833 77.55 68.55C77.55 68.1167 77.6667 67.7333 77.9 67.4L79.4 65.25L78.3 63.65C78 63.2833 77.8667 62.8667 77.9 62.4C77.9334 61.9333 78.1 61.5333 78.4 61.2L80.35 59L80.15 58.3C80.0834 57.9667 80.1167 57.65 80.25 57.35L86.35 41.9C86.55 41.3667 86.9 41 87.4 40.8L88.9 40.75C89.4 40.9167 89.7834 41.2667 90.05 41.8ZM83.1 59.4H83.05L82.85 59.1L83.1 59.4ZM88.2 42.6L82.1 58.05L82.85 59.1L79.9 62.5L81.85 65.25L79.55 68.55L86.35 78.15L87.85 77.6L87.8 77.55L100.45 72.55L96.85 68.2L97.8 67.85L95.95 62.9L95.55 63.05L97.3 62.35L88.2 42.6Z" fill="#115F32"/>
<path d="M82.8499 59.1001L83.0499 59.4001H83.0999L87.4498 65.5501V65.6001L86.7999 72.1501L81.8499 65.2501L79.8999 62.5001L82.8499 59.1001Z" fill="#10773C"/>
<path d="M82.85 59.1001L82.1 58.0501L88.2 42.6001L87.8 66.1001L95.55 63.0501L95.95 62.9001L97.8 67.8501L96.85 68.2001L87.15 72.0001L86.35 78.1501L79.55 68.5501L81.85 65.2501L86.8 72.1501L87.45 65.6001V65.5501L83.1 59.4001L82.85 59.1001Z" fill="#168344"/>
<path d="M88.2001 42.6001L97.3002 62.3501L95.5502 63.0501L87.8002 66.1001L88.2001 42.6001ZM96.8501 68.2001L100.45 72.5501L87.8002 77.5501L87.8501 77.6001L86.3501 78.1501L87.1501 72.0001L96.8501 68.2001Z" fill="#1B914D"/>
<path d="M69.5499 42.7999L73.8498 53.6499L73.9998 54.5499L73.9498 54.8999L75.0998 56.1999C75.3665 56.5332 75.5165 56.9332 75.5499 57.3999L75.1998 58.6499L74.6498 59.4499L75.4498 60.5999C75.6831 60.9332 75.7999 61.3166 75.7999 61.7499C75.7999 62.1832 75.6831 62.5666 75.4498 62.8999L70.6498 69.6499C70.3832 70.0166 70.0498 70.2666 69.6498 70.3999C69.2165 70.5332 68.7998 70.5332 68.3998 70.3999L67.3498 70.0499L66.7498 69.7499L58.3998 66.4499L57.4498 65.6999C57.1831 65.3332 57.0665 64.9332 57.0998 64.4999C57.1331 64.0666 57.2832 63.6832 57.5499 63.3499L58.9998 61.5999C58.9332 61.2332 58.9665 60.8832 59.0998 60.5499L59.7999 58.6999L59.6998 58.5999L59.2999 57.6499C59.2665 57.2832 59.3332 56.9332 59.4998 56.5999L65.8998 42.6999C66.1332 42.1666 66.4998 41.8166 66.9998 41.6499L68.4998 41.6999C68.9998 41.8999 69.3499 42.2666 69.5499 42.7999ZM67.6998 43.4999L61.2999 57.3999L62.5499 57.8999L62.2498 57.7999L60.9498 61.2499L61.5998 61.4999L59.0998 64.5999L67.9998 68.0999L67.9498 68.1499L68.9998 68.4999L73.7999 61.7499L72.1998 59.4499L73.5499 57.4999L71.4998 55.0999L71.3498 55.2999H71.2999L71.4998 55.0999L71.9998 54.3499L67.6998 43.4999Z" fill="#115F32"/>
<path d="M67.7001 43.5L68.0001 60.05L62.5502 57.9L61.3002 57.4L67.7001 43.5ZM71.5001 55.1L73.5502 57.5L72.2001 59.45L68.7001 64.3L68.2501 59.7V59.65L71.3002 55.3H71.3501L71.5001 55.1ZM69.0001 68.5L67.9501 68.15L68.0001 68.1L59.1001 64.6L61.6001 61.5L68.4501 64.2L69.0001 68.5Z" fill="#168344"/>
<path d="M69 68.5L68.45 64.2L61.6 61.5L60.95 61.25L62.25 57.8L62.55 57.9L68 60.05L67.7 43.5L72 54.35L71.5 55.1L71.3 55.3L68.25 59.65V59.7L68.7 64.3L72.2 59.45L73.8 61.75L69 68.5Z" fill="#1B914D"/>
<path d="M15.2498 51.35C15.7498 51.55 16.0999 51.9167 16.2999 52.4501L20.5998 63.3L20.7498 64.2001L20.6998 64.55L21.8498 65.85L22.2999 67.0501L21.9498 68.3001L21.3998 69.1L22.1998 70.25C22.4331 70.5834 22.5499 70.9667 22.5499 71.4001L22.1998 72.5501L17.3998 79.3001C17.1332 79.6667 16.7998 79.9167 16.3998 80.0501C15.9665 80.1834 15.5498 80.1834 15.1498 80.0501L14.0998 79.7L13.4998 79.4001L5.14984 76.1L4.19977 75.35C3.9331 74.9834 3.81646 74.5834 3.84979 74.1501C3.88313 73.7167 4.0332 73.3334 4.29987 73L5.74982 71.25C5.68315 70.8834 5.71646 70.5334 5.84979 70.2L6.54987 68.35L6.44977 68.25L6.04987 67.3001C6.01653 66.9334 6.08315 66.5834 6.24982 66.25L12.6498 52.35C12.8832 51.8167 13.2498 51.4667 13.7498 51.3L15.2498 51.35ZM18.9498 69.1L20.2999 67.1501L18.2498 64.75L18.0998 64.9501H18.0499L18.2498 64.75L18.7498 64L14.4498 53.1501L8.04987 67.0501L9.29987 67.5501L8.99982 67.45L7.69977 70.9001L8.34979 71.1501L5.84979 74.25L14.7498 77.75L14.6998 77.8001L15.7498 78.1501L20.5499 71.4001L18.9498 69.1Z" fill="#115F32"/>
<path d="M18.9501 69.0999L15.4501 73.9499L15.0001 69.3499V69.2999L18.0502 64.9499H18.1001L18.2501 64.7499L20.3002 67.1499L18.9501 69.0999ZM15.7501 78.1499L14.7001 77.7999L14.7501 77.7499L5.8501 74.2499L8.3501 71.1499L15.2001 73.8499L15.7501 78.1499ZM9.30017 67.5499L8.05017 67.0499L14.4501 53.1499L14.7501 69.6999L9.30017 67.5499Z" fill="#168344"/>
<path d="M9.30005 67.5499L14.75 69.6999L14.45 53.1499L18.75 63.9999L18.25 64.7499L18.05 64.9499L15 69.2999V69.3499L15.45 73.9499L18.95 69.0999L20.55 71.3999L15.75 78.1499L15.2 73.8499L8.34998 71.1499L7.69995 70.8999L9 67.4499L9.30005 67.5499Z" fill="#1B914D"/>
<path d="M31.3 83.55L33.05 82.85L23.95 63.1L17.85 78.55L18.6 79.6L15.65 83L17.6 85.75L15.3 89.05L22.1 98.65L23.6 98.1L23.55 98.05L36.2 93.05L32.6 88.7L33.55 88.35L31.7 83.4L31.3 83.55ZM23.15 61.3L24.65 61.25C25.15 61.4167 25.5334 61.7667 25.8 62.3L34.9 82.05L35.05 83.1L34.65 84.05L34.25 84.45L35.45 87.65C35.6166 88.1167 35.6166 88.5667 35.45 89L37.75 91.8C38.0167 92.1333 38.1666 92.5167 38.2 92.95C38.2333 93.35 38.1334 93.75 37.9 94.15L36.95 94.9L22.85 100.5L21.55 100.6C21.0834 100.433 20.7333 100.167 20.5 99.8L13.7 90.2C13.4333 89.8667 13.3 89.4833 13.3 89.05C13.3 88.6167 13.4167 88.2333 13.65 87.9L15.15 85.75L14.05 84.15C13.75 83.7833 13.6167 83.3667 13.65 82.9C13.6834 82.4333 13.85 82.0333 14.15 81.7L16.1 79.5L15.9 78.8C15.8334 78.4667 15.8667 78.15 16 77.85L22.1 62.4C22.3 61.8667 22.65 61.5 23.15 61.3ZM18.6 79.6L18.85 79.9H18.8L18.6 79.6Z" fill="#115F32"/>
<path d="M18.6 79.6001L17.85 78.5501L23.95 63.1001L23.55 86.6001L31.3 83.5501L31.7 83.4001L33.55 88.3501L32.6 88.7001L22.9 92.5001L22.1 98.6501L15.3 89.0501L17.6 85.7501L22.55 92.6501L23.2 86.1001V86.0501L18.85 79.9001L18.6 79.6001Z" fill="#168344"/>
<path d="M18.5999 79.6001L18.7999 79.9001H18.8499L23.1998 86.0501V86.1001L22.5499 92.6501L17.5999 85.7501L15.6499 83.0001L18.5999 79.6001Z" fill="#10773C"/>
<path d="M22.1001 98.6501L22.9001 92.5001L32.6001 88.7001L36.2001 93.0501L23.5502 98.0501L23.6001 98.1001L22.1001 98.6501ZM31.3002 83.5501L23.5502 86.6001L23.9501 63.1001L33.0502 82.8501L31.3002 83.5501Z" fill="#1B914D"/>
<path d="M71.7498 111.05L78.1498 97.1501C78.3832 96.6168 78.7498 96.2668 79.2498 96.1001L80.7498 96.1501C81.2498 96.3501 81.5999 96.7168 81.7999 97.2501L86.0998 108.1L86.2498 109L86.1998 109.35L87.3498 110.65C87.6165 110.983 87.7665 111.383 87.7999 111.85C87.8332 112.317 87.7164 112.733 87.4498 113.1L86.8998 113.9L87.6998 115.05C87.9331 115.383 88.0499 115.767 88.0499 116.2L87.6998 117.35L82.8998 124.1L81.8998 124.85C81.4665 124.983 81.0498 124.983 80.6498 124.85L79.5998 124.5L78.9998 124.2L70.6498 120.9L69.6998 120.15C69.4331 119.783 69.3165 119.383 69.3498 118.95C69.3831 118.517 69.5332 118.133 69.7999 117.8L71.2498 116.05C71.1832 115.683 71.2165 115.333 71.3498 115L72.0499 113.15L71.9498 113.05L71.5499 112.1C71.5165 111.733 71.5832 111.383 71.7498 111.05ZM83.7498 109.55L83.5998 109.75H83.5499L83.7498 109.55L84.2498 108.8L79.9498 97.9501L73.5499 111.85L74.7999 112.35L74.4998 112.25L73.1998 115.7L73.8498 115.95L71.3498 119.05L80.2498 122.55L80.1998 122.6L81.2498 122.95L86.0499 116.2L84.4498 113.9L85.7999 111.95L83.7498 109.55Z" fill="#115F32"/>
<path d="M83.75 109.55L83.55 109.75L80.5 114.1V114.15L80.95 118.75L84.45 113.9L86.05 116.2L81.25 122.95L80.7 118.65L73.85 115.95L73.2 115.7L74.5 112.25L74.8 112.35L80.25 114.5L79.95 97.95L84.25 108.8L83.75 109.55Z" fill="#1B914D"/>
<path d="M83.7501 109.55L85.8002 111.95L84.4501 113.9L80.9501 118.75L80.5001 114.15V114.1L83.5502 109.75H83.6001L83.7501 109.55ZM79.9501 97.95L80.2501 114.5L74.8002 112.35L73.5502 111.85L79.9501 97.95ZM73.8501 115.95L80.7001 118.65L81.2501 122.95L80.2001 122.6L80.2501 122.55L71.3501 119.05L73.8501 115.95Z" fill="#168344"/>
<path d="M54.35 39.2L55.3 38.85L53.45 33.9L53.05 34.05L54.8 33.35L45.7 13.6L39.6 29.05L40.35 30.1L37.4 33.5L39.35 36.25L37.05 39.55L43.85 49.15L45.35 48.6L45.3 48.55L57.95 43.55L54.35 39.2ZM44.9 11.8L46.4 11.75C46.9 11.9167 47.2834 12.2667 47.55 12.8L56.65 32.55L56.8 33.6L56.4 34.55L56 34.95L57.2 38.15C57.3666 38.6167 57.3666 39.0667 57.2 39.5L59.5 42.3C59.7667 42.6333 59.9166 43.0167 59.95 43.45C59.9833 43.85 59.8834 44.25 59.65 44.65L58.7 45.4L44.6 51L43.3 51.1C42.8334 50.9333 42.4833 50.6667 42.25 50.3L35.45 40.7C35.1833 40.3667 35.05 39.9833 35.05 39.55C35.05 39.1167 35.1667 38.7333 35.4 38.4L36.9 36.25L35.8 34.65C35.5 34.2833 35.3667 33.8667 35.4 33.4C35.4334 32.9333 35.6 32.5333 35.9 32.2L37.85 30L37.65 29.3C37.5834 28.9667 37.6167 28.65 37.75 28.35L43.85 12.9C44.05 12.3667 44.4 12 44.9 11.8ZM40.35 30.1L40.6 30.4H40.55L40.35 30.1Z" fill="#115F32"/>
<path d="M40.35 30.1001L39.6 29.0501L45.7 13.6001L45.3 37.1001L53.05 34.0501L53.45 33.9001L55.3 38.8501L54.35 39.2001L44.65 43.0001L43.85 49.1501L37.05 39.5501L39.35 36.2501L44.3 43.1501L44.95 36.6001V36.5501L40.6 30.4001L40.35 30.1001Z" fill="#168344"/>
<path d="M40.3499 30.1001L40.5499 30.4001H40.5999L44.9498 36.5501V36.6001L44.2999 43.1501L39.3499 36.2501L37.3999 33.5001L40.3499 30.1001Z" fill="#10773C"/>
<path d="M45.7001 13.6001L54.8002 33.3501L53.0502 34.0501L45.3002 37.1001L45.7001 13.6001ZM54.3501 39.2001L57.9501 43.5501L45.3002 48.5501L45.3501 48.6001L43.8501 49.1501L44.6501 43.0001L54.3501 39.2001Z" fill="#1B914D"/>
<path d="M121 36V106L61 141L1 106L1 36L61 0.999996L121 36Z" stroke="black" stroke-width="0.5"/>
<defs>
<linearGradient id="paint0_linear_76_93" x1="58.7" y1="30.4624" x2="58.7" y2="23.9374" gradientUnits="userSpaceOnUse">
<stop stop-color="#27AE60"/>
<stop offset="1" stop-color="#30C26D"/>
</linearGradient>
<linearGradient id="paint1_linear_76_93" x1="47.7" y1="42.6499" x2="47.7" y2="34.6499" gradientUnits="userSpaceOnUse">
<stop stop-color="#27AE60"/>
<stop offset="1" stop-color="#30C26D"/>
</linearGradient>
<linearGradient id="paint2_linear_76_93" x1="39.8" y1="58.4124" x2="39.8" y2="51.8874" gradientUnits="userSpaceOnUse">
<stop stop-color="#27AE60"/>
<stop offset="1" stop-color="#30C26D"/>
</linearGradient>
<linearGradient id="paint3_linear_76_93" x1="62.85" y1="52.9875" x2="62.85" y2="45.1125" gradientUnits="userSpaceOnUse">
<stop stop-color="#27AE60"/>
<stop offset="1" stop-color="#30C26D"/>
</linearGradient>
<linearGradient id="paint4_linear_76_93" x1="14.2001" y1="54.4875" x2="14.2001" y2="46.6125" gradientUnits="userSpaceOnUse">
<stop stop-color="#27AE60"/>
<stop offset="1" stop-color="#30C26D"/>
</linearGradient>
<linearGradient id="paint5_linear_76_93" x1="27.3501" y1="66.6624" x2="27.3501" y2="60.1374" gradientUnits="userSpaceOnUse">
<stop stop-color="#27AE60"/>
<stop offset="1" stop-color="#30C26D"/>
</linearGradient>
<linearGradient id="paint6_linear_76_93" x1="16.4501" y1="107.137" x2="16.4501" y2="99.2624" gradientUnits="userSpaceOnUse">
<stop stop-color="#27AE60"/>
<stop offset="1" stop-color="#30C26D"/>
</linearGradient>
<linearGradient id="paint7_linear_76_93" x1="72.3" y1="93.4124" x2="72.3" y2="86.8874" gradientUnits="userSpaceOnUse">
<stop stop-color="#27AE60"/>
<stop offset="1" stop-color="#30C26D"/>
</linearGradient>
<linearGradient id="paint8_linear_76_93" x1="58.7001" y1="111.538" x2="58.7001" y2="103.663" gradientUnits="userSpaceOnUse">
<stop stop-color="#27AE60"/>
<stop offset="1" stop-color="#30C26D"/>
</linearGradient>
<linearGradient id="paint9_linear_76_93" x1="92.7" y1="34.6126" x2="92.7" y2="28.0876" gradientUnits="userSpaceOnUse">
<stop stop-color="#27AE60"/>
<stop offset="1" stop-color="#30C26D"/>
</linearGradient>
<linearGradient id="paint10_linear_76_93" x1="85.8" y1="86.1624" x2="85.8" y2="79.6374" gradientUnits="userSpaceOnUse">
<stop stop-color="#27AE60"/>
<stop offset="1" stop-color="#30C26D"/>
</linearGradient>
<linearGradient id="paint11_linear_76_93" x1="108.2" y1="102.313" x2="108.2" y2="95.7875" gradientUnits="userSpaceOnUse">
<stop stop-color="#27AE60"/>
<stop offset="1" stop-color="#30C26D"/>
</linearGradient>
<linearGradient id="paint12_linear_76_93" x1="74.3" y1="126.288" x2="74.3" y2="118.413" gradientUnits="userSpaceOnUse">
<stop stop-color="#27AE60"/>
<stop offset="1" stop-color="#30C26D"/>
</linearGradient>
<linearGradient id="paint13_linear_76_93" x1="59.7" y1="123.412" x2="59.7" y2="116.887" gradientUnits="userSpaceOnUse">
<stop stop-color="#27AE60"/>
<stop offset="1" stop-color="#30C26D"/>
</linearGradient>
<linearGradient id="paint14_linear_76_93" x1="46.7001" y1="121.887" x2="46.7001" y2="114.012" gradientUnits="userSpaceOnUse">
<stop stop-color="#27AE60"/>
<stop offset="1" stop-color="#30C26D"/>
</linearGradient>
</defs>
</svg>
