<svg width="122" height="142" viewBox="0 0 122 142" fill="none" xmlns="http://www.w3.org/2000/svg">
<path d="M12.35 46.5L12.1 46.65L12 46.9L11.65 50.4L9.94995 50.75L9.69995 50.85L9.65002 50.95L9.59998 51.15V51.4H9.65002L11.1 54.55H17.1L18.7 53.5L18.85 53.35L18.9 53.2L18.85 52.9L18.55 52.65L17.05 52.25L18.25 49.1V48.75L18.2 48.7L18 48.5H17.65L14.85 49.55L12.85 46.7L12.6 46.55L12.35 46.5ZM56.05 28L55.75 28.05L55.5 28.25V28.3V28.6V28.7L56.2 30.5H61.05L61.95 27.4V27.05L61.7 26.85H61.35L59.95 27.4L59 24.25L58.85 24L58.55 23.9L58.25 24.05L58.1 24.3L57.3 28.4L56.05 28ZM49.95 35.05L49.85 34.8L49.6 34.65H49.35L49.1 34.8L47.15 37.65L44.3 36.65H43.95L43.75 36.85L43.7 36.9V37.25L44.95 40.35L43.4 40.8L43.15 41L43.05 41.35L43.15 41.45L43.25 41.6L44.85 42.7H50.85L52.3 39.55L52.35 39.5L52.4 39.25L52.3 39.1L52.25 39L52 38.85L50.35 38.55L49.95 35.05ZM39.55 52.25L38.55 55.4L37.2 54.85H36.85L36.6 55V55.05C36.5333 55.15 36.5167 55.2667 36.55 55.4L37.5 58.45H42.35L43.05 56.65V56.55V56.25V56.2L42.8 56H42.5L41.25 56.4L40.4 52.25L40.25 52L40 51.9L39.7 52C39.6 52.0667 39.55 52.15 39.55 52.25ZM92.6 28.2C92.5 28.2666 92.45 28.35 92.45 28.45L91.45 31.6L90.1 31.05H89.75C89.65 31.05 89.5667 31.1 89.5 31.2V31.25C89.4333 31.35 89.4166 31.4666 89.45 31.6L90.4 34.65H95.25L95.95 32.85V32.75V32.45V32.4L95.7 32.2H95.4L94.15 32.6L93.3 28.45L93.15 28.2L92.9 28.1L92.6 28.2ZM61 45L60.75 45.15L60.65 45.4L60.3 48.9L58.6 49.25L58.35 49.35L58.3 49.45L58.25 49.65V49.9H58.3L59.75 53.05H65.75L67.35 52L67.5 51.85L67.55 51.7L67.5 51.4L67.2 51.15L65.7 50.75L66.9 47.6V47.25L66.85 47.2L66.65 47H66.3L63.5 48.05L61.5 45.2L61.25 45.05L61 45ZM121 36V106L61 141L1 106V36L61 1L121 36ZM105 98.9V98.95C104.933 99.05 104.917 99.1667 104.95 99.3L105.9 102.35H110.75L111.45 100.55V100.45V100.15V100.1L111.2 99.9H110.9L109.65 100.3L108.8 96.15L108.65 95.9L108.4 95.8L108.1 95.9C108 95.9667 107.95 96.05 107.95 96.15L106.95 99.3L105.6 98.75H105.25L105 98.9ZM72.05 87.25L71.05 90.4L69.7 89.85H69.35C69.25 89.85 69.1666 89.9 69.1 90V90.05C69.0333 90.15 69.0167 90.2667 69.05 90.4L70 93.45H74.85L75.55 91.65V91.55V91.25V91.2L75.3 91H75L73.75 91.4L72.9 87.25L72.75 87L72.5 86.9L72.2 87L72.05 87.25ZM88.5 83.75L87.25 84.15L86.4 80L86.25 79.75L86 79.65L85.7 79.75L85.55 80L84.55 83.15L83.2 82.6H82.85C82.75 82.6 82.6666 82.65 82.6 82.75V82.8C82.5333 82.9 82.5167 83.0167 82.55 83.15L83.5 86.2H88.35L89.05 84.4V84.3V84V83.95L88.8 83.75H88.5ZM78.35 120.9V120.55L78.3 120.5L78.1 120.3H77.75L74.95 121.35L72.95 118.5L72.7 118.35L72.45 118.3L72.2 118.45L72.1 118.7L71.75 122.2L70.05 122.55L69.8 122.65L69.75 122.75L69.7 122.95V123.2H69.75L71.2 126.35H77.2L78.8 125.3L78.95 125.15L79 125L78.95 124.7L78.65 124.45L77.15 124.05L78.35 120.9ZM62.75 106.15V105.8L62.7 105.75L62.5 105.55H62.15L59.35 106.6L57.35 103.75C57.2833 103.65 57.2 103.6 57.1 103.6L56.85 103.55L56.6 103.7L56.5 103.95L56.15 107.45L54.45 107.8L54.2 107.9L54.15 108L54.1 108.2V108.45H54.15L55.6 111.6H61.6L63.2 110.55L63.35 110.4L63.4 110.25L63.35 109.95L63.05 109.7L61.55 109.3L62.75 106.15ZM62.4 121L61.15 121.4L60.3 117.25L60.15 117L59.9 116.9L59.6 117C59.5 117.067 59.45 117.15 59.45 117.25L58.45 120.4L57.1 119.85H56.75C56.65 119.85 56.5667 119.9 56.5 120V120.05C56.4333 120.15 56.4166 120.267 56.45 120.4L57.4 123.45H62.25L62.95 121.65V121.55V121.25V121.2L62.7 121H62.4ZM27.1 60.5L26.1 63.65L24.75 63.1H24.4L24.15 63.25V63.3C24.0834 63.4 24.0666 63.5167 24.1 63.65L25.05 66.7H29.9L30.6 64.9V64.8V64.5V64.45L30.35 64.25H30.05L28.8 64.65L27.95 60.5L27.8 60.25L27.55 60.15L27.25 60.25L27.1 60.5ZM19.9 101.15L17.1 102.2L15.1 99.35L14.85 99.2L14.6 99.15L14.35 99.3L14.25 99.55L13.9 103.05L12.2 103.4L11.95 103.5L11.9 103.6L11.85 103.8V104.05H11.9L13.35 107.2H19.35L20.95 106.15L21.1 106L21.15 105.85L21.1 105.55L20.8 105.3L19.3 104.9L20.5 101.75V101.4L20.45 101.35L20.25 101.15H19.9ZM45.35 114.1C45.2833 114 45.2 113.95 45.1 113.95L44.85 113.9L44.6 114.05L44.5 114.3L44.15 117.8L42.45 118.15L42.2 118.25L42.15 118.35L42.1 118.55V118.8H42.15L43.6 121.95H49.6L51.2 120.9L51.35 120.75L51.4 120.6L51.35 120.3L51.05 120.05L49.55 119.65L50.75 116.5V116.15L50.7 116.1L50.5 115.9H50.15L47.35 116.95L45.35 114.1Z" fill="#27AE60"/>
<path d="M12.35 46.5L12.6 46.55L12.85 46.7L14.85 49.55L17.65 48.5H18L18.2 48.7L18.25 48.75V49.1L17.05 52.25L18.55 52.65L18.85 52.9L18.9 53.2L18.85 53.35L18.7 53.5L17.1 54.55H11.1L9.65002 51.4H9.59998V51.15L9.65002 50.95L9.69995 50.85L9.94995 50.75L11.65 50.4L12 46.9L12.1 46.65L12.35 46.5Z" fill="url(#paint0_linear_76_329)"/>
<path d="M56.05 27.9999L57.3 28.3999L58.1 24.2999L58.25 24.0499L58.55 23.8999L58.85 23.9999L59 24.2499L59.95 27.3999L61.35 26.8499H61.7L61.95 27.0499V27.3999L61.05 30.4999H56.2L55.5 28.6998V28.5999V28.2999V28.2499L55.75 28.0499L56.05 27.9999Z" fill="url(#paint1_linear_76_329)"/>
<path d="M49.95 35.0499L50.35 38.5499L52 38.8499L52.25 38.9999L52.3 39.0999L52.4 39.2499L52.35 39.4999L52.3 39.5499L50.85 42.6998H44.85L43.25 41.5999L43.15 41.4498L43.05 41.3499L43.15 40.9999L43.4 40.7999L44.95 40.3499L43.7 37.2499V36.8999L43.75 36.8499L43.95 36.6499H44.3L47.15 37.6499L49.1 34.7999L49.35 34.6499H49.6L49.85 34.7999L49.95 35.0499Z" fill="url(#paint2_linear_76_329)"/>
<path d="M39.55 52.2499C39.55 52.1499 39.5999 52.0665 39.6999 51.9999L40 51.8999L40.25 51.9999L40.4 52.2499L41.25 56.3999L42.5 55.9999H42.8L43.05 56.1998V56.2499V56.5499V56.6499L42.3499 58.4498H37.5L36.55 55.3999C36.5167 55.2666 36.5333 55.1499 36.5999 55.0499V54.9999L36.8499 54.8499H37.1999L38.55 55.3999L39.55 52.2499Z" fill="url(#paint3_linear_76_329)"/>
<path d="M92.6 28.2001L92.9001 28.1001L93.1501 28.2001L93.3001 28.4501L94.1501 32.6001L95.4001 32.2001H95.7L95.95 32.4001V32.4501V32.7501V32.8501L95.2501 34.6501H90.4001L89.45 31.6001C89.4167 31.4668 89.4334 31.3501 89.5001 31.2501V31.2001C89.5667 31.1001 89.6501 31.0502 89.7501 31.0502H90.1L91.45 31.6001L92.45 28.4501C92.45 28.3501 92.5 28.2667 92.6 28.2001Z" fill="url(#paint4_linear_76_329)"/>
<path d="M61 45L61.25 45.05L61.5 45.2L63.5 48.05L66.3 47H66.65L66.85 47.2L66.9 47.25V47.6L65.7 50.75L67.2 51.15L67.5 51.4L67.55 51.7L67.5 51.85L67.35 52L65.75 53.05H59.75L58.3 49.9H58.25V49.65L58.3 49.45L58.35 49.35L58.6 49.25L60.3 48.9L60.65 45.4L60.75 45.15L61 45Z" fill="url(#paint5_linear_76_329)"/>
<path d="M105 98.9L105.25 98.75H105.6L106.95 99.3L107.95 96.15C107.95 96.05 108 95.9667 108.1 95.9L108.4 95.8L108.65 95.9L108.8 96.15L109.65 100.3L110.9 99.9H111.2L111.45 100.1V100.15V100.45V100.55L110.75 102.35H105.9L104.95 99.3C104.917 99.1667 104.933 99.05 105 98.95V98.9Z" fill="url(#paint6_linear_76_329)"/>
<path d="M72.05 87.2499L72.1999 86.9999L72.5 86.8999L72.75 86.9999L72.9 87.2499L73.75 91.3999L75 90.9999H75.3L75.55 91.1998V91.2499V91.5499V91.6499L74.8499 93.4498H70L69.05 90.3999C69.0167 90.2666 69.0333 90.1499 69.0999 90.0499V89.9999C69.1666 89.8999 69.2499 89.8499 69.3499 89.8499H69.6999L71.05 90.3999L72.05 87.2499Z" fill="url(#paint7_linear_76_329)"/>
<path d="M88.5 83.7499H88.8L89.05 83.9498V83.9999V84.2999V84.3999L88.3499 86.1998H83.5L82.55 83.1499C82.5167 83.0166 82.5333 82.8999 82.5999 82.7999V82.7499C82.6666 82.6499 82.7499 82.5999 82.8499 82.5999H83.1999L84.55 83.1499L85.55 79.9999L85.6999 79.7499L86 79.6499L86.25 79.7499L86.4 79.9999L87.25 84.1499L88.5 83.7499Z" fill="url(#paint8_linear_76_329)"/>
<path d="M78.35 120.9L77.15 124.05L78.65 124.45L78.95 124.7L79 125L78.95 125.15L78.8 125.3L77.2 126.35H71.2L69.75 123.2H69.7V122.95L69.75 122.75L69.8 122.65L70.05 122.55L71.75 122.2L72.1 118.7L72.2 118.45L72.45 118.3L72.7 118.35L72.95 118.5L74.95 121.35L77.75 120.3H78.1L78.3 120.5L78.35 120.55V120.9Z" fill="url(#paint9_linear_76_329)"/>
<path d="M62.75 106.15L61.55 109.3L63.05 109.7L63.35 109.95L63.4 110.25L63.35 110.4L63.2 110.55L61.6 111.6H55.6L54.15 108.45H54.1V108.2L54.15 108L54.2 107.9L54.45 107.8L56.15 107.45L56.5 103.95L56.6 103.7L56.85 103.55L57.1 103.6C57.2 103.6 57.2833 103.65 57.35 103.75L59.35 106.6L62.15 105.55H62.5L62.7 105.75L62.75 105.8V106.15Z" fill="url(#paint10_linear_76_329)"/>
<path d="M62.4001 121H62.7L62.95 121.2V121.25V121.55V121.65L62.2501 123.45H57.4001L56.45 120.4C56.4167 120.267 56.4334 120.15 56.5001 120.05V120C56.5667 119.9 56.6501 119.85 56.7501 119.85H57.1L58.45 120.4L59.45 117.25C59.45 117.15 59.5 117.067 59.6 117L59.9001 116.9L60.1501 117L60.3001 117.25L61.1501 121.4L62.4001 121Z" fill="url(#paint11_linear_76_329)"/>
<path d="M27.1 60.4999L27.2501 60.2499L27.5501 60.1499L27.8001 60.2499L27.95 60.4999L28.8001 64.6499L30.0501 64.2499H30.35L30.6 64.4498V64.4999V64.7999V64.8999L29.9001 66.6998H25.0501L24.1 63.6499C24.0667 63.5166 24.0834 63.3999 24.1501 63.2999V63.2499L24.4001 63.0999H24.7501L26.1 63.6499L27.1 60.4999Z" fill="url(#paint12_linear_76_329)"/>
<path d="M19.9 101.15H20.25L20.45 101.35L20.5 101.4V101.75L19.3 104.9L20.8 105.3L21.1 105.55L21.15 105.85L21.1 106L20.95 106.15L19.35 107.2H13.35L11.9 104.05H11.85V103.8L11.9 103.6L11.95 103.5L12.2 103.4L13.9 103.05L14.25 99.5499L14.35 99.2999L14.6 99.1499L14.85 99.1998L15.1 99.3499L17.1 102.2L19.9 101.15Z" fill="url(#paint13_linear_76_329)"/>
<path d="M45.35 114.1L47.35 116.95L50.15 115.9H50.5L50.7 116.1L50.75 116.15V116.5L49.55 119.65L51.05 120.05L51.35 120.3L51.4 120.6L51.35 120.75L51.2 120.9L49.6 121.95H43.6L42.15 118.8H42.1V118.55L42.15 118.35L42.2 118.25L42.45 118.15L44.15 117.8L44.5 114.3L44.6 114.05L44.85 113.9L45.1 113.95C45.2 113.95 45.2833 114 45.35 114.1Z" fill="url(#paint14_linear_76_329)"/>
<path d="M33.6999 32.25C34.1999 32.45 34.5499 32.8166 34.7499 33.35L39.05 44.2L39.1999 45.1L39.15 45.45L40.3 46.75L40.7499 47.95C40.7833 48.4166 40.6666 48.8333 40.4 49.2L39.8499 50L40.65 51.15C40.8833 51.4834 40.9999 51.8667 40.9999 52.3L40.65 53.45L35.8499 60.2C35.5832 60.5666 35.2499 60.8166 34.8499 60.95C34.4166 61.0833 33.9999 61.0833 33.5999 60.95L32.55 60.6L31.9499 60.3L23.5999 57L22.65 56.25C22.3833 55.8833 22.2667 55.4834 22.3 55.05C22.3333 54.6167 22.4833 54.2334 22.7499 53.9L24.1999 52.15C24.1332 51.7834 24.1667 51.4333 24.3 51.1L24.9999 49.25L24.9 49.15L24.4999 48.2C24.4666 47.8333 24.5332 47.4834 24.6999 47.15L31.0999 33.25C31.3332 32.7167 31.6999 32.3666 32.1999 32.2L33.6999 32.25ZM36.4999 45.85L36.6999 45.65L37.1999 44.9L32.9 34.05L26.4999 47.95L27.7499 48.45L27.4499 48.35L26.15 51.8L26.8 52.05L24.3 55.15L33.1999 58.65L33.15 58.7L34.1999 59.05L38.9999 52.3L37.4 50L38.7499 48.05L36.6999 45.65L36.55 45.85H36.4999Z" fill="#115F32"/>
<path d="M36.5 45.85H36.55L36.7 45.65L38.75 48.05L37.4 50L33.9 54.85L33.45 50.25V50.2L36.5 45.85ZM32.9 34.05L33.2 50.6L27.75 48.45L26.5 47.95L32.9 34.05ZM26.8 52.05L33.65 54.75L34.2 59.05L33.15 58.7L33.2 58.65L24.3 55.15L26.8 52.05Z" fill="#168344"/>
<path d="M26.8 52.05L26.15 51.8L27.45 48.35L27.75 48.45L33.2 50.6L32.9 34.05L37.2 44.9L36.7 45.65L36.5 45.85L33.45 50.2V50.25L33.9 54.85L37.4 50L39 52.3L34.2 59.05L33.65 54.75L26.8 52.05Z" fill="#1B914D"/>
<path d="M38.6 24.25L38.85 23.85L49.2 10.5C49.4 10.1667 49.6834 9.94998 50.05 9.84998L51.15 9.75C51.5167 9.81667 51.85 9.98333 52.15 10.25L62.4 20.05L61.1 21.55L50.75 11.7L40.4 25.05L38.6 24.25ZM83.95 45.9L84.15 45.6L94.45 32.35C94.6833 32.0166 94.9833 31.8 95.35 31.7L96.4 31.6C96.7667 31.6666 97.1 31.8333 97.4 32.1L107.55 41.85L106.25 43.35L96 33.55L85.75 46.8L83.95 45.9ZM9.69995 58.1L9.94995 57.75L20.5 44.4C20.7333 44.1 21.0334 43.9 21.4 43.8L22.5 43.7C22.8333 43.7666 23.15 43.9333 23.45 44.2L32.25 52.6L32.4 55.55L22.05 45.65L11.55 58.95L9.69995 58.1ZM70.85 68.05L75.2 72.25L77.5 74.45L78.95 75.8L77.65 77.35L67.25 67.5L57.05 80.7L55.2 79.85L55.4 79.6L64.75 67.45H64.7L65.95 65.8L70.85 68.05Z" fill="#703B27"/>
<path d="M70.85 68.05L81.35 72.85L81.75 72.4L78.95 75.8L77.5 74.45L78.15 73.6L75.2 72.25L70.85 68.05ZM38.6 24.25L40.4 25.05V33.05L42.75 35.35V42.75L43.05 42.5L32.4 55.55L32.25 52.6L40.75 42.15V36.2L39 34.5C38.6 34.1 38.4 33.6167 38.4 33.05V25.05L38.6 24.25ZM61.1 21.55L62.4 20.05L62.5 20.1L62.95 20.8L63.1 21.55V29.6C63.1 30.0666 62.9666 30.4833 62.7 30.85L60.8 33.3V38.65C68.4334 42.25 76.0666 45.8334 83.7 49.4V46.8C83.7 46.4667 83.7833 46.1667 83.95 45.9L85.75 46.8H85.7V52.55L58.8 39.9V32.6L61.1 29.6V21.55ZM107.55 41.85L107.7 41.95L108.15 42.65L108.3 43.4V51.45L107.95 52.6L106.05 55.3V67.95L108.05 75.25V76.2L107.65 77.05L99.85 86.25C99.55 86.5833 99.1833 86.8 98.75 86.9L97.45 86.75L94.95 85.55L78.25 105.35L79.35 109.25V110.2L78.95 111.05L71.15 120.2L70.05 120.85L68.75 120.75L56.35 115C55.9166 114.767 55.6 114.433 55.4 114C55.2 113.567 55.15 113.133 55.25 112.7L55.75 110.65L52.75 109.3L52.4 109.1L51.9 108.55C51.6667 108.217 51.55 107.85 51.55 107.45V99.15L37.15 92.45V94.15L36.7 95.4L33.95 98.8L32.9 99.5L31.6 99.4L26.8 97.25L25.9 98.35C25.6 98.7166 25.2334 98.95 24.8 99.05L23.55 98.95L11.15 93.25C10.6834 93.05 10.35 92.7334 10.15 92.3C9.95002 91.8334 9.9 91.3833 10 90.95L12.05 82.65V70.25L10.15 68.55L9.69995 67.85L9.5 67.05V59L9.69995 58.1L11.55 58.95L11.5 59V67.05L14.05 69.35V82.9L11.95 91.4L24.35 97.1L26.2 94.8L32.4 97.55L35.15 94.15V89.3L53.55 97.85V107.45L58.1 109.5L57.2 113.15L69.6 118.9L77.4 109.75L76.05 104.85L94.4 83.1L98.3 84.95L106.1 75.75L104.05 68.2V54.65L106.3 51.45V43.4L106.25 43.35L107.55 41.85ZM53.05 63.1L55.15 60.85L65.95 65.8L64.7 67.45L55.65 63.3L54.5 64.5C54.2 64.8 53.85 64.9834 53.45 65.05L52.2 64.95L49.7 63.8L39.4 75.95L54.95 83.15V80.8C54.95 80.4334 55.0333 80.1166 55.2 79.85L57.05 80.7L56.95 80.8V86.3L36.15 76.65L49.15 61.3L53.05 63.1Z" fill="#727979"/>
<path d="M40.4 25.05L50.75 11.7L53.05 31L40.4 25.05ZM85.7 46.8H85.75L96 33.55L98.3 52.8L85.7 46.8ZM11.5 59L11.55 58.95L22.05 45.65L24.35 65L11.5 59ZM57.05 80.7L67.25 67.5L69.6 86.75L56.95 80.8L57.05 80.7Z" fill="#D2704C"/>
<path d="M53.05 39.05V31L61.1 21.55V29.6L58.8 32.6V39.9V39.95L57.4 39.3L53.05 44.3V49.15L53.75 50.5V52.1L55.15 60.85L53.05 63.1L52.6 53.5V39.95L53.05 39.05ZM51.25 44.3V49.15L50.05 50.75V52.35L49.15 61.3L36.15 76.65L36.1 76.7L28.75 73.25L24.35 78.3V83.1L24.45 83.35L25.05 84.5V86.1L26.2 94.8L24.35 97.1L23.65 87.45V73.95L24.35 73.1V65L32.4 55.55V63.6L29.9 66.6V69.35L51.25 44.3ZM98.3 52.8L106.3 43.4V51.45L104.05 54.65V68.2L106.1 75.75L98.3 84.95L97.8 75.3V61.75L98.3 60.85V52.8ZM94.4 83.1L76.05 104.85L77.4 109.75L69.6 118.9L69.15 109.3V95.7L69.6 94.8V86.75L77.65 77.35V85.4L75.3 88.35V91.15L96.45 66.15V70.95L95.3 72.55V74.15L94.4 83.1ZM35.15 89.3V94.15L32.4 97.55V87.95V87.9L35.15 89.3Z" fill="#99A3A3"/>
<path d="M53.05 31V39.05L40.4 33.05V25.05L53.05 31ZM52.6 39.95V53.5L53.05 63.1L49.15 61.3L50.05 52.35V50.75L51.25 49.15V44.3L44.1 41.1L43.05 42.5L42.75 42.75V35.35L52.6 39.95ZM55.15 60.85L53.75 52.1V50.5L87 66L81.75 72.4L81.35 72.85L70.85 68.05L65.95 65.8L55.15 60.85ZM53.05 49.15V44.3L88.2 60.85V57.2L97.8 61.75V75.3L98.3 84.95L94.4 83.1L95.3 74.15V72.55L96.45 70.95V66.15L89.55 62.9L87.6 65.25L53.05 49.15ZM85.7 52.55V46.8L98.3 52.8V60.85L85.7 54.85V52.55ZM69.6 118.9L57.2 113.15L58.1 109.5L53.55 107.45V97.85V97.8L59.25 100.55V99.4L24.35 83.1V78.3L59.25 94.8V91.15L69.15 95.7V109.3L69.6 118.9ZM32.4 97.55L26.2 94.8L25.05 86.1V84.5L32.4 87.95V97.55ZM24.35 97.1L11.95 91.4L14.05 82.9V69.35L23.65 73.95V87.45L24.35 97.1ZM11.5 67.05V59L24.35 65V73.1L11.5 67.05ZM69.6 86.75V94.8L56.95 88.85V86.3V80.8L69.6 86.75Z" fill="#B9C6C6"/>
<path d="M53.05 39.05L52.6 39.95L42.75 35.35L40.4 33.05L53.05 39.05ZM53.75 50.5L53.05 49.15L87.6 65.25L87 66L53.75 50.5ZM53.55 97.85L35.15 89.3L32.4 87.9V87.95L25.05 84.5L24.45 83.35L24.35 83.1L59.25 99.4V100.55L53.55 97.8V97.85ZM14.05 69.35L11.5 67.05L24.35 73.1L23.65 73.95L14.05 69.35ZM98.3 60.85L97.8 61.75L88.2 57.2L85.7 54.85L98.3 60.85ZM69.6 94.8L69.15 95.7L59.25 91.15L56.95 88.85L69.6 94.8Z" fill="#A6B1B1"/>
<path d="M53.05 44.3L57.4 39.3L58.8 39.95V39.9L85.7 52.55V54.85L88.2 57.2V60.85L53.05 44.3ZM43.05 42.5L44.1 41.1L51.25 44.3L29.9 69.35V66.6L32.4 63.6V55.55L43.05 42.5ZM87.6 65.25L89.55 62.9L96.45 66.15L75.3 91.15V88.35L77.65 85.4V77.35L78.95 75.8L81.75 72.4L87 66L87.6 65.25ZM59.25 91.15V94.8L24.35 78.3L28.75 73.25L36.1 76.7L36.15 76.65L56.95 86.3V88.85L59.25 91.15Z" fill="#D5E5E5"/>
<path d="M50.75 11.7L61.1 21.55L53.05 31L50.75 11.7ZM106.3 43.4L98.3 52.8L96 33.55L106.25 43.35L106.3 43.4ZM67.25 67.5L77.65 77.35L69.6 86.75L67.25 67.5ZM32.4 55.55L24.35 65L22.05 45.65L32.4 55.55Z" fill="#BB6444"/>
<path d="M52.4 109.1L31.6 99.4L32.9 99.5L33.95 98.8L36.7 95.4L37.15 94.15V92.45L51.55 99.15V107.45C51.55 107.85 51.6667 108.217 51.9 108.55L52.4 109.1ZM75.2 72.25L78.15 73.6L77.5 74.45L75.2 72.25ZM64.7 67.45H64.75L55.4 79.6L55.2 79.85C55.0333 80.1166 54.95 80.4334 54.95 80.8V83.15L39.4 75.95L49.7 63.8L52.2 64.95L53.45 65.05C53.85 64.9834 54.2 64.8 54.5 64.5L55.65 63.3L64.7 67.45Z" fill="black" fill-opacity="0.101961"/>
<path d="M94.65 84.2501H94.6L94.4 83.9501L94.65 84.2501ZM101.6 66.6501L110.7 86.4001L110.85 87.4501L110.45 88.4001L110.05 88.8002L111.25 92.0001C111.417 92.4668 111.417 92.9168 111.25 93.3501L113.55 96.1501C113.817 96.4835 113.967 96.8668 114 97.3002C114.033 97.7002 113.933 98.1001 113.7 98.5001L112.75 99.2501L98.65 104.85L97.35 104.95L96.3 104.15L89.5 94.5502C89.2333 94.2168 89.1 93.8335 89.1 93.4001C89.1 92.9668 89.2166 92.5835 89.45 92.2501L90.95 90.1001L89.85 88.5001C89.55 88.1335 89.4166 87.7168 89.45 87.2501C89.4833 86.7835 89.65 86.3835 89.95 86.0502L91.9 83.8501L91.7 83.1501C91.6333 82.8168 91.6667 82.5001 91.8 82.2001L97.9 66.7501C98.1 66.2168 98.45 65.8501 98.95 65.6501L100.45 65.6001C100.95 65.7668 101.333 66.1168 101.6 66.6501ZM108.4 93.0502L109.35 92.7001L107.5 87.7501L107.1 87.9001L108.85 87.2001L99.75 67.4501L93.65 82.9001L94.4 83.9501L91.45 87.3501L93.4 90.1001L91.1 93.4001L97.9 103L99.4 102.45L99.35 102.4L112 97.4001L108.4 93.0502Z" fill="#115F32"/>
<path d="M107.1 87.9L107.5 87.75L109.35 92.7L108.4 93.05L98.7 96.85L97.9 103L91.1 93.4L93.4 90.1L98.35 97L99 90.45V90.4L94.65 84.25L94.4 83.95L93.65 82.9L99.75 67.45L99.35 90.95L107.1 87.9Z" fill="#168344"/>
<path d="M107.1 87.9L99.35 90.95L99.75 67.45L108.85 87.2L107.1 87.9ZM97.9 103L98.7 96.85L108.4 93.05L112 97.4L99.35 102.4L99.4 102.45L97.9 103Z" fill="#1B914D"/>
<path d="M94.65 84.25L99 90.4V90.45L98.35 97L93.4 90.1L91.45 87.35L94.4 83.95L94.6 84.25H94.65Z" fill="#10773C"/>
<path d="M121 36V106L61 141L1 106L1 36L61 0.999996L121 36Z" stroke="black" stroke-width="0.5"/>
<defs>
<linearGradient id="paint0_linear_76_329" x1="14.2" y1="54.4875" x2="14.2" y2="46.6125" gradientUnits="userSpaceOnUse">
<stop stop-color="#27AE60"/>
<stop offset="1" stop-color="#30C26D"/>
</linearGradient>
<linearGradient id="paint1_linear_76_329" x1="58.7" y1="30.4624" x2="58.7" y2="23.9374" gradientUnits="userSpaceOnUse">
<stop stop-color="#27AE60"/>
<stop offset="1" stop-color="#30C26D"/>
</linearGradient>
<linearGradient id="paint2_linear_76_329" x1="47.7" y1="42.6498" x2="47.7" y2="34.6499" gradientUnits="userSpaceOnUse">
<stop stop-color="#27AE60"/>
<stop offset="1" stop-color="#30C26D"/>
</linearGradient>
<linearGradient id="paint3_linear_76_329" x1="39.8" y1="58.4123" x2="39.8" y2="51.8874" gradientUnits="userSpaceOnUse">
<stop stop-color="#27AE60"/>
<stop offset="1" stop-color="#30C26D"/>
</linearGradient>
<linearGradient id="paint4_linear_76_329" x1="92.7" y1="34.6126" x2="92.7" y2="28.0876" gradientUnits="userSpaceOnUse">
<stop stop-color="#27AE60"/>
<stop offset="1" stop-color="#30C26D"/>
</linearGradient>
<linearGradient id="paint5_linear_76_329" x1="62.85" y1="52.9875" x2="62.85" y2="45.1125" gradientUnits="userSpaceOnUse">
<stop stop-color="#27AE60"/>
<stop offset="1" stop-color="#30C26D"/>
</linearGradient>
<linearGradient id="paint6_linear_76_329" x1="108.2" y1="102.312" x2="108.2" y2="95.7875" gradientUnits="userSpaceOnUse">
<stop stop-color="#27AE60"/>
<stop offset="1" stop-color="#30C26D"/>
</linearGradient>
<linearGradient id="paint7_linear_76_329" x1="72.3" y1="93.4123" x2="72.3" y2="86.8874" gradientUnits="userSpaceOnUse">
<stop stop-color="#27AE60"/>
<stop offset="1" stop-color="#30C26D"/>
</linearGradient>
<linearGradient id="paint8_linear_76_329" x1="85.8" y1="86.1623" x2="85.8" y2="79.6374" gradientUnits="userSpaceOnUse">
<stop stop-color="#27AE60"/>
<stop offset="1" stop-color="#30C26D"/>
</linearGradient>
<linearGradient id="paint9_linear_76_329" x1="74.3" y1="126.287" x2="74.3" y2="118.413" gradientUnits="userSpaceOnUse">
<stop stop-color="#27AE60"/>
<stop offset="1" stop-color="#30C26D"/>
</linearGradient>
<linearGradient id="paint10_linear_76_329" x1="58.7" y1="111.537" x2="58.7" y2="103.663" gradientUnits="userSpaceOnUse">
<stop stop-color="#27AE60"/>
<stop offset="1" stop-color="#30C26D"/>
</linearGradient>
<linearGradient id="paint11_linear_76_329" x1="59.7" y1="123.412" x2="59.7" y2="116.887" gradientUnits="userSpaceOnUse">
<stop stop-color="#27AE60"/>
<stop offset="1" stop-color="#30C26D"/>
</linearGradient>
<linearGradient id="paint12_linear_76_329" x1="27.35" y1="66.6623" x2="27.35" y2="60.1374" gradientUnits="userSpaceOnUse">
<stop stop-color="#27AE60"/>
<stop offset="1" stop-color="#30C26D"/>
</linearGradient>
<linearGradient id="paint13_linear_76_329" x1="16.45" y1="107.137" x2="16.45" y2="99.2624" gradientUnits="userSpaceOnUse">
<stop stop-color="#27AE60"/>
<stop offset="1" stop-color="#30C26D"/>
</linearGradient>
<linearGradient id="paint14_linear_76_329" x1="46.7" y1="121.887" x2="46.7" y2="114.012" gradientUnits="userSpaceOnUse">
<stop stop-color="#27AE60"/>
<stop offset="1" stop-color="#30C26D"/>
</linearGradient>
</defs>
</svg>
