<svg width="120" height="140" viewBox="0 0 120 140" fill="none" xmlns="http://www.w3.org/2000/svg">
<path d="M63.05 8.85C62.0834 8.28333 61.0667 8 60 8C58.9333 8 57.9333 8.28333 57 8.85L42.6001 17.25L41.75 21.5H35.3L27.05 26.35L23.5 34L16.8501 32.3L9 36.85C8.1 37.35 7.38343 38.0667 6.8501 39C6.28343 39.9333 6 40.9333 6 42V98.05C6 99.0833 6.28343 100.067 6.8501 101C7.38343 101.933 8.1 102.667 9 103.2L29.75 115.3L35 114.5L35.75 118.8L57 131.2C57.9333 131.733 58.9333 132 60 132C61.0667 132 62.0834 131.733 63.05 131.2L80.6001 121L81.5 116L86.1499 117.75L90.8501 115L92.75 108.75L98.5 110.5L111.05 103.2H111C111.9 102.667 112.633 101.933 113.2 101C113.733 100.067 114 99.0833 114 98.05V76.75L110.75 69L114 60.5V42C114 40.9333 113.733 39.9333 113.2 39C112.633 38.0667 111.9 37.35 111 36.85H111.05L96.45 28.35L87 27.5L81.8999 19.85L63.05 8.85ZM0 35L60 0L120 35V105L60 140L0 105V35Z" fill="#1336B2"/>
</svg>
