<svg width="122" height="142" viewBox="0 0 122 142" fill="none" xmlns="http://www.w3.org/2000/svg">
<path d="M111.15 59L109.95 54.6L105.55 55.8L106.75 60.25L111.15 59ZM102.3 60.95L99.1001 60.5L98.7 63.65L101.85 64.05L102.3 60.95ZM12.75 55.3L13.6001 57.4L15.6001 56.45L14.75 54.4L12.75 55.3ZM24.6001 47.45L28.45 44.65L25.6001 40.9L21.8501 43.7L24.6001 47.45ZM28.45 50.9L21.6499 53.9L24.6499 60.8L31.5 57.8L28.45 50.9ZM67.6001 18.4L60.5 17.6L59.6499 24.65L66.8 25.45L67.6001 18.4ZM51.8 24.95L52.5 29.3L56.8501 28.6L56.1499 24.25L51.8 24.95ZM35.6001 46.1L32.3501 48.7L34.95 51.95L38.1499 49.35L35.6001 46.1ZM61 1L121 36V106L61 141L1 106V36L61 1ZM43.75 107.7L45.6499 108.7L46.8 106.75L44.8 105.75L43.75 107.7ZM36.1001 92.4L32.55 99.1L39.1001 102.6L42.7 95.95L36.1001 92.4ZM111 69.8L111.75 63.25L105.2 62.45L104.45 69.05L111 69.8ZM26.45 107.5L30.95 108.7L32.2 104.25L27.6499 102.95L26.45 107.5ZM29.3999 93.35L25.3501 92.4L24.3501 96.4L28.3999 97.4L29.3999 93.35ZM88.25 81.25L91.1499 82.45L92.3999 79.55L89.45 78.3L88.25 81.25ZM90.7 86.95L90.75 91.5H95.3V86.95H90.7ZM77.8501 98.6L84 101L86.45 94.9L80.3 92.45L77.8501 98.6ZM110 92.85L106 94.7L107.75 98.7L111.75 96.85L110 92.85ZM97.1499 100.3L98.2 107.3L105.3 106.2L104.25 99.2L97.1499 100.3Z" fill="#BB8044"/>
<path d="M102.3 60.95L101.85 64.05L98.7 63.65L99.1001 60.5L102.3 60.95ZM28.45 50.9L31.5 57.8L24.6499 60.8L21.6499 53.9L28.45 50.9ZM51.8 24.95L56.1499 24.25L56.8501 28.6L52.5 29.3L51.8 24.95ZM36.1001 92.4L42.7 95.95L39.1001 102.6L32.55 99.1L36.1001 92.4ZM88.25 81.25L89.45 78.3L92.3999 79.55L91.1499 82.45L88.25 81.25ZM110 92.85L111.75 96.85L107.75 98.7L106 94.7L110 92.85Z" fill="#C68A4E"/>
<path d="M111.15 59L106.75 60.25L105.55 55.8L109.95 54.6L111.15 59ZM24.6001 47.45L21.8501 43.7L25.6001 40.9L28.45 44.65L24.6001 47.45ZM12.75 55.3L14.75 54.4L15.6001 56.45L13.6001 57.4L12.75 55.3ZM67.6001 18.4L66.8 25.45L59.6499 24.65L60.5 17.6L67.6001 18.4ZM35.6001 46.1L38.1499 49.35L34.95 51.95L32.3501 48.7L35.6001 46.1ZM43.75 107.7L44.8 105.75L46.8 106.75L45.6499 108.7L43.75 107.7ZM29.3999 93.35L28.3999 97.4L24.3501 96.4L25.3501 92.4L29.3999 93.35ZM26.45 107.5L27.6499 102.95L32.2 104.25L30.95 108.7L26.45 107.5ZM111 69.8L104.45 69.05L105.2 62.45L111.75 63.25L111 69.8ZM77.8501 98.6L80.3 92.45L86.45 94.9L84 101L77.8501 98.6ZM90.7 86.95H95.3V91.5H90.75L90.7 86.95ZM97.1499 100.3L104.25 99.2L105.3 106.2L98.2 107.3L97.1499 100.3Z" fill="#AA753E"/>
<path d="M101.35 71.8999C100.383 70.7666 99.8834 69.4666 99.8501 67.9999V67.9499V67.0999C99.8501 61.9999 100.35 57.6666 101.35 54.0999C102.583 49.3666 104.317 47.1499 106.55 47.4499C108.783 47.1166 110.55 49.3333 111.85 54.0999C112.783 57.6666 113.25 61.9999 113.25 67.0999V67.9499V67.9999C113.217 69.4666 112.75 70.7833 111.85 71.9499L111.35 72.4999H111.3L110.15 73.3999C110.15 74.2999 109.817 75.0833 109.15 75.7499L109 75.8999C108.367 76.4999 107.567 76.8166 106.6 76.8499H106.55C105.55 76.8499 104.717 76.5166 104.05 75.8499C103.383 75.1833 103.033 74.3666 103 73.3999L101.85 72.4999H101.9L101.35 71.8999ZM108.15 72.1499C108.783 71.9166 109.367 71.5499 109.9 71.0499L110.1 70.8999C110.833 70.0666 111.217 69.0833 111.25 67.9499V67.0999C111.25 62.1999 110.8 58.0333 109.9 54.5999C108.967 51.1666 107.85 49.4499 106.55 49.4499C105.25 49.4499 104.15 51.1666 103.25 54.5999C102.317 58.0333 101.85 62.1999 101.85 67.0999V67.9499C101.883 69.0833 102.3 70.0666 103.1 70.8999L103.25 71.0499L105 72.1499V73.2999C105 73.7333 105.15 74.0999 105.45 74.3999C105.75 74.6999 106.117 74.8499 106.55 74.8499H106.6C107.033 74.8499 107.383 74.6999 107.65 74.3999C107.983 74.0999 108.15 73.7333 108.15 73.2999V72.1499Z" fill="#115F32"/>
<path d="M108.15 72.1499L106.55 72.3999L105 72.1499L103.25 71.05L103.1 70.8999C102.3 70.0666 101.883 69.0833 101.85 67.95V67.1C101.85 62.2 102.317 58.0333 103.25 54.6C104.15 51.1666 105.25 49.45 106.55 49.45C107.85 49.45 108.967 51.1666 109.9 54.6C110.8 58.0333 111.25 62.2 111.25 67.1V67.95C111.217 69.0833 110.833 70.0666 110.1 70.8999L109.9 71.05C109.367 71.55 108.783 71.9166 108.15 72.1499Z" fill="#1B914D"/>
<path d="M108.15 72.1499V73.2999C108.15 73.7332 107.983 74.0999 107.65 74.3999C107.383 74.6999 107.033 74.8499 106.6 74.8499H106.55C106.117 74.8499 105.75 74.6999 105.45 74.3999C105.15 74.0999 105 73.7332 105 73.2999V72.1499L106.55 72.3999L108.15 72.1499Z" fill="#BB8044"/>
<path d="M111.85 71.9499C112.85 72.7166 113.35 73.6166 113.35 74.6499C113.35 75.8499 112.683 76.8832 111.35 77.7499C110.05 78.6166 108.467 79.0499 106.6 79.0499C104.733 79.0499 103.133 78.6166 101.8 77.7499C100.5 76.8832 99.8501 75.8499 99.8501 74.6499C99.8501 73.6166 100.35 72.6999 101.35 71.8999L101.9 72.4999H101.85L103 73.3999C103.033 74.3666 103.383 75.1832 104.05 75.8499C104.717 76.5166 105.55 76.8499 106.55 76.8499H106.6C107.567 76.8166 108.367 76.4999 109 75.8999L109.15 75.7499C109.817 75.0832 110.15 74.2999 110.15 73.3999L111.3 72.4999H111.35L111.85 71.9499Z" fill="black" fill-opacity="0.101961"/>
<path d="M30.3 63.1001L31.8501 62.3501L33 61.3501C34.3333 60.0167 35.0334 58.4334 35.1001 56.6001V55.3001V54.3001V53.6001L34.8999 48.7501L34.6499 45.6501L34.3999 43.4001L33.3 37.4001L33 36.2001L32.5 34.4501C31.3667 30.8501 30.05 28.8334 28.55 28.4001L27.8999 28.3001L27.25 28.4001C25.75 28.8334 24.4501 30.8501 23.3501 34.4501L22.8 36.2001L22.5 37.4001L21.3999 43.4001L21.1499 45.6501L20.8999 48.7501L20.7 53.6001V54.3001V55.3001V56.6001C20.7666 58.4334 21.4667 60.0167 22.8 61.3501L24.1001 62.4001L25.55 63.1001V64.8501C25.55 65.5167 25.7666 66.0667 26.2 66.5001C26.6666 66.9667 27.2332 67.2001 27.8999 67.2001H27.95C28.6166 67.2001 29.1668 66.9667 29.6001 66.5001C30.0668 66.0667 30.3 65.5167 30.3 64.8501V63.1001ZM21.8 63.1501L21.3999 62.8001C19.6666 61.0667 18.7666 59.0334 18.7 56.7001V56.6001V55.3001C18.7 47.8667 19.3833 41.5334 20.75 36.3001L20.8999 35.7001C21.5999 33.0001 22.4168 30.8834 23.3501 29.3501C24.6501 27.1501 26.1666 26.1334 27.8999 26.3001C29.6332 26.1334 31.1667 27.1667 32.5 29.4001C33.4 30.9334 34.2166 33.0334 34.95 35.7001L35.1001 36.2001C36.4334 41.4667 37.1001 47.8334 37.1001 55.3001V56.6001V56.7001C37.0334 59.0334 36.15 61.0667 34.45 62.8001L34.1499 63.1001L32.3 64.4001V64.8501C32.3 66.0501 31.9001 67.0501 31.1001 67.8501L30.95 68.0001C30.15 68.8001 29.15 69.2001 27.95 69.2001H27.8999C26.6666 69.2001 25.6334 68.7834 24.8 67.9501C23.9667 67.1167 23.55 66.0834 23.55 64.8501V64.4001L21.8 63.1501Z" fill="#115F32"/>
<path d="M22.5 37.4L22.8 36.2L23.3501 34.45C24.4501 30.85 25.75 28.8334 27.25 28.4L27.8999 28.3L28.55 28.4C30.05 28.8334 31.3667 30.85 32.5 34.45L33 36.2L33.3 37.4L33 37.5L32.8 37.6001L31.8501 37.8L30.3 38.05L27.8999 38.15L25.55 38.05L24.1001 37.8501L23.05 37.6001L22.8 37.5L22.5 37.4ZM34.3999 43.4L34.6499 45.65L34.8999 48.75C34.5999 49.4834 33.9667 50.1334 33 50.7L31.8501 51.3L30.3 51.75L27.8999 52L25.55 51.75L24.1001 51.3501L22.8 50.7C21.8334 50.1334 21.1999 49.4834 20.8999 48.75L21.1499 45.65L21.3999 43.4L21.5 43.45L22.8 44.3L24.1001 44.8L25.55 45.15L27.8999 45.3501L30.3 45.15L31.8501 44.8L33 44.3L34.3501 43.45L34.3999 43.4ZM35.1001 54.3V55.3V56.6001C35.0334 58.4334 34.3333 60.0167 33 61.3501L31.8501 62.3501L30.3 63.1001L27.8999 63.45L25.55 63.1001L24.1001 62.4L22.8 61.3501C21.4667 60.0167 20.7666 58.4334 20.7 56.6001V55.3V54.3C20.7666 55.7667 21.4667 57.0167 22.8 58.05C23.2 58.3834 23.6334 58.6667 24.1001 58.9L25.55 59.45L27.8999 59.75L30.3 59.45L31.8501 58.8501L33 58.05C34.3333 57.0167 35.0334 55.7667 35.1001 54.3Z" fill="#1B914D"/>
<path d="M35.1001 54.3C35.0334 55.7667 34.3333 57.0167 33 58.05L31.8501 58.85L30.3 59.45L27.8999 59.75L25.55 59.45L24.1001 58.9C23.6334 58.6667 23.2 58.3834 22.8 58.05C21.4667 57.0167 20.7666 55.7667 20.7 54.3V53.6L20.8999 48.75C21.1999 49.4834 21.8334 50.1334 22.8 50.7L24.1001 51.35L25.55 51.75L27.8999 52L30.3 51.75L31.8501 51.3L33 50.7C33.9667 50.1334 34.5999 49.4834 34.8999 48.75L35.1001 53.6V54.3ZM33.3 37.4L34.3999 43.4L34.3501 43.45L33 44.3L31.8501 44.8L30.3 45.15L27.8999 45.35L25.55 45.15L24.1001 44.8L22.8 44.3L21.5 43.45L21.3999 43.4L22.5 37.4L22.8 37.5L23.05 37.6L24.1001 37.85L25.55 38.05L27.8999 38.15L30.3 38.05L31.8501 37.8L32.8 37.6L33 37.5L33.3 37.4Z" fill="#198A49"/>
<path d="M34.1499 63.1001L34.8501 63.4001C36.7168 64.4001 37.6499 65.6001 37.6499 67.0001C37.6499 68.4001 36.7168 69.5834 34.8501 70.5501C32.9834 71.5501 30.7167 72.0501 28.05 72.0501C25.3834 72.0501 23.1167 71.5501 21.25 70.5501C19.3833 69.5834 18.45 68.4001 18.45 67.0001C18.45 65.6001 19.3833 64.4001 21.25 63.4001L21.8 63.1501L23.55 64.4001V64.8501C23.55 66.0834 23.9667 67.1168 24.8 67.9501C25.6334 68.7834 26.6666 69.2001 27.8999 69.2001H27.95C29.15 69.2001 30.15 68.8001 30.95 68.0001L31.1001 67.8501C31.9001 67.0501 32.3 66.0501 32.3 64.8501V64.4001L34.1499 63.1001Z" fill="black" fill-opacity="0.101961"/>
<path d="M30.3 63.1001V64.8501C30.3 65.5168 30.0668 66.0668 29.6001 66.5001C29.1668 66.9668 28.6166 67.2001 27.95 67.2001H27.8999C27.2332 67.2001 26.6666 66.9668 26.2 66.5001C25.7666 66.0668 25.55 65.5168 25.55 64.8501V63.1001L27.8999 63.4501L30.3 63.1001Z" fill="#BB8044"/>
<path d="M73.2499 12.2L73.9499 12.8L83.1498 25.8L83.4999 26.65L88.3 55.25L96.8998 79.2L96.9999 80.2L96.55 81.15L78.35 102.8L77.6498 103.35L76.7499 103.5L42.4499 102.45L41.55 102.2L40.8998 101.6L24.8998 79.1L24.55 78.25C24.4833 77.9167 24.5165 77.6 24.6498 77.3L33.2499 53.65C33.3166 53.4167 33.4334 53.2167 33.6 53.05L40.05 45.35L45.35 19.15C45.4167 18.8167 45.5666 18.5167 45.8 18.25L51.05 12.1L51.7499 11.6L52.6 11.4L72.35 11.95L73.2499 12.2ZM76.8 101.5L94.9999 79.85L86.35 55.7L81.4999 26.95L80.4999 25.5L72.3 13.95L52.55 13.4L48.3 18.4L47.3 19.55L41.8998 46.2L37.1 51.95L35.1 54.3L26.4999 77.95L42.4999 100.45L76.8 101.5Z" fill="#5A6B6B"/>
<path d="M35.1001 54.3L37.1001 51.95L48.25 69.15L74.45 69.95L72.7 72L47.1001 71.2L35.1001 54.3ZM47.3 19.55L48.3 18.4L62 30.15L75.7 30.95L80.5 25.5L81.5 26.95L76.25 33.1L61.3 32.15L47.3 19.55Z" fill="#C6D2D2"/>
<path d="M47.3 19.55L61.3 32.15L60.05 62.5L41.8999 46.2L47.3 19.55ZM81.5 26.95L86.3501 55.7L95 79.8501L76.8 101.5L72.7 72L74.45 69.95L79.6001 63.8501L76.25 33.1001L81.5 26.95ZM42.5 100.45L26.5 77.95L35.1001 54.3L47.1001 71.2L42.5 100.45Z" fill="#879393"/>
<path d="M37.1001 51.95L41.8999 46.2L60.05 62.5L61.3 32.15L76.25 33.1L79.6001 63.85L74.45 69.95L48.25 69.15L37.1001 51.95ZM48.3 18.4L52.55 13.4L72.3 13.95L80.5 25.5L75.7 30.95L62 30.15L48.3 18.4Z" fill="#A4AFAF"/>
<path d="M76.8 101.5L42.5 100.45L47.1001 71.2L72.7 72L76.8 101.5Z" fill="#B5C2C2"/>
<path d="M106.15 76.2L90.1001 82.5L89.8501 110.6L65.8999 99.3L74.95 75.35L75.6001 61.85L91.6499 55.65L106.9 62.7L106.15 76.2Z" fill="#A4AFAF"/>
<path d="M107.75 60.9C108.15 61.0667 108.467 61.3667 108.7 61.8L117.65 78.95L117.85 79.95L116.9 100.9L116.55 102L115.65 102.7L90.6 112.5L89.7999 112.6L88.9999 112.4L65.0499 101.1L64.1999 100.35C63.9665 99.9834 63.8665 99.6 63.8998 99.2L65.0499 78.25C65.0833 77.95 65.1666 77.6834 65.2999 77.45L73.85 60.95C74.05 60.4834 74.3998 60.1667 74.8998 60L90.9499 53.8L92.4999 53.8501L107.75 60.9ZM106.9 62.7L91.6498 55.65L75.6 61.8501L67.0499 78.3501L65.8998 99.3L89.85 110.6L114.9 100.8L115.85 79.8501L106.9 62.7Z" fill="#5A6B6B"/>
<path d="M75.6001 61.8501L74.95 75.3501L65.8999 99.3001L67.05 78.3501L75.6001 61.8501ZM106.15 76.2001L106.9 62.7001L115.85 79.8501L114.9 100.8L106.15 76.2001Z" fill="#879393"/>
<path d="M106.15 76.2L114.9 100.8L89.8501 110.6L90.1001 82.5L106.15 76.2Z" fill="#B5C2C2"/>
<path d="M17.6999 58.25L18.3998 57.75L19.2499 57.55L29.6999 57.8L30.6 58.05L31.3 58.65L36.1498 65.5L36.4999 66.3501L38.9999 81.3501L43.4499 93.8501L43.55 94.8501L43.1 95.8L33.55 107.2L32.85 107.75L31.9499 107.9L13.8998 107.4L12.9999 107.2L12.35 106.55L3.94988 94.65L3.60002 93.8C3.53336 93.4667 3.56654 93.1501 3.69988 92.8501L8.19988 80.45L8.49992 79.8501L11.7499 75.9L14.4999 62.4L14.9499 61.5L17.6999 58.25ZM34.4999 66.65L29.6498 59.8L19.1999 59.55L16.4499 62.8L13.6 76.8L10.05 81.1001L5.54997 93.5L13.9499 105.4L31.9999 105.9L41.55 94.5L37.05 81.8L34.4999 66.65Z" fill="#5A6B6B"/>
<path d="M34.5 66.65L31.75 69.9L33.5 86.15L29.8999 90.3501L16.3 89.95L10.05 81.1001L13.6001 76.8L23.2 85.4L23.8501 69.45L16.45 62.8L19.2 59.55L29.6499 59.8L34.5 66.65Z" fill="#A4AFAF"/>
<path d="M34.5 66.65L37.05 81.8L41.55 94.5L32 105.9L29.8999 90.3501L33.5 86.15L31.75 69.9L34.5 66.65ZM13.95 105.4L5.55005 93.5L10.05 81.1001L16.3 89.95L13.95 105.4ZM13.6001 76.8L16.45 62.8L23.8501 69.45L23.2 85.4L13.6001 76.8Z" fill="#879393"/>
<path d="M32 105.9L13.95 105.4L16.3 89.95L29.8999 90.35L32 105.9Z" fill="#B5C2C2"/>
<path d="M80.3 88.75L76.9999 84.15L75.35 72.5L73.1 69.3L62.4999 69L59.6999 72.35L56.1999 90.9L52.3 95.6L49.85 113.6L57.9499 124.85L75.1498 125.4L84.35 114.55L80.3 88.75ZM58.1999 71.1L60.9999 67.75L61.6999 67.2L62.55 67L73.1498 67.3C73.4498 67.3 73.75 67.3833 74.05 67.55L74.7499 68.15L76.9999 71.35L77.35 72.25L78.8998 83.35L81.9499 87.6L82.3 88.45L86.35 114.25L86.3 115.1L85.8998 115.85L76.6999 126.7L75.9499 127.25L75.1 127.4L57.8998 126.85L57.05 126.65L56.35 126.05L48.2499 114.8C47.9166 114.333 47.7998 113.85 47.8998 113.35L50.35 95.35C50.3834 94.95 50.5166 94.6167 50.7499 94.35L54.35 90.05L57.7499 72C57.8166 71.6333 57.9666 71.3333 58.1999 71.1ZM77.55 101.65L77.6 101.55L77.6498 101.6L77.55 101.65ZM77.6498 101.5L77.6999 101.45V101.5H77.6498Z" fill="#5A6B6B"/>
<path d="M77.6499 101.5L77.6001 101.55L77.55 101.65L74.05 105.8L59.25 105.35L52.3 95.6L56.2 90.9L65.8999 99.2L78 101.15L77.8 101.35L77.7 101.45L77.6499 101.5ZM59.7 72.35L62.5 69L73.1001 69.3L75.3501 72.5L77 84.15L80.3 88.75L76.8999 92.75L66.45 91.15L66.6001 78.25L59.7 72.35Z" fill="#A4AFAF"/>
<path d="M80.3 88.7501L84.3501 114.55L75.1499 125.4L74.05 105.8L77.55 101.65L77.6499 101.6L77.7 101.5V101.45L77.8 101.35L78 101.15V101.1L76.8999 92.7501L80.3 88.7501ZM57.95 124.85L49.8501 113.6L52.3 95.6001L59.25 105.35L57.95 124.85ZM56.2 90.9001L59.7 72.3501L66.6001 78.2501L66.45 91.1501L65.8999 99.2001L56.2 90.9001Z" fill="#879393"/>
<path d="M75.1499 125.4L57.95 124.85L59.25 105.35L74.05 105.8L75.1499 125.4ZM66.45 91.1499L76.8999 92.7499L78 101.1V101.15L65.8999 99.1999L66.45 91.1499Z" fill="#B5C2C2"/>
<path d="M35.6499 73.3501L35.95 73.4501L36.2 73.5501L37.25 73.8001L38.7 74.0001L41.05 74.1001L43.45 74.0001L45 73.7501L45.95 73.5501L46.1499 73.4501L46.45 73.3501L47.55 79.3501L47.5 79.4001L46.1499 80.2501L45 80.7501L43.45 81.1001L41.05 81.3001L38.7 81.1001L37.25 80.7501L35.95 80.2501L34.6499 79.4001L34.55 79.3501L35.6499 73.3501ZM34.05 84.7001C34.35 85.4334 34.9833 86.0834 35.95 86.6501C36.35 86.9168 36.7833 87.1334 37.25 87.3001L38.7 87.7001L41.05 87.9501L43.45 87.7001L45 87.2501L46.1499 86.6501C47.1166 86.0834 47.75 85.4334 48.05 84.7001L48.25 89.5501V90.2501C48.1833 91.7168 47.4832 92.9668 46.1499 94.0001L45 94.8001L43.45 95.4001L41.05 95.7001L38.7 95.4001L37.25 94.8501C36.7833 94.6168 36.35 94.3334 35.95 94.0001C34.6166 92.9668 33.9168 91.7168 33.8501 90.2501V89.5501L34.05 84.7001Z" fill="#198A49"/>
<path d="M34.05 84.7L34.3 81.6L34.55 79.35L34.6499 79.4L35.95 80.25L37.25 80.75L38.7 81.1L41.05 81.3L43.45 81.1L45 80.75L46.1499 80.25L47.5 79.4L47.55 79.35L47.8 81.6L48.05 84.7C47.75 85.4333 47.1166 86.0833 46.1499 86.65L45 87.25L43.45 87.7L41.05 87.95L38.7 87.7L37.25 87.3C36.7833 87.1333 36.35 86.9167 35.95 86.65C34.9833 86.0833 34.35 85.4333 34.05 84.7ZM46.45 73.35L46.1499 73.45L45.95 73.55L45 73.75L43.45 74L41.05 74.1L38.7 74L37.25 73.8L36.2 73.55L35.95 73.45L35.6499 73.35L35.95 72.15L36.5 70.4C37.6 66.8 38.8999 64.7833 40.3999 64.35L41.05 64.25L41.7 64.35C43.2 64.7833 44.5166 66.8 45.6499 70.4L46.1499 72.15L46.45 73.35ZM33.8501 90.25C33.9168 91.7167 34.6166 92.9667 35.95 94C36.35 94.3333 36.7833 94.6167 37.25 94.85L38.7 95.4L41.05 95.7L43.45 95.4L45 94.8L46.1499 94C47.4832 92.9667 48.1833 91.7167 48.25 90.25V91.25V92.55C48.1833 94.3833 47.4832 95.9667 46.1499 97.3L45 98.3L43.45 99.05L41.05 99.4L38.7 99.05L37.25 98.35L35.95 97.3C34.6166 95.9667 33.9168 94.3833 33.8501 92.55V91.25V90.25Z" fill="#1B914D"/>
<path d="M33.8501 90.25V91.25V92.55C33.9168 94.3834 34.6166 95.9667 35.95 97.3L37.25 98.35L38.7 99.05V100.8C38.7 101.467 38.9168 102.017 39.3501 102.45C39.8168 102.917 40.3834 103.15 41.05 103.15H41.1001C41.7668 103.15 42.3167 102.917 42.75 102.45C43.2167 102.017 43.45 101.467 43.45 100.8V99.05L45 98.3L46.1499 97.3C47.4832 95.9667 48.1833 94.3834 48.25 92.55V91.25V90.25V89.55L48.05 84.7L47.8 81.6L47.55 79.35L46.45 73.35L46.1499 72.15L45.6499 70.4C44.5166 66.8 43.2 64.7834 41.7 64.35L41.05 64.25L40.3999 64.35C38.8999 64.7834 37.6 66.8 36.5 70.4L35.95 72.15L35.6499 73.35L34.55 79.35L34.3 81.6L34.05 84.7L33.8501 89.55V90.25ZM34.95 99.1L34.55 98.75C32.8167 97.0167 31.9168 94.9834 31.8501 92.65V92.55V91.25C31.8501 83.8167 32.5332 77.4834 33.8999 72.25L34.05 71.65C34.75 68.95 35.5667 66.8334 36.5 65.3C37.8 63.1 39.3167 62.0834 41.05 62.25C42.7834 62.0834 44.3166 63.1167 45.6499 65.35C46.5499 66.8834 47.3668 68.9834 48.1001 71.65L48.25 72.15C49.5833 77.4167 50.25 83.7834 50.25 91.25V92.55V92.65C50.1833 94.9834 49.3001 97.0167 47.6001 98.75L47.3 99.05L45.45 100.35V100.8C45.45 102 45.05 103 44.25 103.8L44.1001 103.95C43.3001 104.75 42.3001 105.15 41.1001 105.15H41.05C39.8167 105.15 38.7833 104.733 37.95 103.9C37.1166 103.067 36.7 102.033 36.7 100.8V100.35L34.95 99.1Z" fill="#115F32"/>
<path d="M34.95 99.1001L36.7 100.35V100.8C36.7 102.033 37.1166 103.067 37.95 103.9C38.7833 104.733 39.8167 105.15 41.05 105.15H41.1001C42.3001 105.15 43.3001 104.75 44.1001 103.95L44.25 103.8C45.05 103 45.45 102 45.45 100.8V100.35L47.3 99.05L48 99.3501C49.8667 100.35 50.8 101.55 50.8 102.95C50.8 104.35 49.8667 105.533 48 106.5C46.1333 107.5 43.8666 108 41.2 108C38.5333 108 36.2666 107.5 34.3999 106.5C32.5332 105.533 31.6001 104.35 31.6001 102.95C31.6001 101.55 32.5332 100.35 34.3999 99.3501L34.95 99.1001Z" fill="black" fill-opacity="0.101961"/>
<path d="M43.45 99.05V100.8C43.45 101.467 43.2167 102.017 42.75 102.45C42.3167 102.917 41.7668 103.15 41.1001 103.15H41.05C40.3834 103.15 39.8168 102.917 39.3501 102.45C38.9168 102.017 38.7 101.467 38.7 100.8V99.05L41.05 99.4L43.45 99.05Z" fill="#BB8044"/>
<path d="M29.55 111.9L38.7 120.5L50.25 117L47.6001 102.35L42.3 102.25L36.05 103.3L30.1001 105.35L29.55 111.9ZM35.75 101.35L42 100.3L42.3501 100.25L47.6499 100.35C48.1166 100.35 48.5332 100.517 48.8999 100.85C49.2666 101.15 49.5001 101.533 49.6001 102L52.25 116.65C52.3167 117.15 52.2166 117.617 51.95 118.05L50.8501 118.95L39.3 122.45H38.25C37.9167 122.35 37.6168 122.183 37.3501 121.95L28.2 113.35L27.7 112.65L27.55 111.75L28.1001 105.2C28.1334 104.8 28.2834 104.45 28.55 104.15C28.7834 103.817 29.0833 103.583 29.45 103.45L35.3999 101.4L35.75 101.35Z" fill="#5A6B6B"/>
<path d="M29.55 111.9L36 104.65L36.05 103.3L42.3 102.25L43.3999 108.2L40.7 109.05L38.7 120.5L29.55 111.9Z" fill="#A4AFAF"/>
<path d="M29.55 111.9L30.1001 105.35L36.05 103.3L36 104.65L29.55 111.9ZM43.3999 108.2L42.3 102.25L47.6001 102.35L50.25 117L43.3999 108.2Z" fill="#879393"/>
<path d="M43.3999 108.2L50.25 117L38.7 120.5L40.7 109.05L43.3999 108.2Z" fill="#B5C2C2"/>
<path d="M94.6499 64.6499L96.3999 63.5499L96.6001 63.3999C97.3334 62.5666 97.7167 61.5833 97.75 60.4499V59.5999C97.75 54.6999 97.2999 50.5333 96.3999 47.0999C95.4666 43.6666 94.35 41.9499 93.05 41.9499C91.75 41.9499 90.65 43.6666 89.75 47.0999C88.8167 50.5333 88.3501 54.6999 88.3501 59.5999V60.4499C88.3834 61.5833 88.8001 62.5666 89.6001 63.3999L89.75 63.5499C90.2833 64.0833 90.8667 64.4499 91.5 64.6499V65.7999C91.5 66.2333 91.65 66.5999 91.95 66.8999C92.25 67.1999 92.6167 67.3499 93.05 67.3499H93.1001C93.5334 67.3499 93.8832 67.1999 94.1499 66.8999C94.4832 66.5999 94.6499 66.2333 94.6499 65.7999V64.6499ZM87.8501 64.3999C86.8834 63.2666 86.3834 61.9666 86.3501 60.4999V60.4499V59.5999C86.3501 54.4999 86.8501 50.1666 87.8501 46.5999C89.0834 41.8666 90.8167 39.6499 93.05 39.9499C95.2834 39.6166 97.0501 41.8333 98.3501 46.5999C99.2834 50.1666 99.75 54.4999 99.75 59.5999V60.4499V60.4999C99.7167 61.9666 99.2501 63.2833 98.3501 64.4499L97.8501 64.9999H97.8L96.6499 65.8999C96.6499 66.7999 96.3166 67.5833 95.6499 68.2499L95.5 68.3999C94.8667 68.9999 94.0668 69.3166 93.1001 69.3499H93.05C92.05 69.3499 91.2167 69.0166 90.55 68.3499C89.8834 67.6833 89.5333 66.8666 89.5 65.8999L88.3501 64.9999H88.3999L87.8501 64.3999Z" fill="#115F32"/>
<path d="M91.5 64.6499C90.8667 64.4499 90.2833 64.0833 89.75 63.55L89.6001 63.3999C88.8001 62.5666 88.3834 61.5833 88.3501 60.45V59.6C88.3501 54.7 88.8167 50.5333 89.75 47.1C90.65 43.6666 91.75 41.95 93.05 41.95C94.35 41.95 95.4666 43.6666 96.3999 47.1C97.2999 50.5333 97.75 54.7 97.75 59.6V60.45C97.7167 61.5833 97.3334 62.5666 96.6001 63.3999L96.3999 63.55L94.6499 64.6499L93.05 64.8999L91.5 64.6499Z" fill="#1B914D"/>
<path d="M98.3501 64.4499C99.3501 65.2166 99.8501 66.1166 99.8501 67.1499C99.8501 68.3499 99.1834 69.3832 97.8501 70.2499C96.5501 71.1166 94.9668 71.5499 93.1001 71.5499C91.2334 71.5499 89.6334 71.1166 88.3 70.2499C87 69.3832 86.3501 68.3499 86.3501 67.1499C86.3501 66.1166 86.8501 65.1999 87.8501 64.3999L88.3999 64.9999H88.3501L89.5 65.8999C89.5333 66.8666 89.8834 67.6832 90.55 68.3499C91.2167 69.0166 92.05 69.3499 93.05 69.3499H93.1001C94.0668 69.3166 94.8667 68.9999 95.5 68.3999L95.6499 68.2499C96.3166 67.5832 96.6499 66.7999 96.6499 65.8999L97.8 64.9999H97.8501L98.3501 64.4499Z" fill="black" fill-opacity="0.101961"/>
<path d="M94.6499 64.6499V65.7999C94.6499 66.2332 94.4832 66.5999 94.1499 66.8999C93.8832 67.1999 93.5334 67.3499 93.1001 67.3499H93.05C92.6167 67.3499 92.25 67.1999 91.95 66.8999C91.65 66.5999 91.5 66.2332 91.5 65.7999V64.6499L93.05 64.8999L94.6499 64.6499Z" fill="#BB8044"/>
<path d="M88.3999 113.15L90.1499 112.05L90.3501 111.9C91.0834 111.067 91.4667 110.083 91.5 108.95V108.1C91.5 103.2 91.0499 99.0333 90.1499 95.5999C89.2166 92.1666 88.1 90.4499 86.8 90.4499C85.5 90.4499 84.4 92.1666 83.5 95.5999C82.5667 99.0333 82.1001 103.2 82.1001 108.1V108.95C82.1334 110.083 82.5501 111.067 83.3501 111.9L83.5 112.05C84.0333 112.583 84.6167 112.95 85.25 113.15V114.3C85.25 114.733 85.4 115.1 85.7 115.4C86 115.7 86.3667 115.85 86.8 115.85H86.8501C87.2834 115.85 87.6332 115.7 87.8999 115.4C88.2332 115.1 88.3999 114.733 88.3999 114.3V113.15ZM81.6001 112.9C80.6334 111.767 80.1334 110.467 80.1001 109V108.95V108.1C80.1001 103 80.6001 98.6666 81.6001 95.0999C82.8334 90.3666 84.5667 88.1499 86.8 88.4499C89.0334 88.1166 90.8001 90.3333 92.1001 95.0999C93.0334 98.6666 93.5 103 93.5 108.1V108.95V109C93.4667 110.467 93.0001 111.783 92.1001 112.95L91.6001 113.5H91.55L90.3999 114.4C90.3999 115.3 90.0666 116.083 89.3999 116.75L89.25 116.9C88.6167 117.5 87.8168 117.817 86.8501 117.85H86.8C85.8 117.85 84.9667 117.517 84.3 116.85C83.6334 116.183 83.2833 115.367 83.25 114.4L82.1001 113.5H82.1499L81.6001 112.9Z" fill="#115F32"/>
<path d="M85.25 113.15C84.6167 112.95 84.0333 112.583 83.5 112.05L83.3501 111.9C82.5501 111.067 82.1334 110.083 82.1001 108.95V108.1C82.1001 103.2 82.5667 99.0333 83.5 95.6C84.4 92.1666 85.5 90.45 86.8 90.45C88.1 90.45 89.2166 92.1666 90.1499 95.6C91.0499 99.0333 91.5 103.2 91.5 108.1V108.95C91.4667 110.083 91.0834 111.067 90.3501 111.9L90.1499 112.05L88.3999 113.15L86.8 113.4L85.25 113.15Z" fill="#1B914D"/>
<path d="M92.1001 112.95C93.1001 113.717 93.6001 114.617 93.6001 115.65C93.6001 116.85 92.9334 117.883 91.6001 118.75C90.3001 119.617 88.7168 120.05 86.8501 120.05C84.9834 120.05 83.3834 119.617 82.05 118.75C80.75 117.883 80.1001 116.85 80.1001 115.65C80.1001 114.617 80.6001 113.7 81.6001 112.9L82.1499 113.5H82.1001L83.25 114.4C83.2833 115.367 83.6334 116.183 84.3 116.85C84.9667 117.517 85.8 117.85 86.8 117.85H86.8501C87.8168 117.817 88.6167 117.5 89.25 116.9L89.3999 116.75C90.0666 116.083 90.3999 115.3 90.3999 114.4L91.55 113.5H91.6001L92.1001 112.95Z" fill="black" fill-opacity="0.101961"/>
<path d="M88.3999 113.15V114.3C88.3999 114.733 88.2332 115.1 87.8999 115.4C87.6332 115.7 87.2834 115.85 86.8501 115.85H86.8C86.3667 115.85 86 115.7 85.7 115.4C85.4 115.1 85.25 114.733 85.25 114.3V113.15L86.8 113.4L88.3999 113.15Z" fill="#BB8044"/>
<path d="M121 36V106L61 141L1 106L1 36L61 0.999996L121 36Z" stroke="black" stroke-width="0.5"/>
</svg>
