<svg width="122" height="142" viewBox="0 0 122 142" fill="none" xmlns="http://www.w3.org/2000/svg">
<path d="M12.35 46.5L12.1 46.65L12 46.9L11.65 50.4L9.95001 50.75L9.70001 50.85L9.65002 50.95L9.59998 51.15V51.4H9.65002L11.1 54.55H17.1L18.7 53.5L18.85 53.35L18.9 53.2L18.85 52.9L18.55 52.65L17.05 52.25L18.25 49.1V48.75L18.2 48.7L18 48.5H17.65L14.85 49.55L12.85 46.7C12.7833 46.6 12.7 46.55 12.6 46.55L12.35 46.5ZM43.7 37.25L44.95 40.35L43.4 40.8L43.15 41L43.05 41.35L43.15 41.45L43.25 41.6L44.85 42.7H50.85L52.3 39.55L52.35 39.5L52.4 39.25L52.3 39.1L52.25 39L52 38.85L50.35 38.55L49.95 35.05L49.85 34.8L49.6 34.65H49.35L49.1 34.8L47.15 37.65L44.3 36.65H43.95L43.75 36.85L43.7 36.9V37.25ZM39.55 52.25L38.55 55.4L37.2 54.85H36.85L36.6 55V55.05C36.5333 55.15 36.5167 55.2667 36.55 55.4L37.5 58.45H42.35L43.05 56.65V56.55V56.25V56.2L42.8 56H42.5L41.25 56.4L40.4 52.25L40.25 52L40 51.9L39.7 52C39.6 52.0667 39.55 52.15 39.55 52.25ZM56.05 28L55.75 28.05L55.5 28.25V28.3V28.6V28.7L56.2 30.5H61.05L61.95 27.4V27.05L61.7 26.85H61.35L59.95 27.4L59 24.25L58.85 24L58.55 23.9L58.25 24.05L58.1 24.3L57.3 28.4L56.05 28ZM61.5 45.2L61.25 45.05L61 45L60.75 45.15L60.65 45.4L60.3 48.9L58.6 49.25L58.35 49.35L58.3 49.45L58.25 49.65V49.9H58.3L59.75 53.05H65.75L67.35 52L67.5 51.85L67.55 51.7L67.5 51.4L67.2 51.15L65.7 50.75L66.9 47.6V47.25L66.85 47.2L66.65 47H66.3L63.5 48.05L61.5 45.2ZM92.9 28.1L92.6 28.2L92.45 28.45L91.45 31.6L90.1 31.05H89.75C89.65 31.05 89.5667 31.1 89.5 31.2V31.25C89.4333 31.35 89.4167 31.4666 89.45 31.6L90.4 34.65H95.25L95.95 32.85V32.75V32.45V32.4L95.7 32.2H95.4L94.15 32.6L93.3 28.45L93.15 28.2L92.9 28.1ZM121 36V106L61 141L1 106V36L61 1L121 36ZM85.55 80L84.55 83.15L83.2 82.6H82.85C82.75 82.6 82.6666 82.65 82.6 82.75V82.8C82.5333 82.9 82.5167 83.0167 82.55 83.15L83.5 86.2H88.35L89.05 84.4V84.3V84V83.95L88.8 83.75H88.5L87.25 84.15L86.4 80L86.25 79.75L86 79.65L85.7 79.75L85.55 80ZM108.4 95.8L108.1 95.9L107.95 96.15L106.95 99.3L105.6 98.75H105.25L105 98.9V98.95C104.933 99.05 104.917 99.1667 104.95 99.3L105.9 102.35H110.75L111.45 100.55V100.45V100.15V100.1L111.2 99.9H110.9L109.65 100.3L108.8 96.15L108.65 95.9L108.4 95.8ZM69.1 90V90.05L69.05 90.4L70 93.45H74.85L75.55 91.65V91.55V91.25V91.2L75.3 91H75L73.75 91.4L72.9 87.25L72.75 87L72.5 86.9L72.2 87L72.05 87.25L71.05 90.4L69.7 89.85H69.35C69.25 89.85 69.1666 89.9 69.1 90ZM72.2 118.45L72.1 118.7L71.75 122.2L70.05 122.55L69.8 122.65L69.75 122.75L69.7 122.95V123.2H69.75L71.2 126.35H77.2L78.8 125.3L78.95 125.15L79 125L78.95 124.7L78.65 124.45L77.15 124.05L78.35 120.9V120.55L78.3 120.5L78.1 120.3H77.75L74.95 121.35L72.95 118.5C72.8833 118.4 72.8 118.35 72.7 118.35L72.45 118.3L72.2 118.45ZM62.5 105.55H62.15L59.35 106.6L57.35 103.75C57.2833 103.65 57.2 103.6 57.1 103.6L56.85 103.55L56.6 103.7L56.5 103.95L56.15 107.45L54.45 107.8L54.2 107.9L54.15 108L54.1 108.2V108.45H54.15L55.6 111.6H61.6L63.2 110.55L63.35 110.4L63.4 110.25L63.35 109.95L63.05 109.7L61.55 109.3L62.75 106.15V105.8L62.7 105.75L62.5 105.55ZM45.1 113.95L44.85 113.9L44.6 114.05L44.5 114.3L44.15 117.8L42.45 118.15L42.2 118.25L42.15 118.35L42.1 118.55V118.8H42.15L43.6 121.95H49.6L51.2 120.9L51.35 120.75L51.4 120.6L51.35 120.3L51.05 120.05L49.55 119.65L50.75 116.5V116.15L50.7 116.1L50.5 115.9H50.15L47.35 116.95L45.35 114.1C45.2833 114 45.2 113.95 45.1 113.95ZM62.4 121L61.15 121.4L60.3 117.25L60.15 117L59.9 116.9L59.6 117L59.45 117.25L58.45 120.4L57.1 119.85H56.75C56.65 119.85 56.5667 119.9 56.5 120V120.05L56.45 120.4L57.4 123.45H62.25L62.95 121.65V121.55V121.25V121.2L62.7 121H62.4ZM27.55 60.15L27.25 60.25L27.1 60.5L26.1 63.65L24.75 63.1H24.4L24.15 63.25V63.3C24.0834 63.4 24.0666 63.5167 24.1 63.65L25.05 66.7H29.9L30.6 64.9V64.8V64.5V64.45L30.35 64.25H30.05L28.8 64.65L27.95 60.5L27.8 60.25L27.55 60.15ZM17.1 102.2L15.1 99.35C15.0333 99.25 14.95 99.2 14.85 99.2L14.6 99.15L14.35 99.3L14.25 99.55L13.9 103.05L12.2 103.4L11.95 103.5L11.9 103.6L11.85 103.8V104.05H11.9L13.35 107.2H19.35L20.95 106.15L21.1 106L21.15 105.85L21.1 105.55L20.8 105.3L19.3 104.9L20.5 101.75V101.4L20.45 101.35L20.25 101.15H19.9L17.1 102.2Z" fill="#27AE60"/>
<path d="M12.3501 46.5L12.6001 46.55C12.7001 46.55 12.7834 46.6 12.8501 46.7L14.8501 49.55L17.6501 48.5H18.0001L18.2001 48.7L18.2501 48.75V49.1L17.0501 52.25L18.5501 52.65L18.8501 52.9L18.9001 53.2L18.8501 53.35L18.7001 53.5L17.1001 54.55H11.1001L9.65015 51.4H9.6001V51.15L9.65015 50.95L9.70013 50.85L9.95013 50.75L11.6501 50.4L12.0001 46.9L12.1001 46.65L12.3501 46.5Z" fill="url(#paint0_linear_76_253)"/>
<path d="M43.7001 37.2499V36.8999L43.7501 36.8499L43.9501 36.6499H44.3L47.1501 37.6499L49.1 34.7999L49.35 34.6499H49.6L49.85 34.7999L49.9501 35.0499L50.35 38.5499L52.0001 38.8499L52.2501 38.9999L52.3 39.0999L52.4001 39.2499L52.35 39.4999L52.3 39.5499L50.85 42.6998H44.85L43.2501 41.5999L43.1501 41.4498L43.05 41.3499L43.1501 40.9999L43.4001 40.7999L44.9501 40.3499L43.7001 37.2499Z" fill="url(#paint1_linear_76_253)"/>
<path d="M39.5499 52.2499C39.5499 52.1499 39.5999 52.0665 39.6999 51.9999L39.9999 51.8999L40.2499 51.9999L40.3999 52.2499L41.2499 56.3999L42.4999 55.9999H42.7999L43.0499 56.1998V56.2499V56.5499V56.6499L42.3499 58.4498H37.4999L36.5499 55.3999C36.5165 55.2666 36.5332 55.1499 36.5999 55.0499V54.9999L36.8499 54.8499H37.1999L38.5499 55.3999L39.5499 52.2499Z" fill="url(#paint2_linear_76_253)"/>
<path d="M56.05 27.9999L57.3 28.3999L58.1 24.2999L58.25 24.0499L58.55 23.8999L58.85 23.9999L59 24.2499L59.95 27.3999L61.35 26.8499H61.7L61.95 27.0499V27.3999L61.05 30.4999H56.2L55.5 28.6998V28.5999V28.2999V28.2499L55.75 28.0499L56.05 27.9999Z" fill="url(#paint3_linear_76_253)"/>
<path d="M61.5 45.2L63.5 48.05L66.3 47H66.65L66.85 47.2L66.9 47.25V47.6L65.7 50.75L67.2 51.15L67.5 51.4L67.55 51.7L67.5 51.85L67.35 52L65.75 53.05H59.75L58.3 49.9H58.25V49.65L58.3 49.45L58.35 49.35L58.6 49.25L60.3 48.9L60.65 45.4L60.75 45.15L61 45L61.25 45.05L61.5 45.2Z" fill="url(#paint4_linear_76_253)"/>
<path d="M92.9 28.1001L93.15 28.2001L93.3 28.4501L94.15 32.6001L95.4 32.2001H95.7L95.95 32.4001V32.4501V32.7501V32.8501L95.25 34.6501H90.4L89.45 31.6001C89.4167 31.4668 89.4333 31.3501 89.5 31.2501V31.2001C89.5667 31.1001 89.65 31.0502 89.75 31.0502H90.1L91.45 31.6001L92.45 28.4501L92.6 28.2001L92.9 28.1001Z" fill="url(#paint5_linear_76_253)"/>
<path d="M85.5499 79.9999L85.6999 79.7499L85.9999 79.6499L86.2499 79.7499L86.3999 79.9999L87.2499 84.1499L88.4999 83.7499H88.7999L89.0499 83.9498V83.9999V84.2999V84.3999L88.3499 86.1998H83.4999L82.5499 83.1499C82.5165 83.0166 82.5332 82.8999 82.5999 82.7999V82.7499C82.6665 82.6499 82.7499 82.5999 82.8499 82.5999H83.1999L84.5499 83.1499L85.5499 79.9999Z" fill="url(#paint6_linear_76_253)"/>
<path d="M108.4 95.8L108.65 95.9L108.8 96.15L109.65 100.3L110.9 99.9H111.2L111.45 100.1V100.15V100.45V100.55L110.75 102.35H105.9L104.95 99.3C104.917 99.1667 104.933 99.05 105 98.95V98.9L105.25 98.75H105.6L106.95 99.3L107.95 96.15L108.1 95.9L108.4 95.8Z" fill="url(#paint7_linear_76_253)"/>
<path d="M69.1 89.9999C69.1667 89.8999 69.25 89.8499 69.35 89.8499H69.7001L71.05 90.3999L72.05 87.2499L72.2001 86.9999L72.5001 86.8999L72.7501 86.9999L72.9001 87.2499L73.7501 91.3999L75.0001 90.9999H75.3L75.55 91.1998V91.2499V91.5499V91.6499L74.85 93.4498H70.0001L69.05 90.3999L69.1 90.0499V89.9999Z" fill="url(#paint8_linear_76_253)"/>
<path d="M72.2 118.45L72.45 118.3L72.7 118.35C72.8 118.35 72.8833 118.4 72.95 118.5L74.95 121.35L77.7499 120.3H78.0999L78.2999 120.5L78.3499 120.55V120.9L77.15 124.05L78.65 124.45L78.95 124.7L78.9999 125L78.95 125.15L78.7999 125.3L77.2 126.35H71.2L69.7499 123.2H69.7V122.95L69.7499 122.75L69.7999 122.65L70.0499 122.55L71.7499 122.2L72.0999 118.7L72.2 118.45Z" fill="url(#paint9_linear_76_253)"/>
<path d="M62.5001 105.55L62.7001 105.75L62.7501 105.8V106.15L61.5501 109.3L63.0501 109.7L63.3501 109.95L63.4001 110.25L63.3501 110.4L63.2001 110.55L61.6001 111.6H55.6001L54.1501 108.45H54.1001V108.2L54.1501 108L54.2001 107.9L54.4501 107.8L56.1501 107.45L56.5001 103.95L56.6001 103.7L56.8501 103.55L57.1001 103.6C57.2001 103.6 57.2834 103.65 57.3501 103.75L59.3501 106.6L62.1501 105.55H62.5001Z" fill="url(#paint10_linear_76_253)"/>
<path d="M45.1001 113.95C45.2001 113.95 45.2834 114 45.3501 114.1L47.3501 116.95L50.1501 115.9H50.5001L50.7001 116.1L50.7501 116.15V116.5L49.5501 119.65L51.0501 120.05L51.3501 120.3L51.4001 120.6L51.3501 120.75L51.2001 120.9L49.6001 121.95H43.6001L42.1501 118.8H42.1001V118.55L42.1501 118.35L42.2001 118.25L42.4501 118.15L44.1501 117.8L44.5001 114.3L44.6001 114.05L44.8501 113.9L45.1001 113.95Z" fill="url(#paint11_linear_76_253)"/>
<path d="M62.4 121H62.7L62.95 121.2V121.25V121.55V121.65L62.2499 123.45H57.4L56.45 120.4L56.4999 120.05V120C56.5666 119.9 56.6499 119.85 56.7499 119.85H57.0999L58.45 120.4L59.45 117.25L59.5999 117L59.9 116.9L60.15 117L60.2999 117.25L61.15 121.4L62.4 121Z" fill="url(#paint12_linear_76_253)"/>
<path d="M27.5499 60.1499L27.7999 60.2499L27.9499 60.4999L28.7999 64.6499L30.0499 64.2499H30.3499L30.5999 64.4498V64.4999V64.7999V64.8999L29.9 66.6998H25.0499L24.0999 63.6499C24.0666 63.5166 24.0833 63.3999 24.15 63.2999V63.2499L24.4 63.0999H24.7499L26.0999 63.6499L27.0999 60.4999L27.2499 60.2499L27.5499 60.1499Z" fill="url(#paint13_linear_76_253)"/>
<path d="M17.1001 102.2L19.9001 101.15H20.2501L20.4501 101.35L20.5001 101.4V101.75L19.3001 104.9L20.8001 105.3L21.1001 105.55L21.1501 105.85L21.1001 106L20.9501 106.15L19.3501 107.2H13.3501L11.9001 104.05H11.8501V103.8L11.9001 103.6L11.9501 103.5L12.2001 103.4L13.9001 103.05L14.2501 99.5499L14.3501 99.2999L14.6001 99.1499L14.8501 99.1998C14.9501 99.1998 15.0334 99.2499 15.1001 99.3499L17.1001 102.2Z" fill="url(#paint14_linear_76_253)"/>
<path d="M83.9001 17.6L85.4001 17.55C85.9001 17.7167 86.2834 18.0666 86.55 18.6L95.6501 38.35L95.8 39.4L95.4001 40.35L95.0001 40.75L96.2001 43.95C96.3667 44.4166 96.3667 44.8667 96.2001 45.3L98.5001 48.1C98.7667 48.4333 98.9167 48.8167 98.9501 49.25C98.9834 49.65 98.8834 50.05 98.6501 50.45L97.7001 51.2L83.6 56.8L82.3 56.9C81.8334 56.7334 81.4834 56.4666 81.2501 56.1L74.4501 46.5C74.1834 46.1667 74.05 45.7833 74.05 45.35C74.05 44.9166 74.1668 44.5333 74.4001 44.2L75.9001 42.05L74.8 40.45C74.5 40.0833 74.3668 39.6666 74.4001 39.2C74.4334 38.7333 74.6001 38.3333 74.9001 38L76.85 35.8L76.6501 35.1C76.5834 34.7666 76.6167 34.45 76.7501 34.15L82.85 18.7C83.05 18.1666 83.4001 17.8 83.9001 17.6ZM79.35 35.9L76.4001 39.3L78.35 42.05L76.05 45.35L82.85 54.95L84.35 54.4L84.3 54.35L96.9501 49.35L93.35 45L94.3 44.65L92.4501 39.7L92.05 39.85L93.8 39.15L84.7001 19.4L78.6 34.85L79.35 35.9L79.6 36.2H79.55L79.35 35.9Z" fill="#115F32"/>
<path d="M79.3499 35.8999L79.5499 36.1998H79.5999L83.9499 42.3499V42.3999L83.2999 48.9498L78.3499 42.0499L76.3999 39.2999L79.3499 35.8999Z" fill="#10773C"/>
<path d="M79.35 35.8999L78.6 34.8499L84.7001 19.3999L84.3 42.8999L92.05 39.8499L92.4501 39.6998L94.3 44.6499L93.35 44.9999L83.6501 48.7999L82.85 54.9498L76.05 45.3499L78.35 42.0499L83.3 48.9498L83.9501 42.3999V42.3499L79.6 36.1998L79.35 35.8999Z" fill="#168344"/>
<path d="M84.7001 19.3999L93.8001 39.1499L92.0501 39.8499L84.3001 42.8999L84.7001 19.3999ZM93.3501 44.9999L96.9501 49.3499L84.3001 54.3499L84.3501 54.3999L82.8501 54.9498L83.6501 48.7999L93.3501 44.9999Z" fill="#1B914D"/>
<path d="M87.0001 40L42.8501 19.4L30.5501 22.55L9.55011 66.6L7.3501 71.25V67.05L7.55011 66.2L28.7501 21.7C28.8835 21.4333 29.0668 21.2 29.3001 21C29.5001 20.8333 29.7501 20.7167 30.0501 20.65L42.3501 17.5L43.7001 17.6L87.8501 38.2L88.7001 38.95L88.9501 39.6L87.0001 40.1V40Z" fill="#115F32"/>
<path d="M86.9999 39.9999L74.7499 43.1499L30.5499 22.5499L42.8499 19.3999L86.9999 39.9999ZM23.3499 49.6499L26.9999 51.2499L24.8999 55.3499L21.3999 53.6998L23.3499 49.6499ZM36.7999 44.8999L33.1999 51.8499L27.1999 49.0499L30.5499 42.0999L36.7999 44.8999ZM39.3999 53.2499L37.2999 57.3499L33.7999 55.6998L35.7499 51.6499L39.3999 53.2499Z" fill="#178044"/>
<path d="M39.4001 53.25L35.7501 51.65L33.8001 55.7L37.3001 57.35L39.4001 53.25ZM9.55011 66.6L30.5501 22.55L74.7501 43.15L62.2501 69.35L55.4501 66.25L52.0501 64.65L43.5001 82.9L9.3501 67.05L9.55011 66.6ZM36.8001 44.9L30.5501 42.1L27.2001 49.05L33.2001 51.85L36.8001 44.9ZM23.3501 49.65L21.4001 53.7L24.9001 55.35L27.0001 51.25L23.3501 49.65Z" fill="#1B914D"/>
<path d="M65.1001 82.25V67.7L74.7501 47.45L84.4501 44.55V59.25L65.1001 82.25ZM52.0501 68.65V80.85L46.1001 87.95V80.65L52.0501 68.65Z" fill="#CBBD9E"/>
<path d="M52.05 68.65L46.1 80.65V87.95L43.5 91.05V82.9L52.05 64.65V68.65ZM87 40V40.1V56.25L84.45 59.25V44.55L74.75 47.45L65.1 67.7V82.25L62.25 85.6V69.35L74.75 43.15L87 40Z" fill="#936434"/>
<path d="M87.0001 40.1001L88.9501 39.6001L89.0001 40.0001V56.2501C89.0001 56.7501 88.8501 57.1835 88.5501 57.5502L84.4501 62.4001V59.2501L87.0001 56.2501V40.1001ZM7.3501 71.2501L9.55011 66.6001L9.3501 67.0502V75.2001L12.8501 76.8501V79.0502L8.50012 77.0502L7.70013 76.3002C7.4668 75.9668 7.3501 75.6001 7.3501 75.2001V71.2501ZM65.1001 85.3501L63.8001 86.9001C63.5001 87.2335 63.1335 87.4502 62.7001 87.5502L61.4001 87.4501L59.1501 86.4001V84.1501L62.2501 85.6001L65.1001 82.2501V85.3501ZM46.1001 91.0502L45.0501 92.3501C44.7501 92.6834 44.3835 92.9001 43.9501 93.0001L42.6501 92.9001L38.8001 91.1001V88.8501L43.5001 91.0502L46.1001 87.9501V91.0502Z" fill="#775029"/>
<path d="M46.1001 91.05V87.95L52.0501 80.85L59.1501 84.15V86.4L52.6001 83.35L46.1001 91.05ZM65.1001 82.25L84.4501 59.25V62.4L65.1001 85.35V82.25ZM38.8001 91.1L12.8501 79.05V76.85L38.8001 88.85V91.1Z" fill="#726A59"/>
<path d="M59.1501 84.1499V72.1499L52.0501 68.6499V64.6499L55.4501 66.2499L62.2501 69.3499V85.5999L59.1501 84.1499ZM38.8001 88.8499V83.7499L12.8501 71.8999V76.8499L9.3501 75.1998V67.0499L43.5001 82.8999V91.0499L38.8001 88.8499Z" fill="#BB8044"/>
<path d="M38.8001 88.8499L12.8501 76.8499V71.8999L38.8001 83.7499V88.8499ZM52.0501 68.6499L59.1501 72.1499V84.1499L52.0501 80.8499V68.6499Z" fill="#ECDCB8"/>
<path d="M71.25 70.9L71.8 69.7L72.1 69.25L89.35 48.75L90 48.25L90.85 48.05H97.1L97.95 48.25L107.4 52.55L107.95 52.95L114.1 58.9L114.6 59.7L116.95 66.85L115.45 68.65L112.7 60.3L106.55 54.3L97.1 50.05H90.85L73.6 70.55L73.55 70.7L71.25 70.9Z" fill="#917F57"/>
<path d="M73.6001 70.55L90.8501 50.05H97.1001L79.8001 70.25L73.6001 70.55Z" fill="#CDB57C"/>
<path d="M106.55 54.3L112.7 60.3L95.5 80.5L89.25 74.85L106.55 54.3Z" fill="#F0D391"/>
<path d="M97.1 50.05L106.55 54.3L89.2501 74.85L79.8 70.25L97.1 50.05ZM112.7 60.3L115.45 68.65L98.1501 88.9L95.5001 80.5L112.7 60.3Z" fill="#E0C587"/>
<path d="M71.2499 70.9001L73.5499 70.7001L70.8999 76.2501V88.3501L78.7499 91.8501L90.3499 97.2501L98.1499 101.05L115.45 80.8002V68.6501L116.95 66.8501L117.35 68.0502L117.45 68.6501V80.8002C117.45 81.3002 117.3 81.7334 117 82.1001L99.6999 102.35C99.3999 102.683 99.0332 102.9 98.5999 103L97.2999 102.9L70.0499 90.2001L69.2499 89.4501C69.0165 89.1167 68.8999 88.7501 68.8999 88.3501V76.2501L69.0999 75.4001L71.2499 70.9001Z" fill="#703B27"/>
<path d="M98.15 88.8999L115.45 68.6499V80.7999L98.15 101.05V88.8999ZM90.35 97.2499L78.75 91.8499V83.1998L90.35 88.6499V97.2499Z" fill="#9C5338"/>
<path d="M90.3499 97.25V88.65L78.7499 83.2V91.85L70.8999 88.35V76.25L73.5499 70.7L73.5999 70.55L79.7999 70.25L89.2499 74.85L95.4999 80.5L98.1499 88.9V101.05L90.3499 97.25Z" fill="#BB6444"/>
<path d="M52.95 86.3L54.2 86.45L87.55 102C87.9167 102.167 88.2167 102.433 88.45 102.8C88.65 103.167 88.7334 103.567 88.7 104C88.6667 104.4 88.5167 104.767 88.25 105.1L67.25 129.85L66.15 130.5L64.85 130.35L31.5 114.75L30.65 113.95C30.4167 113.583 30.3167 113.2 30.35 112.8C30.3833 112.367 30.55 111.983 30.85 111.65L51.85 86.95C52.1167 86.6166 52.4834 86.4 52.95 86.3ZM83.1 108.05L86.7 103.8L53.35 88.25L49.9 92.3L45.45 97.6L40.95 102.85L36.4 108.2L32.35 112.95L65.7 128.55L69.65 123.9L74.15 118.6L78.65 113.3L83.1 108.05Z" fill="#775029"/>
<path d="M83.0999 108.05L78.6499 113.3L45.4499 97.6L49.8999 92.3L83.0999 108.05ZM74.1499 118.6L69.6499 123.9L36.3999 108.2L40.9499 102.85L74.1499 118.6Z" fill="#C68848"/>
<path d="M74.1501 118.6L40.9501 102.85L45.4501 97.6L78.6501 113.3L74.1501 118.6ZM49.9001 92.3L53.3501 88.25L86.7001 103.8L83.1001 108.05L49.9001 92.3ZM69.6501 123.9L65.7001 128.55L32.3501 112.95L36.4001 108.2L69.6501 123.9Z" fill="#BB8044"/>
<path d="M58.4001 93.8001C59.0335 93.5668 59.6168 93.2 60.1501 92.7L60.3501 92.5501C61.0834 91.7168 61.4668 90.7334 61.5001 89.6001V88.7501C61.5001 83.8501 61.0501 79.6834 60.1501 76.2501C59.2168 72.8168 58.1001 71.1001 56.8001 71.1001C55.5001 71.1001 54.4001 72.8168 53.5001 76.2501C52.5668 79.6834 52.1001 83.8501 52.1001 88.7501V89.6001C52.1334 90.7334 52.5501 91.7168 53.3501 92.5501L53.5001 92.7L55.2501 93.8001V94.95C55.2501 95.3834 55.4001 95.7501 55.7001 96.0501C56.0001 96.3501 56.3668 96.5001 56.8001 96.5001H56.8501C57.2834 96.5001 57.6335 96.3501 57.9001 96.0501C58.2335 95.7501 58.4001 95.3834 58.4001 94.95V93.8001ZM51.6001 93.5501C50.6334 92.4168 50.1334 91.1168 50.1001 89.6501V89.6001V88.7501C50.1001 83.6501 50.6001 79.3168 51.6001 75.7501C52.8334 71.0168 54.5668 68.8001 56.8001 69.1001C59.0334 68.7667 60.8001 70.9834 62.1001 75.7501C63.0334 79.3168 63.5001 83.6501 63.5001 88.7501V89.6001V89.6501C63.4668 91.1168 63.0001 92.4334 62.1001 93.6001L61.6001 94.1501H61.5501L60.4001 95.0501C60.4001 95.9501 60.0668 96.7334 59.4001 97.4001L59.2501 97.5501C58.6168 98.1501 57.8168 98.4668 56.8501 98.5001H56.8001C55.8001 98.5001 54.9668 98.1668 54.3001 97.5001C53.6334 96.8334 53.2835 96.0168 53.2501 95.0501L52.1001 94.1501H52.1501L51.6001 93.5501Z" fill="#115F32"/>
<path d="M55.2501 93.8002L53.5001 92.7001L53.3501 92.5502C52.5501 91.7168 52.1334 90.7334 52.1001 89.6001V88.7501C52.1001 83.8501 52.5668 79.6835 53.5001 76.2501C54.4001 72.8168 55.5001 71.1001 56.8001 71.1001C58.1001 71.1001 59.2168 72.8168 60.1501 76.2501C61.0501 79.6835 61.5001 83.8501 61.5001 88.7501V89.6001C61.4668 90.7334 61.0834 91.7168 60.3501 92.5502L60.1501 92.7001C59.6168 93.2001 59.0335 93.5668 58.4001 93.8002L56.8001 94.0502L55.2501 93.8002Z" fill="#1B914D"/>
<path d="M62.1001 93.6C63.1001 94.3666 63.6001 95.2667 63.6001 96.3C63.6001 97.5 62.9334 98.5334 61.6001 99.4C60.3001 100.267 58.7168 100.7 56.8501 100.7C54.9834 100.7 53.3834 100.267 52.0501 99.4C50.7501 98.5334 50.1001 97.5 50.1001 96.3C50.1001 95.2667 50.6001 94.35 51.6001 93.55L52.1501 94.15H52.1001L53.2501 95.05C53.2835 96.0167 53.6334 96.8333 54.3001 97.5C54.9668 98.1667 55.8001 98.5 56.8001 98.5H56.8501C57.8168 98.4667 58.6168 98.15 59.2501 97.55L59.4001 97.4C60.0668 96.7334 60.4001 95.95 60.4001 95.05L61.5501 94.15H61.6001L62.1001 93.6Z" fill="black" fill-opacity="0.101961"/>
<path d="M58.4 93.8V94.95C58.4 95.3833 58.2334 95.75 57.9 96.05C57.6334 96.35 57.2833 96.5 56.85 96.5H56.8C56.3667 96.5 56 96.35 55.7 96.05C55.4 95.75 55.25 95.3833 55.25 94.95V93.8L56.8 94.05L58.4 93.8Z" fill="#BB8044"/>
<path d="M74.9999 101.8C75.6333 101.567 76.2166 101.2 76.7499 100.7L76.95 100.55C77.6833 99.7168 78.0666 98.7334 78.0999 97.6001V96.7501C78.0999 91.8501 77.6499 87.6834 76.7499 84.2501C75.8166 80.8168 74.7 79.1001 73.4 79.1001C72.1 79.1001 70.9999 80.8168 70.0999 84.2501C69.1666 87.6834 68.7 91.8501 68.7 96.7501V97.6001C68.7333 98.7334 69.15 99.7168 69.95 100.55L70.0999 100.7C70.6332 101.233 71.2166 101.6 71.8499 101.8V102.95C71.8499 103.383 71.9999 103.75 72.2999 104.05C72.5999 104.35 72.9666 104.5 73.4 104.5H73.45C73.8833 104.5 74.2333 104.35 74.4999 104.05C74.8333 103.75 74.9999 103.383 74.9999 102.95V101.8ZM78.7 101.6L78.2 102.15H78.15L76.9999 103.05C76.9999 103.95 76.6666 104.733 75.9999 105.4L75.8499 105.55C75.2166 106.15 74.4166 106.467 73.45 106.5H73.4C72.4 106.5 71.5666 106.167 70.9 105.5C70.2333 104.833 69.8832 104.017 69.8499 103.05L68.7 102.15H68.7499L68.2 101.55C67.2333 100.417 66.7333 99.1168 66.7 97.6501V97.6001V96.7501C66.7 91.6501 67.2 87.3168 68.2 83.7501C69.4333 79.0168 71.1666 76.8001 73.4 77.1001C75.6333 76.7667 77.4 78.9834 78.7 83.7501C79.6333 87.3168 80.0999 91.6501 80.0999 96.7501V97.6001V97.6501C80.0666 99.1168 79.6 100.433 78.7 101.6Z" fill="#115F32"/>
<path d="M71.8499 101.8C71.2166 101.6 70.6332 101.233 70.0999 100.7L69.95 100.55C69.15 99.7168 68.7333 98.7334 68.7 97.6001V96.7501C68.7 91.8501 69.1666 87.6835 70.0999 84.2501C70.9999 80.8168 72.1 79.1001 73.4 79.1001C74.7 79.1001 75.8166 80.8168 76.7499 84.2501C77.6499 87.6835 78.0999 91.8501 78.0999 96.7501V97.6001C78.0666 98.7334 77.6833 99.7168 76.95 100.55L76.7499 100.7C76.2166 101.2 75.6333 101.567 74.9999 101.8L73.4 102.05L71.8499 101.8Z" fill="#1B914D"/>
<path d="M68.2 101.55L68.7499 102.15H68.7L69.8499 103.05C69.8832 104.017 70.2333 104.833 70.9 105.5C71.5666 106.167 72.4 106.5 73.4 106.5H73.45C74.4166 106.467 75.2166 106.15 75.8499 105.55L75.9999 105.4C76.6666 104.733 76.9999 103.95 76.9999 103.05L78.15 102.15H78.2L78.7 101.6C79.7 102.367 80.2 103.267 80.2 104.3C80.2 105.5 79.5333 106.533 78.2 107.4C76.9 108.267 75.3166 108.7 73.45 108.7C71.5833 108.7 69.9833 108.267 68.65 107.4C67.35 106.533 66.7 105.5 66.7 104.3C66.7 103.267 67.2 102.35 68.2 101.55Z" fill="black" fill-opacity="0.101961"/>
<path d="M75.0001 101.8V102.95C75.0001 103.383 74.8335 103.75 74.5001 104.05C74.2335 104.35 73.8835 104.5 73.4501 104.5H73.4001C72.9668 104.5 72.6001 104.35 72.3001 104.05C72.0001 103.75 71.8501 103.383 71.8501 102.95V101.8L73.4001 102.05L75.0001 101.8Z" fill="#BB8044"/>
<path d="M47.4001 107.3C48.0335 107.067 48.6168 106.7 49.1501 106.2L49.3501 106.05C50.0834 105.217 50.4668 104.233 50.5001 103.1V102.25C50.5001 97.3501 50.0501 93.1834 49.1501 89.7501C48.2168 86.3168 47.1001 84.6001 45.8001 84.6001C44.5001 84.6001 43.4001 86.3168 42.5001 89.7501C41.5668 93.1834 41.1001 97.3501 41.1001 102.25V103.1C41.1334 104.233 41.5501 105.217 42.3501 106.05L42.5001 106.2L44.2501 107.3V108.45C44.2501 108.883 44.4001 109.25 44.7001 109.55C45.0001 109.85 45.3668 110 45.8001 110H45.8501C46.2834 110 46.6335 109.85 46.9001 109.55C47.2335 109.25 47.4001 108.883 47.4001 108.45V107.3ZM40.6001 107.05C39.6334 105.917 39.1334 104.617 39.1001 103.15V103.1V102.25C39.1001 97.1501 39.6001 92.8168 40.6001 89.2501C41.8334 84.5168 43.5668 82.3001 45.8001 82.6001C48.0334 82.2667 49.8001 84.4834 51.1001 89.2501C52.0334 92.8168 52.5001 97.1501 52.5001 102.25V103.1V103.15C52.4668 104.617 52.0001 105.933 51.1001 107.1L50.6001 107.65H50.5501L49.4001 108.55C49.4001 109.45 49.0668 110.233 48.4001 110.9L48.2501 111.05C47.6168 111.65 46.8168 111.967 45.8501 112H45.8001C44.8001 112 43.9668 111.667 43.3001 111C42.6334 110.333 42.2835 109.517 42.2501 108.55L41.1001 107.65H41.1501L40.6001 107.05Z" fill="#115F32"/>
<path d="M44.2501 107.3L42.5001 106.2L42.3501 106.05C41.5501 105.217 41.1334 104.233 41.1001 103.1V102.25C41.1001 97.3501 41.5668 93.1835 42.5001 89.7501C43.4001 86.3168 44.5001 84.6001 45.8001 84.6001C47.1001 84.6001 48.2168 86.3168 49.1501 89.7501C50.0501 93.1835 50.5001 97.3501 50.5001 102.25V103.1C50.4668 104.233 50.0834 105.217 49.3501 106.05L49.1501 106.2C48.6168 106.7 48.0335 107.067 47.4001 107.3L45.8001 107.55L44.2501 107.3Z" fill="#1B914D"/>
<path d="M51.1001 107.1C52.1001 107.867 52.6001 108.767 52.6001 109.8C52.6001 111 51.9334 112.033 50.6001 112.9C49.3001 113.767 47.7168 114.2 45.8501 114.2C43.9834 114.2 42.3834 113.767 41.0501 112.9C39.7501 112.033 39.1001 111 39.1001 109.8C39.1001 108.767 39.6001 107.85 40.6001 107.05L41.1501 107.65H41.1001L42.2501 108.55C42.2835 109.517 42.6334 110.333 43.3001 111C43.9668 111.667 44.8001 112 45.8001 112H45.8501C46.8168 111.967 47.6168 111.65 48.2501 111.05L48.4001 110.9C49.0668 110.233 49.4001 109.45 49.4001 108.55L50.5501 107.65H50.6001L51.1001 107.1Z" fill="black" fill-opacity="0.101961"/>
<path d="M47.4 107.3V108.45C47.4 108.883 47.2334 109.25 46.9 109.55C46.6334 109.85 46.2833 110 45.85 110H45.8C45.3667 110 45 109.85 44.7 109.55C44.4 109.25 44.25 108.883 44.25 108.45V107.3L45.8 107.55L47.4 107.3Z" fill="#BB8044"/>
<path d="M57.2 115.05C56.2333 113.917 55.7333 112.617 55.7 111.15V111.1V110.25C55.7 105.15 56.2 100.817 57.2 97.2501C58.4333 92.5168 60.1666 90.3001 62.4 90.6001C64.6333 90.2667 66.4 92.4834 67.7 97.2501C68.6333 100.817 69.0999 105.15 69.0999 110.25V111.1V111.15C69.0666 112.617 68.6 113.933 67.7 115.1L67.2 115.65H67.15L65.9999 116.55C65.9999 117.45 65.6666 118.233 64.9999 118.9L64.8499 119.05C64.2166 119.65 63.4166 119.967 62.45 120H62.4C61.4 120 60.5666 119.667 59.9 119C59.2333 118.333 58.8832 117.517 58.8499 116.55L57.7 115.65H57.7499L57.2 115.05ZM63.9999 115.3C64.6333 115.067 65.2166 114.7 65.7499 114.2L65.95 114.05C66.6833 113.217 67.0666 112.233 67.0999 111.1V110.25C67.0999 105.35 66.6499 101.183 65.7499 97.7501C64.8166 94.3168 63.7 92.6001 62.4 92.6001C61.1 92.6001 59.9999 94.3168 59.0999 97.7501C58.1666 101.183 57.7 105.35 57.7 110.25V111.1C57.7333 112.233 58.15 113.217 58.95 114.05L59.0999 114.2C59.6332 114.733 60.2166 115.1 60.8499 115.3V116.45C60.8499 116.883 60.9999 117.25 61.2999 117.55C61.5999 117.85 61.9666 118 62.4 118H62.45C62.8833 118 63.2333 117.85 63.4999 117.55C63.8333 117.25 63.9999 116.883 63.9999 116.45V115.3Z" fill="#115F32"/>
<path d="M63.9999 115.3L62.4 115.55L60.8499 115.3C60.2166 115.1 59.6332 114.733 59.0999 114.2L58.95 114.05C58.15 113.217 57.7333 112.233 57.7 111.1V110.25C57.7 105.35 58.1666 101.183 59.0999 97.7501C59.9999 94.3168 61.1 92.6001 62.4 92.6001C63.7 92.6001 64.8166 94.3168 65.7499 97.7501C66.6499 101.183 67.0999 105.35 67.0999 110.25V111.1C67.0666 112.233 66.6833 113.217 65.95 114.05L65.7499 114.2C65.2166 114.7 64.6333 115.067 63.9999 115.3Z" fill="#1B914D"/>
<path d="M67.7 115.1C68.7 115.867 69.2 116.767 69.2 117.8C69.2 119 68.5333 120.033 67.2 120.9C65.9 121.767 64.3166 122.2 62.45 122.2C60.5833 122.2 58.9833 121.767 57.65 120.9C56.35 120.033 55.7 119 55.7 117.8C55.7 116.767 56.2 115.85 57.2 115.05L57.7499 115.65H57.7L58.8499 116.55C58.8832 117.517 59.2333 118.333 59.9 119C60.5666 119.667 61.4 120 62.4 120H62.45C63.4166 119.967 64.2166 119.65 64.8499 119.05L64.9999 118.9C65.6666 118.233 65.9999 117.45 65.9999 116.55L67.15 115.65H67.2L67.7 115.1Z" fill="black" fill-opacity="0.101961"/>
<path d="M64.0001 115.3V116.45C64.0001 116.883 63.8335 117.25 63.5001 117.55C63.2335 117.85 62.8835 118 62.4501 118H62.4001C61.9668 118 61.6001 117.85 61.3001 117.55C61.0001 117.25 60.8501 116.883 60.8501 116.45V115.3L62.4001 115.55L64.0001 115.3Z" fill="#BB8044"/>
<path d="M121 36V106L61 141L1 106L1 36L61 0.999996L121 36Z" stroke="black" stroke-width="0.5"/>
<defs>
<linearGradient id="paint0_linear_76_253" x1="14.2001" y1="54.4875" x2="14.2001" y2="46.6125" gradientUnits="userSpaceOnUse">
<stop stop-color="#27AE60"/>
<stop offset="1" stop-color="#30C26D"/>
</linearGradient>
<linearGradient id="paint1_linear_76_253" x1="47.7001" y1="42.6498" x2="47.7001" y2="34.6499" gradientUnits="userSpaceOnUse">
<stop stop-color="#27AE60"/>
<stop offset="1" stop-color="#30C26D"/>
</linearGradient>
<linearGradient id="paint2_linear_76_253" x1="39.7999" y1="58.4123" x2="39.7999" y2="51.8874" gradientUnits="userSpaceOnUse">
<stop stop-color="#27AE60"/>
<stop offset="1" stop-color="#30C26D"/>
</linearGradient>
<linearGradient id="paint3_linear_76_253" x1="58.7" y1="30.4624" x2="58.7" y2="23.9374" gradientUnits="userSpaceOnUse">
<stop stop-color="#27AE60"/>
<stop offset="1" stop-color="#30C26D"/>
</linearGradient>
<linearGradient id="paint4_linear_76_253" x1="62.85" y1="52.9875" x2="62.85" y2="45.1125" gradientUnits="userSpaceOnUse">
<stop stop-color="#27AE60"/>
<stop offset="1" stop-color="#30C26D"/>
</linearGradient>
<linearGradient id="paint5_linear_76_253" x1="92.7" y1="34.6126" x2="92.7" y2="28.0876" gradientUnits="userSpaceOnUse">
<stop stop-color="#27AE60"/>
<stop offset="1" stop-color="#30C26D"/>
</linearGradient>
<linearGradient id="paint6_linear_76_253" x1="85.7999" y1="86.1623" x2="85.7999" y2="79.6374" gradientUnits="userSpaceOnUse">
<stop stop-color="#27AE60"/>
<stop offset="1" stop-color="#30C26D"/>
</linearGradient>
<linearGradient id="paint7_linear_76_253" x1="108.2" y1="102.312" x2="108.2" y2="95.7875" gradientUnits="userSpaceOnUse">
<stop stop-color="#27AE60"/>
<stop offset="1" stop-color="#30C26D"/>
</linearGradient>
<linearGradient id="paint8_linear_76_253" x1="72.3" y1="93.4123" x2="72.3" y2="86.8874" gradientUnits="userSpaceOnUse">
<stop stop-color="#27AE60"/>
<stop offset="1" stop-color="#30C26D"/>
</linearGradient>
<linearGradient id="paint9_linear_76_253" x1="74.2999" y1="126.287" x2="74.2999" y2="118.413" gradientUnits="userSpaceOnUse">
<stop stop-color="#27AE60"/>
<stop offset="1" stop-color="#30C26D"/>
</linearGradient>
<linearGradient id="paint10_linear_76_253" x1="58.7001" y1="111.537" x2="58.7001" y2="103.663" gradientUnits="userSpaceOnUse">
<stop stop-color="#27AE60"/>
<stop offset="1" stop-color="#30C26D"/>
</linearGradient>
<linearGradient id="paint11_linear_76_253" x1="46.7001" y1="121.887" x2="46.7001" y2="114.012" gradientUnits="userSpaceOnUse">
<stop stop-color="#27AE60"/>
<stop offset="1" stop-color="#30C26D"/>
</linearGradient>
<linearGradient id="paint12_linear_76_253" x1="59.7" y1="123.412" x2="59.7" y2="116.887" gradientUnits="userSpaceOnUse">
<stop stop-color="#27AE60"/>
<stop offset="1" stop-color="#30C26D"/>
</linearGradient>
<linearGradient id="paint13_linear_76_253" x1="27.3499" y1="66.6623" x2="27.3499" y2="60.1374" gradientUnits="userSpaceOnUse">
<stop stop-color="#27AE60"/>
<stop offset="1" stop-color="#30C26D"/>
</linearGradient>
<linearGradient id="paint14_linear_76_253" x1="16.4501" y1="107.137" x2="16.4501" y2="99.2624" gradientUnits="userSpaceOnUse">
<stop stop-color="#27AE60"/>
<stop offset="1" stop-color="#30C26D"/>
</linearGradient>
</defs>
</svg>
