<svg width="122" height="142" viewBox="0 0 122 142" fill="none" xmlns="http://www.w3.org/2000/svg">
<path d="M12.85 46.7C12.7833 46.6 12.7 46.55 12.6 46.55L12.35 46.5L12.1 46.65L12 46.9L11.65 50.4L9.94995 50.75L9.69995 50.85L9.65002 50.95L9.59998 51.15V51.4H9.65002L11.1 54.55H17.1L18.7 53.5L18.85 53.35L18.9 53.2L18.85 52.9L18.55 52.65L17.05 52.25L18.25 49.1V48.75L18.2 48.7L18 48.5H17.65L14.85 49.55L12.85 46.7ZM58.55 23.9L58.25 24.05L58.1 24.3L57.3 28.4L56.05 28L55.75 28.05L55.5 28.25V28.3V28.6V28.7L56.2 30.5H61.05L61.95 27.4V27.05L61.7 26.85H61.35L59.95 27.4L59 24.25L58.85 24L58.55 23.9ZM49.85 34.8L49.6 34.65H49.35L49.1 34.8L47.15 37.65L44.3 36.65H43.95L43.75 36.85L43.7 36.9V37.25L44.95 40.35L43.4 40.8L43.15 41L43.05 41.35L43.15 41.45L43.25 41.6L44.85 42.7H50.85L52.3 39.55L52.35 39.5L52.4 39.25L52.3 39.1L52.25 39L52 38.85L50.35 38.55L49.95 35.05L49.85 34.8ZM39.55 52.25L38.55 55.4L37.2 54.85H36.85L36.6 55V55.05C36.5333 55.15 36.5167 55.2667 36.55 55.4L37.5 58.45H42.35L43.05 56.65V56.55V56.25V56.2L42.8 56H42.5L41.25 56.4L40.4 52.25L40.25 52L40 51.9L39.7 52C39.6 52.0667 39.55 52.15 39.55 52.25ZM58.25 49.65V49.9H58.3L59.75 53.05H65.75L67.35 52L67.5 51.85L67.55 51.7L67.5 51.4L67.2 51.15L65.7 50.75L66.9 47.6V47.25L66.85 47.2L66.65 47H66.3L63.5 48.05L61.5 45.2L61.25 45.05L61 45L60.75 45.15L60.65 45.4L60.3 48.9L58.6 49.25L58.35 49.35L58.3 49.45L58.25 49.65ZM92.6 28.2L92.45 28.45L91.45 31.6L90.1 31.05H89.75C89.65 31.05 89.5667 31.1 89.5 31.2V31.25C89.4333 31.35 89.4166 31.4666 89.45 31.6L90.4 34.65H95.25L95.95 32.85V32.75V32.45V32.4L95.7 32.2H95.4L94.15 32.6L93.3 28.45L93.15 28.2L92.9 28.1L92.6 28.2ZM121 36V106L61 141L1 106V36L61 1L121 36ZM107.95 96.15L106.95 99.3L105.6 98.75H105.25L105 98.9V98.95L104.95 99.3L105.9 102.35H110.75L111.45 100.55V100.45V100.15V100.1L111.2 99.9H110.9L109.65 100.3L108.8 96.15L108.65 95.9L108.4 95.8L108.1 95.9C108 95.9667 107.95 96.05 107.95 96.15ZM72.75 87L72.5 86.9L72.2 87L72.05 87.25L71.05 90.4L69.7 89.85H69.35C69.25 89.85 69.1666 89.9 69.1 90V90.05C69.0333 90.15 69.0167 90.2667 69.05 90.4L70 93.45H74.85L75.55 91.65V91.55V91.25V91.2L75.3 91H75L73.75 91.4L72.9 87.25L72.75 87ZM84.55 83.15L83.2 82.6H82.85C82.75 82.6 82.6666 82.65 82.6 82.75V82.8L82.55 83.15L83.5 86.2H88.35L89.05 84.4V84.3V84V83.95L88.8 83.75H88.5L87.25 84.15L86.4 80L86.25 79.75L86 79.65L85.7 79.75L85.55 80L84.55 83.15ZM62.5 105.55H62.15L59.35 106.6L57.35 103.75C57.2833 103.65 57.2 103.6 57.1 103.6L56.85 103.55L56.6 103.7L56.5 103.95L56.15 107.45L54.45 107.8L54.2 107.9L54.15 108L54.1 108.2V108.45H54.15L55.6 111.6H61.6L63.2 110.55L63.35 110.4L63.4 110.25L63.35 109.95L63.05 109.7L61.55 109.3L62.75 106.15V105.8L62.7 105.75L62.5 105.55ZM62.4 121L61.15 121.4L60.3 117.25L60.15 117L59.9 116.9L59.6 117L59.45 117.25L58.45 120.4L57.1 119.85H56.75C56.65 119.85 56.5667 119.9 56.5 120V120.05C56.4333 120.15 56.4166 120.267 56.45 120.4L57.4 123.45H62.25L62.95 121.65V121.55V121.25V121.2L62.7 121H62.4ZM78.35 120.9V120.55L78.3 120.5L78.1 120.3H77.75L74.95 121.35L72.95 118.5L72.7 118.35L72.45 118.3L72.2 118.45L72.1 118.7L71.75 122.2L70.05 122.55L69.8 122.65L69.75 122.75L69.7 122.95V123.2H69.75L71.2 126.35H77.2L78.8 125.3L78.95 125.15L79 125L78.95 124.7L78.65 124.45L77.15 124.05L78.35 120.9ZM30.05 64.25L28.8 64.65L27.95 60.5L27.8 60.25L27.55 60.15L27.25 60.25L27.1 60.5L26.1 63.65L24.75 63.1H24.4L24.15 63.25V63.3L24.1 63.65L25.05 66.7H29.9L30.6 64.9V64.8V64.5V64.45L30.35 64.25H30.05ZM20.45 101.35L20.25 101.15H19.9L17.1 102.2L15.1 99.35C15.0333 99.25 14.95 99.2 14.85 99.2L14.6 99.15L14.35 99.3L14.25 99.55L13.9 103.05L12.2 103.4L11.95 103.5L11.9 103.6L11.85 103.8V104.05H11.9L13.35 107.2H19.35L20.95 106.15L21.1 106L21.15 105.85L21.1 105.55L20.8 105.3L19.3 104.9L20.5 101.75V101.4L20.45 101.35ZM45.35 114.1C45.2833 114 45.2 113.95 45.1 113.95L44.85 113.9L44.6 114.05L44.5 114.3L44.15 117.8L42.45 118.15L42.2 118.25L42.15 118.35L42.1 118.55V118.8H42.15L43.6 121.95H49.6L51.2 120.9L51.35 120.75L51.4 120.6L51.35 120.3L51.05 120.05L49.55 119.65L50.75 116.5V116.15L50.7 116.1L50.5 115.9H50.15L47.35 116.95L45.35 114.1Z" fill="#27AE60"/>
<path d="M12.8501 46.7L14.8501 49.55L17.6501 48.5H18.0001L18.2001 48.7L18.2501 48.75V49.1L17.0502 52.25L18.5502 52.65L18.8501 52.9L18.9001 53.2L18.8501 53.35L18.7001 53.5L17.1001 54.55H11.1001L9.65015 51.4H9.6001V51.15L9.65015 50.95L9.70007 50.85L9.95007 50.75L11.6501 50.4L12.0001 46.9L12.1001 46.65L12.3501 46.5L12.6001 46.55C12.7001 46.55 12.7834 46.6 12.8501 46.7Z" fill="url(#paint0_linear_76_196)"/>
<path d="M58.55 23.8999L58.85 23.9999L59 24.2499L59.95 27.3999L61.35 26.8499H61.7L61.95 27.0499V27.3999L61.05 30.4999H56.2L55.5 28.6998V28.5999V28.2999V28.2499L55.75 28.0499L56.05 27.9999L57.3 28.3999L58.1 24.2999L58.25 24.0499L58.55 23.8999Z" fill="url(#paint1_linear_76_196)"/>
<path d="M49.85 34.7999L49.95 35.0499L50.35 38.5499L52 38.8499L52.25 38.9999L52.3 39.0999L52.4 39.2499L52.35 39.4999L52.3 39.5499L50.85 42.6998H44.85L43.25 41.5999L43.15 41.4498L43.05 41.3499L43.15 40.9999L43.4 40.7999L44.95 40.3499L43.7 37.2499V36.8999L43.75 36.8499L43.95 36.6499H44.3L47.15 37.6499L49.1 34.7999L49.35 34.6499H49.6L49.85 34.7999Z" fill="url(#paint2_linear_76_196)"/>
<path d="M39.5499 52.2499C39.5499 52.1499 39.5998 52.0665 39.6998 51.9999L39.9998 51.8999L40.2498 51.9999L40.3999 52.2499L41.2498 56.3999L42.4998 55.9999H42.7999L43.0499 56.1998V56.2499V56.5499V56.6499L42.3498 58.4498H37.4998L36.5499 55.3999C36.5166 55.2666 36.5331 55.1499 36.5998 55.0499V54.9999L36.8498 54.8499H37.1998L38.5499 55.3999L39.5499 52.2499Z" fill="url(#paint3_linear_76_196)"/>
<path d="M58.25 49.65L58.3 49.45L58.35 49.35L58.6 49.25L60.3 48.9L60.65 45.4L60.75 45.15L61 45L61.25 45.05L61.5 45.2L63.5 48.05L66.3 47H66.65L66.85 47.2L66.9 47.25V47.6L65.7 50.75L67.2 51.15L67.5 51.4L67.55 51.7L67.5 51.85L67.35 52L65.75 53.05H59.75L58.3 49.9H58.25V49.65Z" fill="url(#paint4_linear_76_196)"/>
<path d="M92.6 28.2001L92.9001 28.1001L93.1501 28.2001L93.3001 28.4501L94.1501 32.6001L95.4001 32.2001H95.7L95.95 32.4001V32.4501V32.7501V32.8501L95.2501 34.6501H90.4001L89.45 31.6001C89.4167 31.4668 89.4334 31.3501 89.5001 31.2501V31.2001C89.5667 31.1001 89.6501 31.0502 89.7501 31.0502H90.1L91.45 31.6001L92.45 28.4501L92.6 28.2001Z" fill="url(#paint5_linear_76_196)"/>
<path d="M107.95 96.15C107.95 96.05 108 95.9667 108.1 95.9L108.4 95.8L108.65 95.9L108.8 96.15L109.65 100.3L110.9 99.9H111.2L111.45 100.1V100.15V100.45V100.55L110.75 102.35H105.9L104.95 99.3L105 98.95V98.9L105.25 98.75H105.6L106.95 99.3L107.95 96.15Z" fill="url(#paint6_linear_76_196)"/>
<path d="M72.7498 86.9999L72.8999 87.2499L73.7498 91.3999L74.9998 90.9999H75.2999L75.5499 91.1998V91.2499V91.5499V91.6499L74.8498 93.4498H69.9998L69.0499 90.3999C69.0166 90.2666 69.0331 90.1499 69.0998 90.0499V89.9999C69.1665 89.8999 69.2498 89.8499 69.3498 89.8499H69.6998L71.0499 90.3999L72.0499 87.2499L72.1998 86.9999L72.4998 86.8999L72.7498 86.9999Z" fill="url(#paint7_linear_76_196)"/>
<path d="M84.55 83.1499L85.55 79.9999L85.7 79.7499L86 79.6499L86.25 79.7499L86.4 79.9999L87.25 84.1499L88.5 83.7499H88.8L89.05 83.9498V83.9999V84.2999V84.3999L88.35 86.1998H83.5L82.55 83.1499L82.6 82.7999V82.7499C82.6666 82.6499 82.75 82.5999 82.85 82.5999H83.2L84.55 83.1499Z" fill="url(#paint8_linear_76_196)"/>
<path d="M62.5001 105.55L62.7001 105.75L62.7501 105.8V106.15L61.5502 109.3L63.0502 109.7L63.3501 109.95L63.4001 110.25L63.3501 110.4L63.2001 110.55L61.6001 111.6H55.6001L54.1501 108.45H54.1001V108.2L54.1501 108L54.2001 107.9L54.4501 107.8L56.1501 107.45L56.5001 103.95L56.6001 103.7L56.8501 103.55L57.1001 103.6C57.2001 103.6 57.2834 103.65 57.3501 103.75L59.3501 106.6L62.1501 105.55H62.5001Z" fill="url(#paint9_linear_76_196)"/>
<path d="M62.4001 121H62.7L62.95 121.2V121.25V121.55V121.65L62.2501 123.45H57.4001L56.45 120.4C56.4167 120.267 56.4334 120.15 56.5001 120.05V120C56.5667 119.9 56.6501 119.85 56.7501 119.85H57.1L58.45 120.4L59.45 117.25L59.6 117L59.9001 116.9L60.1501 117L60.3001 117.25L61.1501 121.4L62.4001 121Z" fill="url(#paint10_linear_76_196)"/>
<path d="M78.35 120.9L77.15 124.05L78.65 124.45L78.95 124.7L79 125L78.95 125.15L78.8 125.3L77.2 126.35H71.2L69.75 123.2H69.7V122.95L69.75 122.75L69.8 122.65L70.05 122.55L71.75 122.2L72.1 118.7L72.2 118.45L72.45 118.3L72.7 118.35L72.95 118.5L74.95 121.35L77.75 120.3H78.1L78.3 120.5L78.35 120.55V120.9Z" fill="url(#paint11_linear_76_196)"/>
<path d="M30.0502 64.2499H30.3501L30.6001 64.4498V64.4999V64.7999V64.8999L29.9001 66.6998H25.0502L24.1001 63.6499L24.1501 63.2999V63.2499L24.4001 63.0999H24.7501L26.1001 63.6499L27.1001 60.4999L27.2501 60.2499L27.5502 60.1499L27.8002 60.2499L27.9501 60.4999L28.8002 64.6499L30.0502 64.2499Z" fill="url(#paint12_linear_76_196)"/>
<path d="M20.4501 101.35L20.5001 101.4V101.75L19.3002 104.9L20.8002 105.3L21.1001 105.55L21.1501 105.85L21.1001 106L20.9501 106.15L19.3501 107.2H13.3501L11.9001 104.05H11.8501V103.8L11.9001 103.6L11.9501 103.5L12.2001 103.4L13.9001 103.05L14.2501 99.5499L14.3501 99.2999L14.6001 99.1499L14.8501 99.1998C14.9501 99.1998 15.0334 99.2499 15.1001 99.3499L17.1001 102.2L19.9001 101.15H20.2501L20.4501 101.35Z" fill="url(#paint13_linear_76_196)"/>
<path d="M45.3501 114.1L47.3501 116.95L50.1501 115.9H50.5001L50.7001 116.1L50.7501 116.15V116.5L49.5502 119.65L51.0502 120.05L51.3501 120.3L51.4001 120.6L51.3501 120.75L51.2001 120.9L49.6001 121.95H43.6001L42.1501 118.8H42.1001V118.55L42.1501 118.35L42.2001 118.25L42.4501 118.15L44.1501 117.8L44.5001 114.3L44.6001 114.05L44.8501 113.9L45.1001 113.95C45.2001 113.95 45.2834 114 45.3501 114.1Z" fill="url(#paint14_linear_76_196)"/>
<path d="M17.9501 45.95C18.3167 45.25 18.8335 44.7166 19.5001 44.35L27.5001 39.7H33.7001L35.6501 34.95L40.6501 32.05H43.7001L45.0502 29.5L58.8501 21.4C59.5168 20.9667 60.2335 20.75 61.0001 20.75C61.7668 20.75 62.5001 20.9667 63.2001 21.4L81.9501 32.35L83.6001 35.2H86.9001L102.55 44.35C103.184 44.7166 103.7 45.25 104.1 45.95C104.467 46.5833 104.65 47.2834 104.65 48.05V65.3L102.55 68.6L104.65 71.7V93.9C104.65 94.6667 104.467 95.3834 104.1 96.05C103.7 96.7167 103.184 97.25 102.55 97.65L82.3002 109.5L78.2001 108.95L75.1001 113.7L63.2001 120.65C62.5001 121.017 61.7668 121.2 61.0001 121.2C60.2335 121.2 59.5168 121.017 58.8501 120.65L19.5001 97.65C18.8335 97.25 18.3167 96.7167 17.9501 96.05C17.5501 95.3834 17.3501 94.6667 17.3501 93.9V85.75L19.8002 82.75L17.3501 78.15V48.05C17.3501 47.2834 17.5501 46.5833 17.9501 45.95Z" fill="#BB8044"/>
<path d="M65.6001 41.3501L66.3002 45.7001L61.9501 46.4001L61.2501 42.0502L65.6001 41.3501ZM91.6001 72.9501L90.3501 75.8501L87.4501 74.6501L88.6501 71.7001L91.6001 72.9501ZM37.9001 68.0001L40.9501 74.9001L34.1001 77.9001L31.1001 71.0001L37.9001 68.0001Z" fill="#C68A4E"/>
<path d="M69.1 41.75L69.95 34.7L77.05 35.5L76.25 42.55L69.1 41.75ZM83.2 94.4L77.05 92L79.5 85.85L85.65 88.3L83.2 94.4ZM89.9 80.35H94.5V84.9H89.95L89.9 80.35ZM45.05 63.2L47.6 66.45L44.4 69.05L41.8 65.8L45.05 63.2ZM37.9 61.75L34.05 64.55L31.3 60.8L35.05 58L37.9 61.75ZM22.2 72.4L24.2 71.5L25.05 73.55L23.05 74.5L22.2 72.4Z" fill="#AA753E"/>
<path d="M29.4 51.95L27.5 46.3L27.45 45.3C27.5166 44.9334 27.6667 44.6166 27.9 44.35L35.75 35.15L35.95 34.85C36.2166 34.4166 36.5834 34.1333 37.05 34L38.45 34.1L48.55 38.9L49 39.15L51 40.8L51.65 41.8L51.6 42.95L49.15 50.7V53.05L47.15 54.45V50.4L49.7 42.35L47.7 40.7L37.6 35.9L37.25 36.45L31.4 43.45L29.4 45.65L31.75 52.6L30.2 54.45L29.4 51.95Z" fill="#464646"/>
<path d="M31.3999 43.4498L37.2499 36.4498L37.5999 35.8999L47.6998 40.6998L41.4498 48.1998L31.3999 43.4498ZM34.4999 42.8499L40.6998 45.7999L44.5499 41.2499L38.3499 38.2999L34.4999 42.8499Z" fill="#8C8C8C"/>
<path d="M29.4001 51.9501L30.2001 54.4501L27.5502 53.3002L24.8002 54.0001L24.4501 54.5502L20.4001 59.3002L18.3501 61.7001V63.3501L22.6001 65.1501V67.4501L20.6001 66.5001L17.6001 65.2001L16.7001 64.4501C16.4667 64.1167 16.3501 63.7501 16.3501 63.3501V61.7001C16.3501 61.2001 16.5168 60.7668 16.8501 60.4001L22.9501 53.2501L23.1501 52.9501C23.4168 52.4834 23.8002 52.1835 24.3002 52.0502L27.0502 51.3501L28.3501 51.5001L29.4001 51.9501Z" fill="#5D5D5D"/>
<path d="M30.2001 54.4501L31.7501 52.6001L31.9001 52.9501V56.9501L23.3002 63.0502L22.6001 63.4001L23.1501 62.8501L23.3002 62.7001L23.4501 62.4501L23.5502 62.3501L25.8501 59.6501L30.2001 54.4501ZM56.4501 57.7501V68.9001L43.5001 84.4501V73.3002L56.4501 57.7501Z" fill="#9C5338"/>
<path d="M31.7499 52.5999L29.3999 45.6499L41.8499 51.4999L41.2999 61.3999L31.8999 56.9498V52.9498L31.7499 52.5999Z" fill="#7B7B7B"/>
<path d="M29.3999 45.6501L31.3999 43.4501L41.4498 48.2001L41.8499 51.5001L49.6998 42.3501L47.1499 50.4001V54.4501L41.2999 61.4001L41.8499 51.5001L29.3999 45.6501Z" fill="#666666"/>
<path d="M34.5 42.85L38.35 38.3L44.55 41.25L40.7 45.8L34.5 42.85Z" fill="#353535"/>
<path d="M47.7 40.7L49.7 42.35L41.85 51.5L41.45 48.2L47.7 40.7Z" fill="#5B5B5B"/>
<path d="M47.1501 54.45L49.1501 53.05L57.1501 55.9L58.1001 56.6C58.3334 56.9333 58.4501 57.3167 58.4501 57.75V68.9L58.0001 70.2L45.0502 85.75C44.7502 86.0833 44.3834 86.3 43.9501 86.4L42.6501 86.25L21.7501 76.35L20.9001 75.65C20.7001 75.3167 20.6001 74.95 20.6001 74.55V66.5L22.6001 67.45V74.55L43.5001 84.45L56.4501 68.9V57.75L47.1501 54.45Z" fill="#703B27"/>
<path d="M47.1501 54.45L56.4501 57.75L43.5001 73.3V84.45L22.6001 74.55V67.45V65.15V63.65V63.4L43.5001 73.3L41.3002 61.4L47.1501 54.45ZM38.2001 79.6L40.3501 80.6V74.05L25.5001 67.15V73.65L27.4501 74.55L38.2001 79.6Z" fill="#BB6444"/>
<path d="M41.3002 61.4L43.5001 73.3L22.6001 63.4L23.3002 63.05L31.9001 56.95L41.3002 61.4Z" fill="#D2704C"/>
<path d="M23.3002 62.7L20.4001 61.35V59.3L24.4501 54.55L24.8002 54L27.5502 53.3L23.1501 58.4L25.8501 59.65L23.5502 62.35L23.4501 62.45L23.3002 62.7ZM18.3501 61.7L22.6001 63.65V65.15L18.3501 63.35V61.7Z" fill="#959595"/>
<path d="M18.3501 61.7L20.4001 59.3V61.35L23.3002 62.7L23.1501 62.85L22.6001 63.4V63.65L18.3501 61.7ZM27.5502 53.3L30.2001 54.45L25.8501 59.65L23.1501 58.4L27.5502 53.3Z" fill="#A6A6A6"/>
<path d="M27.45 74.5499L25.5 73.6499V67.1499L40.35 74.0499V80.5999L38.2 79.5999L38.25 78.6998C38.25 76.9998 37.65 75.5499 36.45 74.3499C35.2166 73.1165 33.75 72.4999 32.05 72.4999C30.35 72.4999 28.8834 73.1165 27.65 74.3499L27.45 74.5499Z" fill="#FFB700"/>
<path d="M27.45 74.55L27.65 74.35C28.8834 73.1166 30.35 72.5 32.05 72.5C33.75 72.5 35.2166 73.1166 36.45 74.35C37.65 75.55 38.25 77 38.25 78.7L38.2 79.6L27.45 74.55Z" fill="#FF8C00"/>
<path d="M36.4 65.95L36.9 68.1L34.85 68.6L34.25 66.6L36.4 65.95ZM32.3 67.35L31.15 68.45L30 67.3L31.15 66.15L32.3 67.35Z" fill="#FFAD00"/>
<path d="M95.85 27.95C96.35 28.1166 96.7333 28.4667 97 29L106.1 48.75L106.25 49.8L105.85 50.75L105.45 51.15L106.65 54.35C106.817 54.8166 106.817 55.2666 106.65 55.7L108.95 58.5C109.217 58.8333 109.367 59.2167 109.4 59.65C109.433 60.05 109.333 60.45 109.1 60.85L108.15 61.6L94.05 67.2L92.75 67.3C92.2833 67.1334 91.9333 66.8667 91.7 66.5L84.9 56.9C84.6334 56.5667 84.5 56.1833 84.5 55.75C84.5 55.3167 84.6166 54.9333 84.85 54.6L86.35 52.45L85.25 50.85C84.95 50.4833 84.8166 50.0666 84.85 49.6C84.8833 49.1333 85.05 48.7334 85.35 48.4L87.3 46.2L87.1 45.5C87.0333 45.1667 87.0666 44.85 87.2 44.55L93.3 29.1C93.5 28.5666 93.85 28.2 94.35 28L95.85 27.95ZM89.8 46.3L86.85 49.7L88.8 52.45L86.5 55.75L93.3 65.35L94.8 64.8L94.75 64.75L107.4 59.75L103.8 55.4L104.75 55.05L102.9 50.1L102.5 50.25L104.25 49.55L95.15 29.8L89.05 45.25L89.8 46.3L90.05 46.6H90L89.8 46.3Z" fill="#115F32"/>
<path d="M89.8002 46.3L90.0001 46.6H90.0502L94.4001 52.75V52.8L93.7501 59.35L88.8002 52.45L86.8501 49.7L89.8002 46.3Z" fill="#10773C"/>
<path d="M89.8 46.3L89.05 45.25L95.15 29.8L94.75 53.3L102.5 50.25L102.9 50.1L104.75 55.05L103.8 55.4L94.1 59.2L93.3 65.35L86.5 55.75L88.8 52.45L93.75 59.35L94.4 52.8V52.75L90.05 46.6L89.8 46.3Z" fill="#168344"/>
<path d="M95.15 29.8L104.25 49.55L102.5 50.25L94.75 53.3L95.15 29.8ZM103.8 55.4L107.4 59.75L94.75 64.75L94.8 64.8L93.3 65.35L94.1 59.2L103.8 55.4Z" fill="#1B914D"/>
<path d="M43.6499 76.6001L50.3999 61.5502V56.9001L50.5999 56.1001L50.8999 55.6001L68.1499 35.2501C68.4166 34.9168 68.7832 34.7001 69.2499 34.6001L70.4999 34.7501L97.8499 47.7001L98.4498 48.1001L96.9999 49.7501V49.5001L69.6499 36.5502L52.3999 56.9001V61.0502V62.0001L45.4498 77.4501L43.6499 76.6001Z" fill="#115F32"/>
<path d="M98.45 48.1001L98.7 48.4501L99 49.5001V68.6001C99 69.1001 98.85 69.5335 98.55 69.9001L94.85 74.3002V71.2001L97 68.6001V49.7501L98.45 48.1001ZM82.55 88.8002L81.3 90.2501C81 90.5835 80.6333 90.8001 80.2 90.9001L78.95 90.8002L75.95 89.4501V87.2001L79.75 88.9501L82.55 85.6001V88.8002Z" fill="#775029"/>
<path d="M97 49.5V49.75V68.6L94.85 71.2V56.25L82.55 70.65V85.6L79.75 88.95V69.75L97 49.5Z" fill="#936434"/>
<path d="M96.9999 49.5L74.7499 40.85L52.3999 56.9L69.6499 36.55L96.9999 49.5Z" fill="#136D3A"/>
<path d="M97 49.5001L79.75 69.7501L74.75 40.8501L97 49.5001ZM58.3 79.9001L54.05 77.9001L55.75 74.2001L59.95 76.2501L58.3 79.9001ZM58.3 74.2501L54.05 72.2501L55.75 68.5502L59.95 70.6001L58.3 74.2501Z" fill="#178044"/>
<path d="M94.8501 74.3L82.5502 88.8V85.6L87.4001 79.9L91.3501 75.3L94.8501 71.2V74.3ZM75.9501 89.45L70.9501 87.15L64.8501 94.55C64.5501 94.8834 64.1835 95.1 63.7501 95.2L62.4501 95.05L44.5001 86.45C44.1335 86.2833 43.8501 86.05 43.6501 85.75C43.4501 85.4167 43.3501 85.05 43.3501 84.65V77.6L43.5502 76.8L43.6501 76.6L45.4501 77.45L45.3501 77.6V84.65L63.3002 93.25L70.3501 84.65L75.9501 87.2V89.45Z" fill="#726A59"/>
<path d="M82.55 85.6V70.65L94.85 56.25V71.2L91.35 75.3V66.6L87.4 71.35V79.9L82.55 85.6ZM70.35 84.65L63.3 93.25V86.2L70.35 70.6V84.65Z" fill="#CBBD9E"/>
<path d="M87.3999 79.9001V71.3501L91.3499 66.6001V75.3002L87.3999 79.9001Z" fill="#AA9E85"/>
<path d="M52.4001 62V61.05L75.9501 72.15V87.2L70.3501 84.65V70.6L52.4001 62ZM63.3002 93.25L45.3501 84.65V77.6L63.3002 86.2V93.25Z" fill="#ECDCB8"/>
<path d="M52.3999 61.0499V56.8999L79.7499 69.7499V88.9498L75.9498 87.1998V72.1499L52.3999 61.0499Z" fill="#BB8044"/>
<path d="M45.4501 77.4501L52.4001 62.0001L70.3501 70.6001L63.3002 86.2001L45.3501 77.6001L45.4501 77.4501ZM58.3002 74.2501L59.9501 70.6001L55.7501 68.5502L54.0502 72.2501L58.3002 74.2501ZM58.3002 79.9001L59.9501 76.2501L55.7501 74.2001L54.0502 77.9001L58.3002 79.9001ZM79.7501 69.7501L52.4001 56.9001L74.7501 40.8501L79.7501 69.7501Z" fill="#1B914D"/>
<path d="M91.1998 106.8L98.7999 101.65V99.9L97.2499 98.55L99.4999 94.7499V93.4L93.6998 88.4999L83.3999 95.65V96.9999L85.5499 98.7499L85.7999 98.9499L86.0499 99.15L85.1998 100.55V102.1L91.1998 106.8ZM101.5 94.7499L101.25 95.8L99.8499 98.15L100.15 98.4L100.65 99.0999L100.8 99.9V101.65L100.6 102.6L99.9498 103.3L92.3499 108.45L91.6499 108.75L91.1499 108.8L90.7499 108.75C90.4832 108.683 90.2332 108.567 89.9999 108.4L83.9999 103.7L83.3999 103L83.1998 102.1V100.55L83.4498 99.5999L82.1499 98.55L81.5999 97.8499L81.3999 96.9999V95.65C81.3999 95.3166 81.4832 95.0166 81.6499 94.7499L82.2499 93.9999L92.5499 86.8499C92.9166 86.5833 93.3333 86.4666 93.7999 86.4999C94.2666 86.5333 94.6665 86.6999 94.9999 86.9999L100.8 91.9L101.35 92.55L101.5 93.4V94.7499Z" fill="#464646"/>
<path d="M99.5 93.3999V94.7499L97.25 98.5499L98.8 99.8999V101.65L91.2 106.8V105.25L92.75 101.65L91.65 100.8L89.2 101.65V100.3L99.5 93.3999Z" fill="#666666"/>
<path d="M91.1998 106.8L85.1998 102.1V100.55L91.1998 105.25V106.8ZM86.0499 99.1499L85.7999 98.9498L85.5499 98.7499L83.3999 96.9999V95.6499L89.1998 100.3V101.65L86.6499 99.5999L86.2499 99.3499V99.2999L86.1499 99.1998L86.0499 99.1499Z" fill="#7B7B7B"/>
<path d="M86.0499 99.15L86.1499 99.2L86.2499 99.3V99.35L86.6499 99.6L89.1998 101.65L91.6499 100.8L92.7499 101.65L91.1998 105.25L85.1998 100.55L86.0499 99.15ZM83.3999 95.65L93.6998 88.5L99.4999 93.4L89.1998 100.3L83.3999 95.65Z" fill="#8C8C8C"/>
<path d="M7.69983 92.2L5.3999 95.5L12.1998 105.1L13.6998 104.55L13.6499 104.5L26.2999 99.5L22.6998 95.15L23.6499 94.8L21.7999 89.85L21.3999 90L23.1499 89.3L14.0499 69.55L7.94983 85L8.69983 86.05L8.94983 86.35H8.8999L8.69983 86.05L5.74988 89.45L7.69983 92.2ZM25.1499 89.55L24.7499 90.5L24.3499 90.9L25.5499 94.1C25.7166 94.5666 25.7166 95.0166 25.5499 95.45L27.8499 98.25C28.1165 98.5833 28.2666 98.9667 28.2999 99.4C28.3333 99.8 28.2332 100.2 27.9999 100.6L27.0499 101.35L12.9498 106.95L11.6499 107.05C11.1832 106.883 10.8332 106.617 10.5999 106.25L3.79993 96.65C3.53326 96.3167 3.3999 95.9333 3.3999 95.5C3.3999 95.0667 3.51654 94.6833 3.74988 94.35L5.24988 92.2L4.1499 90.6C3.8499 90.2333 3.71654 89.8166 3.74988 89.35C3.78321 88.8833 3.94988 88.4834 4.24988 88.15L6.19983 85.95L5.99988 85.25C5.93321 84.9167 5.96652 84.6 6.09985 84.3L12.1998 68.85C12.3998 68.3166 12.7499 67.95 13.2499 67.75L14.7499 67.7C15.2499 67.8666 15.6332 68.2167 15.8999 68.75L24.9999 88.5L25.1499 89.55Z" fill="#115F32"/>
<path d="M21.3999 90L21.7999 89.85L23.6499 94.8L22.6998 95.15L12.9999 98.95L12.1998 105.1L5.3999 95.5L7.69983 92.2L12.6499 99.1L13.2999 92.55V92.5L8.94983 86.35L8.69983 86.05L7.94983 85L14.0499 69.55L13.6499 93.05L21.3999 90Z" fill="#168344"/>
<path d="M14.05 69.55L23.15 89.3L21.4 90L13.65 93.05L14.05 69.55ZM22.7 95.15L26.3 99.5L13.65 104.5L13.7 104.55L12.2 105.1L13 98.95L22.7 95.15Z" fill="#1B914D"/>
<path d="M7.69995 92.2L5.75 89.45L8.69995 86.05L8.90002 86.35H8.94995L13.3 92.5V92.55L12.65 99.1L7.69995 92.2Z" fill="#10773C"/>
<path d="M32.0999 82.55L33.5999 82.6C34.0999 82.8 34.45 83.1666 34.65 83.7L38.9499 94.55L39.0999 95.45L39.05 95.8L40.1999 97.1C40.4666 97.4333 40.6166 97.8334 40.65 98.3C40.6833 98.7667 40.5667 99.1834 40.3 99.55L39.7499 100.35L40.55 101.5C40.7833 101.833 40.9 102.217 40.9 102.65L40.55 103.8L35.7499 110.55L34.7499 111.3C34.3166 111.433 33.8999 111.433 33.4999 111.3L32.4499 110.95L31.8499 110.65L23.4999 107.35L22.55 106.6C22.2833 106.233 22.1666 105.833 22.1999 105.4C22.2332 104.967 22.3833 104.583 22.65 104.25L24.0999 102.5C24.0332 102.133 24.0666 101.783 24.1999 101.45L24.9 99.6L24.8 99.5C24.5667 99.2 24.4333 98.8834 24.4 98.55C24.3666 98.1834 24.4332 97.8333 24.5999 97.5L30.9999 83.6C31.2333 83.0666 31.5999 82.7167 32.0999 82.55ZM32.8 84.4L26.4 98.3L27.65 98.8L27.3499 98.7L26.05 102.15L26.6999 102.4L24.1999 105.5L33.0999 109L33.05 109.05L34.0999 109.4L38.9 102.65L37.3 100.35L38.65 98.4L36.5999 96L37.0999 95.25L32.8 84.4ZM36.4 96.2L36.5999 96L36.4499 96.2H36.4Z" fill="#115F32"/>
<path d="M36.4 96.1998L33.35 100.55V100.6L33.8 105.2L37.3 100.35L38.9 102.65L34.1 109.4L33.55 105.1L26.7 102.4L26.05 102.15L27.35 98.6998L27.65 98.7999L33.1 100.95L32.8 84.3999L37.1 95.2499L36.6 95.9999L36.4 96.1998Z" fill="#1B914D"/>
<path d="M36.4 96.1998H36.45L36.6 95.9999L38.65 98.3999L37.3 100.35L33.8 105.2L33.35 100.6V100.55L36.4 96.1998ZM27.65 98.7999L26.4 98.2999L32.8 84.3999L33.1 100.95L27.65 98.7999ZM34.1 109.4L33.05 109.05L33.1 109L24.2 105.5L26.7 102.4L33.55 105.1L34.1 109.4Z" fill="#168344"/>
<path d="M39.55 25.05C42.25 25.8834 45.1167 25.5333 48.15 24L48.5 24.5C46.9 26.1333 44.6333 27.2 41.7 27.7L40.95 27L39.55 25.05ZM47.2 40.1C44.3333 38.6333 42.7 36.5 42.3 33.7L43.25 33.1C45.65 36.7 49.75 38.7167 55.55 39.15C54.05 40.15 52.35 40.65 50.45 40.65L47.2 40.1Z" fill="#191919" fill-opacity="0.501961"/>
<path d="M47.2001 40.0999L46.9501 40.3999C45.9834 41.3666 44.8502 42.0665 43.5502 42.4999L40.7001 45.7999L34.5502 42.8999C34.0835 42.2999 33.8501 41.6332 33.8501 40.8999C33.8501 39.5332 34.3335 38.3666 35.3002 37.3999L35.5001 37.1998L35.3501 35.5499C35.3501 33.6833 36.0168 32.0832 37.3501 30.7499C38.4834 29.6165 39.8168 28.9666 41.3501 28.7999C41.4168 28.3999 41.5334 28.0332 41.7001 27.6998C44.6334 27.1998 46.9001 26.1332 48.5001 24.4999L48.1501 23.9999C45.1168 25.5332 42.2502 25.8833 39.5502 25.0499C39.0502 24.0833 38.8002 23.0332 38.8002 21.8999C38.8002 19.8999 39.5167 18.1832 40.9501 16.7499C42.3501 15.3499 44.0502 14.6499 46.0502 14.6499C48.0502 14.6499 49.7501 15.3499 51.1501 16.7499C52.5835 18.1832 53.3002 19.8999 53.3002 21.8999V22.2499C54.7002 22.6832 55.9668 23.4665 57.1001 24.5999C58.9334 26.4332 59.8501 28.6499 59.8501 31.2499C59.8501 33.8165 58.9334 36.0165 57.1001 37.8499L55.5502 39.1499C49.7502 38.7166 45.6501 36.6999 43.2501 33.0999L42.3002 33.6998C42.7002 36.4998 44.3334 38.6332 47.2001 40.0999Z" fill="#434343" fill-opacity="0.501961"/>
<path d="M121 36V106L61 141L1 106L1 36L61 0.999996L121 36Z" stroke="black" stroke-width="0.5"/>
<defs>
<linearGradient id="paint0_linear_76_196" x1="14.2001" y1="54.4875" x2="14.2001" y2="46.6125" gradientUnits="userSpaceOnUse">
<stop stop-color="#27AE60"/>
<stop offset="1" stop-color="#30C26D"/>
</linearGradient>
<linearGradient id="paint1_linear_76_196" x1="58.7" y1="30.4624" x2="58.7" y2="23.9374" gradientUnits="userSpaceOnUse">
<stop stop-color="#27AE60"/>
<stop offset="1" stop-color="#30C26D"/>
</linearGradient>
<linearGradient id="paint2_linear_76_196" x1="47.7" y1="42.6498" x2="47.7" y2="34.6499" gradientUnits="userSpaceOnUse">
<stop stop-color="#27AE60"/>
<stop offset="1" stop-color="#30C26D"/>
</linearGradient>
<linearGradient id="paint3_linear_76_196" x1="39.7999" y1="58.4123" x2="39.7999" y2="51.8874" gradientUnits="userSpaceOnUse">
<stop stop-color="#27AE60"/>
<stop offset="1" stop-color="#30C26D"/>
</linearGradient>
<linearGradient id="paint4_linear_76_196" x1="62.85" y1="52.9875" x2="62.85" y2="45.1125" gradientUnits="userSpaceOnUse">
<stop stop-color="#27AE60"/>
<stop offset="1" stop-color="#30C26D"/>
</linearGradient>
<linearGradient id="paint5_linear_76_196" x1="92.7" y1="34.6126" x2="92.7" y2="28.0876" gradientUnits="userSpaceOnUse">
<stop stop-color="#27AE60"/>
<stop offset="1" stop-color="#30C26D"/>
</linearGradient>
<linearGradient id="paint6_linear_76_196" x1="108.2" y1="102.312" x2="108.2" y2="95.7875" gradientUnits="userSpaceOnUse">
<stop stop-color="#27AE60"/>
<stop offset="1" stop-color="#30C26D"/>
</linearGradient>
<linearGradient id="paint7_linear_76_196" x1="72.2999" y1="93.4123" x2="72.2999" y2="86.8874" gradientUnits="userSpaceOnUse">
<stop stop-color="#27AE60"/>
<stop offset="1" stop-color="#30C26D"/>
</linearGradient>
<linearGradient id="paint8_linear_76_196" x1="85.8" y1="86.1623" x2="85.8" y2="79.6374" gradientUnits="userSpaceOnUse">
<stop stop-color="#27AE60"/>
<stop offset="1" stop-color="#30C26D"/>
</linearGradient>
<linearGradient id="paint9_linear_76_196" x1="58.7001" y1="111.537" x2="58.7001" y2="103.663" gradientUnits="userSpaceOnUse">
<stop stop-color="#27AE60"/>
<stop offset="1" stop-color="#30C26D"/>
</linearGradient>
<linearGradient id="paint10_linear_76_196" x1="59.7" y1="123.412" x2="59.7" y2="116.887" gradientUnits="userSpaceOnUse">
<stop stop-color="#27AE60"/>
<stop offset="1" stop-color="#30C26D"/>
</linearGradient>
<linearGradient id="paint11_linear_76_196" x1="74.3" y1="126.287" x2="74.3" y2="118.413" gradientUnits="userSpaceOnUse">
<stop stop-color="#27AE60"/>
<stop offset="1" stop-color="#30C26D"/>
</linearGradient>
<linearGradient id="paint12_linear_76_196" x1="27.3501" y1="66.6623" x2="27.3501" y2="60.1374" gradientUnits="userSpaceOnUse">
<stop stop-color="#27AE60"/>
<stop offset="1" stop-color="#30C26D"/>
</linearGradient>
<linearGradient id="paint13_linear_76_196" x1="16.4501" y1="107.137" x2="16.4501" y2="99.2624" gradientUnits="userSpaceOnUse">
<stop stop-color="#27AE60"/>
<stop offset="1" stop-color="#30C26D"/>
</linearGradient>
<linearGradient id="paint14_linear_76_196" x1="46.7001" y1="121.887" x2="46.7001" y2="114.012" gradientUnits="userSpaceOnUse">
<stop stop-color="#27AE60"/>
<stop offset="1" stop-color="#30C26D"/>
</linearGradient>
</defs>
</svg>
