<svg width="122" height="142" viewBox="0 0 122 142" fill="none" xmlns="http://www.w3.org/2000/svg">
<path d="M9.94995 50.75L9.69995 50.85L9.65002 50.95L9.59998 51.15V51.4H9.65002L11.1 54.55H17.1L18.7 53.5L18.85 53.35L18.9 53.2L18.85 52.9L18.55 52.65L17.05 52.25L18.25 49.1V48.75L18.2 48.7L18 48.5H17.65L14.85 49.55L12.85 46.7C12.7833 46.6 12.7 46.55 12.6 46.55L12.35 46.5L12.1 46.65L12 46.9L11.65 50.4L9.94995 50.75ZM43.7 37.25L44.95 40.35L43.4 40.8L43.15 41L43.05 41.35L43.15 41.45L43.25 41.6L44.85 42.7H50.85L52.3 39.55L52.35 39.5L52.4 39.25L52.3 39.1L52.25 39L52 38.85L50.35 38.55L49.95 35.05L49.85 34.8L49.6 34.65H49.35L49.1 34.8L47.15 37.65L44.3 36.65H43.95L43.75 36.85L43.7 36.9V37.25ZM39.7 52L39.55 52.25L38.55 55.4L37.2 54.85H36.85C36.75 54.85 36.6666 54.9 36.6 55V55.05L36.55 55.4L37.5 58.45H42.35L43.05 56.65V56.55V56.25V56.2L42.8 56H42.5L41.25 56.4L40.4 52.25L40.25 52L40 51.9L39.7 52ZM59 24.25L58.85 24L58.55 23.9L58.25 24.05L58.1 24.3L57.3 28.4L56.05 28L55.75 28.05L55.5 28.25V28.3V28.6V28.7L56.2 30.5H61.05L61.95 27.4V27.05L61.7 26.85H61.35L59.95 27.4L59 24.25ZM60.3 48.9L58.6 49.25L58.35 49.35L58.3 49.45L58.25 49.65V49.9H58.3L59.75 53.05H65.75L67.35 52L67.5 51.85L67.55 51.7L67.5 51.4L67.2 51.15L65.7 50.75L66.9 47.6V47.25L66.85 47.2L66.65 47H66.3L63.5 48.05L61.5 45.2C61.4333 45.1 61.35 45.05 61.25 45.05L61 45L60.75 45.15L60.65 45.4L60.3 48.9ZM90.4 34.65H95.25L95.95 32.85V32.75V32.45V32.4L95.7 32.2H95.4L94.15 32.6L93.3 28.45L93.15 28.2L92.9 28.1L92.6 28.2L92.45 28.45L91.45 31.6L90.1 31.05H89.75C89.65 31.05 89.5667 31.1 89.5 31.2V31.25L89.45 31.6L90.4 34.65ZM61 1L121 36V106L61 141L1 106V36L61 1ZM108.65 95.9L108.4 95.8L108.1 95.9L107.95 96.15L106.95 99.3L105.6 98.75H105.25C105.15 98.75 105.067 98.8 105 98.9V98.95C104.933 99.05 104.917 99.1667 104.95 99.3L105.9 102.35H110.75L111.45 100.55V100.45V100.15V100.1L111.2 99.9H110.9L109.65 100.3L108.8 96.15L108.65 95.9ZM69.05 90.4L70 93.45H74.85L75.55 91.65V91.55V91.25V91.2L75.3 91H75L73.75 91.4L72.9 87.25L72.75 87L72.5 86.9L72.2 87L72.05 87.25L71.05 90.4L69.7 89.85H69.35L69.1 90V90.05L69.05 90.4ZM86 79.65L85.7 79.75L85.55 80L84.55 83.15L83.2 82.6H82.85L82.6 82.75V82.8C82.5333 82.9 82.5167 83.0167 82.55 83.15L83.5 86.2H88.35L89.05 84.4V84.3V84V83.95L88.8 83.75H88.5L87.25 84.15L86.4 80L86.25 79.75L86 79.65ZM30.6 64.5V64.45L30.35 64.25H30.05L28.8 64.65L27.95 60.5L27.8 60.25L27.55 60.15L27.25 60.25L27.1 60.5L26.1 63.65L24.75 63.1H24.4C24.3 63.1 24.2167 63.15 24.15 63.25V63.3C24.0834 63.4 24.0666 63.5167 24.1 63.65L25.05 66.7H29.9L30.6 64.9V64.8V64.5ZM14.35 99.3L14.25 99.55L13.9 103.05L12.2 103.4L11.95 103.5L11.9 103.6L11.85 103.8V104.05H11.9L13.35 107.2H19.35L20.95 106.15L21.1 106L21.15 105.85L21.1 105.55L20.8 105.3L19.3 104.9L20.5 101.75V101.4L20.45 101.35L20.25 101.15H19.9L17.1 102.2L15.1 99.35C15.0333 99.25 14.95 99.2 14.85 99.2L14.6 99.15L14.35 99.3ZM44.6 114.05L44.5 114.3L44.15 117.8L42.45 118.15L42.2 118.25L42.15 118.35L42.1 118.55V118.8H42.15L43.6 121.95H49.6L51.2 120.9L51.35 120.75L51.4 120.6L51.35 120.3L51.05 120.05L49.55 119.65L50.75 116.5V116.15L50.7 116.1L50.5 115.9H50.15L47.35 116.95L45.35 114.1L45.1 113.95L44.85 113.9L44.6 114.05ZM78.35 120.55L78.3 120.5L78.1 120.3H77.75L74.95 121.35L72.95 118.5L72.7 118.35L72.45 118.3L72.2 118.45L72.1 118.7L71.75 122.2L70.05 122.55L69.8 122.65L69.75 122.75L69.7 122.95V123.2H69.75L71.2 126.35H77.2L78.8 125.3L78.95 125.15L79 125L78.95 124.7L78.65 124.45L77.15 124.05L78.35 120.9V120.55ZM62.75 106.15V105.8L62.7 105.75L62.5 105.55H62.15L59.35 106.6L57.35 103.75L57.1 103.6L56.85 103.55L56.6 103.7L56.5 103.95L56.15 107.45L54.45 107.8L54.2 107.9L54.15 108L54.1 108.2V108.45H54.15L55.6 111.6H61.6L63.2 110.55L63.35 110.4L63.4 110.25L63.35 109.95L63.05 109.7L61.55 109.3L62.75 106.15ZM59.9 116.9L59.6 117L59.45 117.25L58.45 120.4L57.1 119.85H56.75C56.65 119.85 56.5667 119.9 56.5 120V120.05L56.45 120.4L57.4 123.45H62.25L62.95 121.65V121.55V121.25V121.2L62.7 121H62.4L61.15 121.4L60.3 117.25L60.15 117L59.9 116.9Z" fill="#27AE60"/>
<path d="M9.95007 50.75L11.6501 50.4L12.0001 46.9L12.1001 46.65L12.3501 46.5L12.6001 46.55C12.7001 46.55 12.7834 46.6 12.8501 46.7L14.8501 49.55L17.6501 48.5H18.0001L18.2001 48.7L18.2501 48.75V49.1L17.0502 52.25L18.5502 52.65L18.8501 52.9L18.9001 53.2L18.8501 53.35L18.7001 53.5L17.1001 54.55H11.1001L9.65015 51.4H9.6001V51.15L9.65015 50.95L9.70007 50.85L9.95007 50.75Z" fill="url(#paint0_linear_78_383)"/>
<path d="M43.7 37.2499V36.8999L43.75 36.8499L43.95 36.6499H44.3L47.15 37.6499L49.1 34.7999L49.35 34.6499H49.6L49.85 34.7999L49.95 35.0499L50.35 38.5499L52 38.8499L52.25 38.9999L52.3 39.0999L52.4 39.2499L52.35 39.4999L52.3 39.5499L50.85 42.6998H44.85L43.25 41.5999L43.15 41.4498L43.05 41.3499L43.15 40.9999L43.4 40.7999L44.95 40.3499L43.7 37.2499Z" fill="url(#paint1_linear_78_383)"/>
<path d="M39.7 51.9999L40 51.8999L40.25 51.9999L40.4 52.2499L41.25 56.3999L42.5 55.9999H42.8L43.05 56.1998V56.2499V56.5499V56.6499L42.35 58.4498H37.5L36.55 55.3999L36.6 55.0499V54.9999C36.6666 54.8999 36.75 54.8499 36.85 54.8499H37.2L38.55 55.3999L39.55 52.2499L39.7 51.9999Z" fill="url(#paint2_linear_78_383)"/>
<path d="M59 24.2499L59.95 27.3999L61.35 26.8499H61.7L61.95 27.0499V27.3999L61.05 30.4999H56.2L55.5 28.6998V28.5999V28.2999V28.2499L55.75 28.0499L56.05 27.9999L57.3 28.3999L58.1 24.2999L58.25 24.0499L58.55 23.8999L58.85 23.9999L59 24.2499Z" fill="url(#paint3_linear_78_383)"/>
<path d="M60.3 48.9L60.65 45.4L60.75 45.15L61 45L61.25 45.05C61.35 45.05 61.4333 45.1 61.5 45.2L63.5 48.05L66.3 47H66.65L66.85 47.2L66.9 47.25V47.6L65.7 50.75L67.2 51.15L67.5 51.4L67.55 51.7L67.5 51.85L67.35 52L65.75 53.05H59.75L58.3 49.9H58.25V49.65L58.3 49.45L58.35 49.35L58.6 49.25L60.3 48.9Z" fill="url(#paint4_linear_78_383)"/>
<path d="M90.4 34.6501L89.45 31.6001L89.5 31.2501V31.2001C89.5667 31.1001 89.65 31.0502 89.75 31.0502H90.1L91.45 31.6001L92.45 28.4501L92.6 28.2001L92.9 28.1001L93.15 28.2001L93.3 28.4501L94.15 32.6001L95.4 32.2001H95.7L95.95 32.4001V32.4501V32.7501V32.8501L95.25 34.6501H90.4Z" fill="url(#paint5_linear_78_383)"/>
<path d="M108.65 95.9L108.8 96.15L109.65 100.3L110.9 99.9H111.2L111.45 100.1V100.15V100.45V100.55L110.75 102.35H105.9L104.95 99.3C104.917 99.1667 104.933 99.05 105 98.95V98.9C105.067 98.8 105.15 98.75 105.25 98.75H105.6L106.95 99.3L107.95 96.15L108.1 95.9L108.4 95.8L108.65 95.9Z" fill="url(#paint6_linear_78_383)"/>
<path d="M69.05 90.3999L69.1 90.0499V89.9999L69.35 89.8499H69.7L71.05 90.3999L72.05 87.2499L72.2 86.9999L72.5 86.8999L72.75 86.9999L72.9 87.2499L73.75 91.3999L75 90.9999H75.3L75.55 91.1998V91.2499V91.5499V91.6499L74.85 93.4498H70L69.05 90.3999Z" fill="url(#paint7_linear_78_383)"/>
<path d="M85.9998 79.6499L86.2498 79.7499L86.3999 79.9999L87.2498 84.1499L88.4998 83.7499H88.7999L89.0499 83.9498V83.9999V84.2999V84.3999L88.3498 86.1998H83.4998L82.5499 83.1499C82.5166 83.0166 82.5331 82.8999 82.5998 82.7999V82.7499L82.8498 82.5999H83.1998L84.5499 83.1499L85.5499 79.9999L85.6998 79.7499L85.9998 79.6499Z" fill="url(#paint8_linear_78_383)"/>
<path d="M30.6002 64.4999V64.7999V64.8999L29.9002 66.6998H25.0502L24.1002 63.6499C24.0668 63.5166 24.0835 63.3999 24.1502 63.2999V63.2499C24.2169 63.1499 24.3002 63.0999 24.4002 63.0999H24.7502L26.1002 63.6499L27.1002 60.4999L27.2502 60.2499L27.5502 60.1499L27.8002 60.2499L27.9501 60.4999L28.8002 64.6499L30.0502 64.2499H30.3502L30.6002 64.4498V64.4999Z" fill="url(#paint9_linear_78_383)"/>
<path d="M14.3501 99.2999L14.6001 99.1499L14.8501 99.1998C14.9501 99.1998 15.0334 99.2499 15.1001 99.3499L17.1001 102.2L19.9001 101.15H20.2501L20.4501 101.35L20.5001 101.4V101.75L19.3002 104.9L20.8002 105.3L21.1001 105.55L21.1501 105.85L21.1001 106L20.9501 106.15L19.3501 107.2H13.3501L11.9001 104.05H11.8501V103.8L11.9001 103.6L11.9501 103.5L12.2001 103.4L13.9001 103.05L14.2501 99.5499L14.3501 99.2999Z" fill="url(#paint10_linear_78_383)"/>
<path d="M44.6001 114.05L44.8501 113.9L45.1001 113.95L45.3501 114.1L47.3501 116.95L50.1501 115.9H50.5001L50.7001 116.1L50.7501 116.15V116.5L49.5502 119.65L51.0502 120.05L51.3501 120.3L51.4001 120.6L51.3501 120.75L51.2001 120.9L49.6001 121.95H43.6001L42.1501 118.8H42.1001V118.55L42.1501 118.35L42.2001 118.25L42.4501 118.15L44.1501 117.8L44.5001 114.3L44.6001 114.05Z" fill="url(#paint11_linear_78_383)"/>
<path d="M78.35 120.55V120.9L77.15 124.05L78.65 124.45L78.95 124.7L79 125L78.95 125.15L78.8 125.3L77.2 126.35H71.2L69.75 123.2H69.7V122.95L69.75 122.75L69.8 122.65L70.05 122.55L71.75 122.2L72.1 118.7L72.2 118.45L72.45 118.3L72.7 118.35L72.95 118.5L74.95 121.35L77.75 120.3H78.1L78.3 120.5L78.35 120.55Z" fill="url(#paint12_linear_78_383)"/>
<path d="M62.7501 106.15L61.5502 109.3L63.0502 109.7L63.3501 109.95L63.4001 110.25L63.3501 110.4L63.2001 110.55L61.6001 111.6H55.6001L54.1501 108.45H54.1001V108.2L54.1501 108L54.2001 107.9L54.4501 107.8L56.1501 107.45L56.5001 103.95L56.6001 103.7L56.8501 103.55L57.1001 103.6L57.3501 103.75L59.3501 106.6L62.1501 105.55H62.5001L62.7001 105.75L62.7501 105.8V106.15Z" fill="url(#paint13_linear_78_383)"/>
<path d="M59.9 116.9L60.15 117L60.3 117.25L61.15 121.4L62.4 121H62.7L62.95 121.2V121.25V121.55V121.65L62.25 123.45H57.4L56.45 120.4L56.5 120.05V120C56.5667 119.9 56.65 119.85 56.75 119.85H57.1L58.45 120.4L59.45 117.25L59.6 117L59.9 116.9Z" fill="url(#paint14_linear_78_383)"/>
<path d="M81.75 44L83.5 43.3L74.4 23.55L68.3 39L69.05 40.05L69.3 40.35H69.25L69.05 40.05L66.1 43.45L68.05 46.2L65.75 49.5L72.55 59.1L74.05 58.55L74 58.5L86.65 53.5L83.05 49.15L84 48.8L82.15 43.85L81.75 44ZM75.1 21.7C75.6 21.8666 75.9833 22.2167 76.25 22.75L85.35 42.5L85.5 43.55L85.1 44.5L84.7 44.9L85.9 48.1C86.0667 48.5666 86.0667 49.0166 85.9 49.45L88.2 52.25C88.4666 52.5833 88.6167 52.9667 88.65 53.4C88.6834 53.8 88.5833 54.2 88.35 54.6L87.4 55.35L73.3 60.95L72 61.05L70.95 60.25L64.15 50.65C63.8834 50.3167 63.75 49.9333 63.75 49.5C63.75 49.0667 63.8666 48.6833 64.1 48.35L65.6 46.2L64.5 44.6C64.2 44.2333 64.0666 43.8166 64.1 43.35C64.1333 42.8833 64.3 42.4834 64.6 42.15L66.55 39.95L66.35 39.25C66.2833 38.9167 66.3166 38.6 66.45 38.3L72.55 22.85C72.75 22.3166 73.1 21.95 73.6 21.75L75.1 21.7Z" fill="#115F32"/>
<path d="M69.3002 40.35L73.6501 46.5V46.55L73.0001 53.1L68.0502 46.2L66.1001 43.45L69.0502 40.05L69.2501 40.35H69.3002Z" fill="#10773C"/>
<path d="M69.3 40.35L69.05 40.05L68.3 39L74.4 23.55L74 47.05L81.75 44L82.15 43.85L84 48.8L83.05 49.15L73.35 52.95L72.55 59.1L65.75 49.5L68.05 46.2L73 53.1L73.65 46.55V46.5L69.3 40.35Z" fill="#168344"/>
<path d="M72.55 59.1L73.35 52.95L83.05 49.15L86.65 53.5L74 58.5L74.05 58.55L72.55 59.1ZM81.75 44L74 47.05L74.4 23.55L83.5 43.3L81.75 44Z" fill="#1B914D"/>
<path d="M38.15 27.6998L38.45 28.7499V48.1998L39.5 48.5999L40.4 49.3499C40.6334 49.6832 40.75 50.0498 40.75 50.4498V59.0499C40.75 59.5499 40.5833 59.9832 40.25 60.3499L31.25 70.7499L30.2 71.3999L28.95 71.2999L21.95 68.1998C21.5833 68.0332 21.3 67.7832 21.1 67.4498C20.8666 67.1165 20.75 66.7499 20.75 66.3499V58.0499L20.9 57.3499L23 51.8499V31.0999C23 30.6332 23.1667 30.2165 23.5 29.8499L28.1 24.3499C28.3666 23.9832 28.7167 23.7499 29.15 23.6499L30.45 23.7999L37.3 26.9498L38.15 27.6998ZM25 31.0999V52.2499L22.75 58.0499V66.3499L29.75 69.4498L38.75 59.0499V50.4498L36.45 49.5499V28.7499L29.6 25.5999L25 31.0999Z" fill="#727979"/>
<path d="M25 31.1001L31.95 34.3501V55.2001L25 52.2501V31.1001ZM29.75 69.4501L22.75 66.3501V58.0502L29.75 61.5001V69.4501Z" fill="#B9C6C6"/>
<path d="M29.75 69.45V61.5L31.95 55.2V34.35L36.45 28.75V49.55L38.75 50.45V59.05L29.75 69.45Z" fill="#99A3A3"/>
<path d="M25 31.1001L29.6 25.6001L36.45 28.7501L31.95 34.3501L25 31.1001ZM22.75 58.0502L25 52.2501L31.95 55.2001L29.75 61.5001L22.75 58.0502ZM31.4 32.4001L33.95 29.3002L30.1 27.5502L27.5 30.6001L31.4 32.4001Z" fill="#D5E5E5"/>
<path d="M31.4 32.4L27.5 30.6L30.1 27.55L33.95 29.3L31.4 32.4Z" fill="#8C8C8C"/>
<path d="M18.6001 69.1V69.05C18.6001 68.5834 18.7668 68.1667 19.1001 67.8L46.7501 34.8C47.0168 34.4334 47.3834 34.2 47.8501 34.1L62.1501 30.95L63.2001 31L64.1001 31.6L78.1501 47.9L76.8002 49.4L64.5502 35.2L62.5502 32.9L60.0001 33.45L48.2501 36.05L20.6001 69.05V69.95L18.6001 69.1ZM46.7001 82.45L44.5502 83.35V83.3L34.1501 71.25L26.1501 72.9L24.1501 71.25L34.9001 69.05L46.0502 82L46.7001 82.45Z" fill="#115F32"/>
<path d="M60 33.4498L62.55 32.8999L34.9 65.6998L36.9 68.0499L32.7 66.1998L60 33.4498Z" fill="#B9C6C6"/>
<path d="M62.5499 32.8999L64.5499 35.1998L36.8999 68.0499L34.8999 65.6998L62.5499 32.8999Z" fill="#D5E5E5"/>
<path d="M78.1501 47.8999L78.3501 48.0999C78.6501 48.4665 78.8002 48.8999 78.8002 49.3999V65.4999L78.3501 66.7999L74.4501 71.3999V68.2999L76.8002 65.4999V49.3999L78.1501 47.8999ZM64.6501 83.1499L64.5502 83.2999L64.1501 83.6499L63.4501 83.9498L62.1501 83.8499L54.4001 80.2499L52.5001 82.4498V96.6998L52.4001 97.3499L51.9501 98.1499L50.4001 99.6998L49.4001 100.2L48.2501 100.15L46.0001 99.2999L45.4001 98.8999L45.0502 98.5499C44.8168 98.1833 44.7001 97.7999 44.7001 97.3999V83.4999L44.5502 83.3499L46.7001 82.4498V97.3999L48.9501 98.2499L50.5001 96.6998V81.7499L53.8501 77.7499L60.1501 80.6499L63.0001 81.9999L64.6501 79.9999V83.1499ZM20.9501 87.3999L19.8501 86.9498L18.9501 86.1998C18.7167 85.8665 18.6001 85.4999 18.6001 85.0999V69.0999L20.6001 69.9498V85.0999L22.8002 85.9999L24.1501 84.4498V71.2499L26.1501 72.8999V84.4498C26.1501 84.9498 25.9835 85.3999 25.6501 85.7999L24.3002 87.3499C24.0335 87.6499 23.7002 87.8498 23.3002 87.9498L22.0502 87.8499L20.9501 87.3999Z" fill="#775029"/>
<path d="M64.5499 35.2L76.7999 49.4L48.9498 82.2L36.8999 68.05L64.5499 35.2Z" fill="#178044"/>
<path d="M20.6001 69.05L48.2501 36.05L60.0001 33.45L32.7001 66.2L20.6001 69.05Z" fill="#136D3A"/>
<path d="M74.4498 71.4L73.2999 72.8L73.0499 73.15L72.6499 73.6L72.4498 73.85L71.7999 74.6L70.4999 76.15L64.6499 83.15V80L68.9498 74.85L70.2999 73.3L70.8999 72.55L71.0499 72.35L71.5499 71.8L74.4498 68.3V71.4Z" fill="#726A59"/>
<path d="M71.5502 71.8002L71.0502 72.3501L70.9001 72.5502L70.3002 73.3002L68.9501 74.8501L67.6001 76.4001V67.8501L71.5502 63.1001V71.8002Z" fill="#AA9E85"/>
<path d="M76.8 49.3999V65.4999L74.45 68.2999V53.2499L64.65 64.9999V79.9999L63 81.9999L62.4 67.7999L60.15 70.3999L53.85 77.7499L50.5 81.7499V96.6998L48.95 98.2499V83.3499V82.1998L76.8 49.3999ZM22.8 71.0499L23.5 71.4999L24.15 71.2499V84.4498L22.8 85.9999V71.0499Z" fill="#936434"/>
<path d="M71.5499 71.8V63.1L67.5999 67.85V76.4L68.9498 74.85L64.6499 80V65L74.4498 53.25V68.3L71.5499 71.8Z" fill="#CBBD9E"/>
<path d="M63.0001 82L60.1501 80.65V70.4L62.4001 67.8L63.0001 82ZM48.9501 98.25L46.7001 97.4V82.45L48.9501 83.35V98.25ZM22.8002 71.05V86L20.6001 85.1V69.95L22.8002 71.05Z" fill="#BB8044"/>
<path d="M64.15 83.65L52.4 97.35L52.5 96.7V82.45L54.4 80.25L62.15 83.85L63.45 83.95L64.15 83.65ZM45.4 98.9L20.95 87.4L22.05 87.85L23.3 87.95C23.7 87.85 24.0334 87.65 24.3 87.35L25.65 85.8C25.9834 85.4 26.15 84.95 26.15 84.45V72.9L34.15 71.25L44.55 83.3V83.35L44.7 83.5V97.4C44.7 97.8 44.8167 98.1834 45.05 98.55L45.4 98.9Z" fill="black" fill-opacity="0.101961"/>
<path d="M60.1501 80.6499L53.8501 77.7499L60.1501 70.3999V80.6499Z" fill="#ECDCB8"/>
<path d="M20.6001 69.95V69.05L32.7001 66.2L36.9001 68.05L48.9501 82.2V83.35L46.7001 82.45L46.0502 82L34.9001 69.05L24.1501 71.25L23.5001 71.5L22.8002 71.05L20.6001 69.95Z" fill="#1B914D"/>
<path d="M91.8999 88.15L99.5499 79.35L95.1499 69.4L90.7499 63L87.8499 64.15L83.7499 63.85L81.0999 62.7L75.8499 68.85L71.7499 78.8L78.1998 87.85L91.8999 88.15ZM92.3999 61.9L96.7999 68.3L96.9999 68.6L101.4 78.55L101.55 79.65L101.05 80.65L93.3999 89.45L92.6998 90L91.8499 90.15L78.1499 89.85L77.2999 89.65L76.5999 89L70.1499 79.95L69.7999 79.05C69.7333 78.6834 69.7666 78.35 69.8999 78.05L73.9999 68.1L74.3499 67.55L79.5999 61.4L80.2999 60.9L81.1499 60.7L90.7999 61L91.6998 61.25L92.3999 61.9Z" fill="#917F57"/>
<path d="M95.15 69.4L99.55 79.35L91.9 88.15L90.2 75.3L87.55 69.4L89.6 66.8L95.15 69.4ZM78.2 87.85L71.75 78.8L75.85 68.85L81.7 66.5L83.45 69.15L80.5 74.95L78.2 87.85Z" fill="#C9B179"/>
<path d="M75.8501 68.85L81.1001 62.7L83.7501 63.85L81.7001 66.5L75.8501 68.85ZM87.8501 64.15L90.7501 63L95.1501 69.4L89.6001 66.8L87.8501 64.15Z" fill="#AA9666"/>
<path d="M87.85 64.1501L89.6 66.8002L87.55 69.4001L83.45 69.1501L81.7 66.5001L83.75 63.8501L87.85 64.1501Z" fill="#F0D391"/>
<path d="M91.9 88.1499L78.2 87.8499L80.5 74.9498L83.45 69.1499L87.55 69.3999L90.2 75.2999L91.9 88.1499Z" fill="#FFE09A"/>
<path d="M94.3499 94.9L94.0999 95.2L92.2999 97.25C91.9999 97.55 91.6332 97.75 91.1998 97.85L89.9498 97.7L87.2999 96.4L86.4498 95.65C86.2498 95.3167 86.1499 94.9666 86.1499 94.6V84.95C86.1499 84.45 86.3332 84 86.6998 83.6L88.5999 81.5C88.8665 81.1667 89.2332 80.9667 89.6998 80.9H90.5499L99.2499 70.9V69.5C99.2499 69 99.4165 68.5666 99.7499 68.2L101.35 66.35C101.617 66.0166 101.967 65.8 102.4 65.7L103.6 65.8L106.2 66.85C106.566 66.9833 106.867 67.2333 107.1 67.6C107.333 67.9333 107.45 68.3 107.45 68.7V78.65L107 79.95L105.45 81.8L105.3 81.9L104.4 82.45L103.2 82.4L102.35 82.05L94.5999 91.2V93.85L94.3499 94.9ZM105.45 68.7L102.85 67.65L101.25 69.5V71.6L91.0499 83.35L90.0499 82.85L88.1499 84.95V94.6L90.7999 95.9L92.5999 93.85V90.45L103.35 77.75L101.8 79.7L103.9 80.5L105.45 78.65V68.7Z" fill="#775029"/>
<path d="M105.45 68.6998L103.9 70.7999L101.25 69.4999L102.85 67.6499L105.45 68.6998ZM101.25 71.5999L103.9 72.6499L92.5999 85.9999V84.1499L90.7999 85.9999L88.1499 84.9498L90.0499 82.8499L91.0499 83.3499L101.25 71.5999Z" fill="#BB8044"/>
<path d="M101.25 71.6V69.5L103.9 70.8V72.65L101.25 71.6ZM103.9 80.5L101.8 79.7L103.35 77.75L103.9 77.1V80.5ZM90.7999 95.9L88.1499 94.6V84.95L90.7999 86V95.9Z" fill="#A8733D"/>
<path d="M90.8 95.9V86L92.6 84.15V86L103.9 72.65V70.8L105.45 68.7V78.65L103.9 80.5V77.1L103.35 77.75L92.6 90.45V93.85L90.8 95.9Z" fill="#855B30"/>
<path d="M105.3 81.8999L94.3501 94.8999L94.6001 93.8499V91.1998L102.35 82.0499L103.2 82.3999L104.4 82.4498L105.3 81.8999Z" fill="black" fill-opacity="0.101961"/>
<path d="M92.7499 83.7501L97.05 94.6001L97.1999 95.5001L97.15 95.8501L98.3 97.1501C98.5667 97.4835 98.7166 97.8834 98.7499 98.3501L98.4 99.6001L97.8499 100.4L98.65 101.55C98.8833 101.884 98.9999 102.267 98.9999 102.7L98.65 103.85L93.8499 110.6L92.8499 111.35C92.4166 111.483 91.9999 111.483 91.5999 111.35L90.55 111L89.9499 110.7L81.5999 107.4L80.65 106.65C80.3833 106.283 80.2667 105.883 80.3 105.45C80.3333 105.017 80.4833 104.634 80.7499 104.3L82.1999 102.55C82.1332 102.184 82.1667 101.833 82.3 101.5L82.9999 99.6501L82.9 99.5502C82.6666 99.2502 82.5333 98.9334 82.4999 98.6001C82.4666 98.2334 82.5332 97.8835 82.6999 97.5502L89.0999 83.6501C89.3332 83.1168 89.6999 82.7668 90.1999 82.6001L91.6999 82.6501C92.1999 82.8501 92.5499 83.2168 92.7499 83.7501ZM95.4 100.4L96.7499 98.4501L94.6999 96.0502L94.55 96.2501H94.4999L94.6999 96.0502L95.1999 95.3002L90.9 84.4501L84.4999 98.3501L85.7499 98.8501L85.4499 98.7501L84.15 102.2L84.8 102.45L82.3 105.55L91.1999 109.05L91.15 109.1L92.1999 109.45L96.9999 102.7L95.4 100.4Z" fill="#115F32"/>
<path d="M95.4 100.4L91.9 105.25L91.45 100.65V100.6L94.5 96.25H94.55L94.7 96.05L96.75 98.45L95.4 100.4ZM92.2 109.45L91.15 109.1L91.2 109.05L82.3 105.55L84.8 102.45L91.65 105.15L92.2 109.45ZM85.75 98.85L84.5 98.35L90.9 84.45L91.2 101L85.75 98.85Z" fill="#168344"/>
<path d="M85.7499 98.85L91.1998 101L90.8999 84.45L95.1998 95.3L94.6998 96.05L94.4999 96.25L91.4498 100.6V100.65L91.8999 105.25L95.3999 100.4L96.9999 102.7L92.1998 109.45L91.6499 105.15L84.7999 102.45L84.1499 102.2L85.4498 98.75L85.7499 98.85Z" fill="#1B914D"/>
<path d="M121 36V106L61 141L1 106L1 36L61 0.999996L121 36Z" stroke="black" stroke-width="0.5"/>
<defs>
<linearGradient id="paint0_linear_78_383" x1="14.2001" y1="54.4875" x2="14.2001" y2="46.6125" gradientUnits="userSpaceOnUse">
<stop stop-color="#27AE60"/>
<stop offset="1" stop-color="#30C26D"/>
</linearGradient>
<linearGradient id="paint1_linear_78_383" x1="47.7" y1="42.6498" x2="47.7" y2="34.6499" gradientUnits="userSpaceOnUse">
<stop stop-color="#27AE60"/>
<stop offset="1" stop-color="#30C26D"/>
</linearGradient>
<linearGradient id="paint2_linear_78_383" x1="39.8" y1="58.4123" x2="39.8" y2="51.8874" gradientUnits="userSpaceOnUse">
<stop stop-color="#27AE60"/>
<stop offset="1" stop-color="#30C26D"/>
</linearGradient>
<linearGradient id="paint3_linear_78_383" x1="58.7" y1="30.4624" x2="58.7" y2="23.9374" gradientUnits="userSpaceOnUse">
<stop stop-color="#27AE60"/>
<stop offset="1" stop-color="#30C26D"/>
</linearGradient>
<linearGradient id="paint4_linear_78_383" x1="62.85" y1="52.9875" x2="62.85" y2="45.1125" gradientUnits="userSpaceOnUse">
<stop stop-color="#27AE60"/>
<stop offset="1" stop-color="#30C26D"/>
</linearGradient>
<linearGradient id="paint5_linear_78_383" x1="92.7" y1="34.6126" x2="92.7" y2="28.0876" gradientUnits="userSpaceOnUse">
<stop stop-color="#27AE60"/>
<stop offset="1" stop-color="#30C26D"/>
</linearGradient>
<linearGradient id="paint6_linear_78_383" x1="108.2" y1="102.312" x2="108.2" y2="95.7875" gradientUnits="userSpaceOnUse">
<stop stop-color="#27AE60"/>
<stop offset="1" stop-color="#30C26D"/>
</linearGradient>
<linearGradient id="paint7_linear_78_383" x1="72.3" y1="93.4123" x2="72.3" y2="86.8874" gradientUnits="userSpaceOnUse">
<stop stop-color="#27AE60"/>
<stop offset="1" stop-color="#30C26D"/>
</linearGradient>
<linearGradient id="paint8_linear_78_383" x1="85.7999" y1="86.1623" x2="85.7999" y2="79.6374" gradientUnits="userSpaceOnUse">
<stop stop-color="#27AE60"/>
<stop offset="1" stop-color="#30C26D"/>
</linearGradient>
<linearGradient id="paint9_linear_78_383" x1="27.3502" y1="66.6623" x2="27.3502" y2="60.1374" gradientUnits="userSpaceOnUse">
<stop stop-color="#27AE60"/>
<stop offset="1" stop-color="#30C26D"/>
</linearGradient>
<linearGradient id="paint10_linear_78_383" x1="16.4501" y1="107.137" x2="16.4501" y2="99.2624" gradientUnits="userSpaceOnUse">
<stop stop-color="#27AE60"/>
<stop offset="1" stop-color="#30C26D"/>
</linearGradient>
<linearGradient id="paint11_linear_78_383" x1="46.7001" y1="121.887" x2="46.7001" y2="114.012" gradientUnits="userSpaceOnUse">
<stop stop-color="#27AE60"/>
<stop offset="1" stop-color="#30C26D"/>
</linearGradient>
<linearGradient id="paint12_linear_78_383" x1="74.3" y1="126.287" x2="74.3" y2="118.413" gradientUnits="userSpaceOnUse">
<stop stop-color="#27AE60"/>
<stop offset="1" stop-color="#30C26D"/>
</linearGradient>
<linearGradient id="paint13_linear_78_383" x1="58.7001" y1="111.537" x2="58.7001" y2="103.663" gradientUnits="userSpaceOnUse">
<stop stop-color="#27AE60"/>
<stop offset="1" stop-color="#30C26D"/>
</linearGradient>
<linearGradient id="paint14_linear_78_383" x1="59.7" y1="123.412" x2="59.7" y2="116.887" gradientUnits="userSpaceOnUse">
<stop stop-color="#27AE60"/>
<stop offset="1" stop-color="#30C26D"/>
</linearGradient>
</defs>
</svg>
