<svg width="122" height="142" viewBox="0 0 122 142" fill="none" xmlns="http://www.w3.org/2000/svg">
<path d="M12.35 46.5L12.1 46.65L12 46.9L11.65 50.4L9.95001 50.75L9.70001 50.85L9.65002 50.95L9.59998 51.15V51.4H9.65002L11.1 54.55H17.1L18.7 53.5L18.85 53.35L18.9 53.2L18.85 52.9L18.55 52.65L17.05 52.25L18.25 49.1V48.75L18.2 48.7L18 48.5H17.65L14.85 49.55L12.85 46.7L12.6 46.55L12.35 46.5ZM56.05 28L55.75 28.05L55.5 28.25V28.3V28.6V28.7L56.2 30.5H61.05L61.95 27.4V27.05L61.7 26.85H61.35L59.95 27.4L59 24.25L58.85 24L58.55 23.9L58.25 24.05L58.1 24.3L57.3 28.4L56.05 28ZM43.7 37.25L44.95 40.35L43.4 40.8L43.15 41L43.05 41.35L43.15 41.45L43.25 41.6L44.85 42.7H50.85L52.3 39.55L52.35 39.5L52.4 39.25L52.3 39.1L52.25 39L52 38.85L50.35 38.55L49.95 35.05L49.85 34.8L49.6 34.65H49.35L49.1 34.8L47.15 37.65L44.3 36.65H43.95L43.75 36.85L43.7 36.9V37.25ZM40.25 52L40 51.9L39.7 52L39.55 52.25L38.55 55.4L37.2 54.85H36.85L36.6 55V55.05L36.55 55.4L37.5 58.45H42.35L43.05 56.65V56.55V56.25V56.2L42.8 56H42.5L41.25 56.4L40.4 52.25L40.25 52ZM60.75 45.15L60.65 45.4L60.3 48.9L58.6 49.25L58.35 49.35L58.3 49.45L58.25 49.65V49.9H58.3L59.75 53.05H65.75L67.35 52L67.5 51.85L67.55 51.7L67.5 51.4L67.2 51.15L65.7 50.75L66.9 47.6V47.25L66.85 47.2L66.65 47H66.3L63.5 48.05L61.5 45.2C61.4333 45.1 61.35 45.05 61.25 45.05L61 45L60.75 45.15ZM92.6 28.2C92.5 28.2666 92.45 28.35 92.45 28.45L91.45 31.6L90.1 31.05H89.75L89.5 31.2V31.25L89.45 31.6L90.4 34.65H95.25L95.95 32.85V32.75V32.45V32.4L95.7 32.2H95.4L94.15 32.6L93.3 28.45L93.15 28.2L92.9 28.1L92.6 28.2ZM121 36V106L61 141L1 106V36L61 1L121 36ZM108.1 95.9L107.95 96.15L106.95 99.3L105.6 98.75H105.25C105.15 98.75 105.067 98.8 105 98.9V98.95C104.933 99.05 104.917 99.1667 104.95 99.3L105.9 102.35H110.75L111.45 100.55V100.45V100.15V100.1L111.2 99.9H110.9L109.65 100.3L108.8 96.15L108.65 95.9L108.4 95.8L108.1 95.9ZM86 79.65L85.7 79.75C85.6 79.8167 85.55 79.9 85.55 80L84.55 83.15L83.2 82.6H82.85L82.6 82.75V82.8C82.5333 82.9 82.5167 83.0167 82.55 83.15L83.5 86.2H88.35L89.05 84.4V84.3V84V83.95L88.8 83.75H88.5L87.25 84.15L86.4 80L86.25 79.75L86 79.65ZM69.1 90.05L69.05 90.4L70 93.45H74.85L75.55 91.65V91.55V91.25V91.2L75.3 91H75L73.75 91.4L72.9 87.25L72.75 87L72.5 86.9L72.2 87C72.1 87.0667 72.05 87.15 72.05 87.25L71.05 90.4L69.7 89.85H69.35L69.1 90V90.05ZM27.8 60.25L27.55 60.15L27.25 60.25L27.1 60.5L26.1 63.65L24.75 63.1H24.4C24.3 63.1 24.2167 63.15 24.15 63.25V63.3C24.0834 63.4 24.0666 63.5167 24.1 63.65L25.05 66.7H29.9L30.6 64.9V64.8V64.5V64.45L30.35 64.25H30.05L28.8 64.65L27.95 60.5L27.8 60.25ZM62.75 106.15V105.8L62.7 105.75L62.5 105.55H62.15L59.35 106.6L57.35 103.75C57.2833 103.65 57.2 103.6 57.1 103.6L56.85 103.55L56.6 103.7L56.5 103.95L56.15 107.45L54.45 107.8L54.2 107.9L54.15 108L54.1 108.2V108.45H54.15L55.6 111.6H61.6L63.2 110.55L63.35 110.4L63.4 110.25L63.35 109.95L63.05 109.7L61.55 109.3L62.75 106.15ZM56.75 119.85L56.5 120V120.05L56.45 120.4L57.4 123.45H62.25L62.95 121.65V121.55V121.25V121.2L62.7 121H62.4L61.15 121.4L60.3 117.25L60.15 117L59.9 116.9L59.6 117C59.5 117.067 59.45 117.15 59.45 117.25L58.45 120.4L57.1 119.85H56.75ZM50.75 116.15L50.7 116.1L50.5 115.9H50.15L47.35 116.95L45.35 114.1C45.2833 114 45.2 113.95 45.1 113.95L44.85 113.9L44.6 114.05L44.5 114.3L44.15 117.8L42.45 118.15L42.2 118.25L42.15 118.35L42.1 118.55V118.8H42.15L43.6 121.95H49.6L51.2 120.9L51.35 120.75L51.4 120.6L51.35 120.3L51.05 120.05L49.55 119.65L50.75 116.5V116.15ZM72.95 118.5L72.7 118.35L72.45 118.3C72.35 118.333 72.2667 118.383 72.2 118.45L72.1 118.7L71.75 122.2L70.05 122.55L69.8 122.65L69.75 122.75L69.7 122.95V123.2H69.75L71.2 126.35H77.2L78.8 125.3L78.95 125.15L79 125L78.95 124.7L78.65 124.45L77.15 124.05L78.35 120.9V120.55L78.3 120.5L78.1 120.3H77.75L74.95 121.35L72.95 118.5ZM14.35 99.3L14.25 99.55L13.9 103.05L12.2 103.4L11.95 103.5L11.9 103.6L11.85 103.8V104.05H11.9L13.35 107.2H19.35L20.95 106.15L21.1 106L21.15 105.85L21.1 105.55L20.8 105.3L19.3 104.9L20.5 101.75V101.4L20.45 101.35L20.25 101.15H19.9L17.1 102.2L15.1 99.35L14.85 99.2L14.6 99.15L14.35 99.3Z" fill="#27AE60"/>
<path d="M12.3501 46.5L12.6001 46.55L12.8501 46.7L14.8501 49.55L17.6501 48.5H18.0001L18.2001 48.7L18.2501 48.75V49.1L17.0501 52.25L18.5501 52.65L18.8501 52.9L18.9001 53.2L18.8501 53.35L18.7001 53.5L17.1001 54.55H11.1001L9.65015 51.4H9.6001V51.15L9.65015 50.95L9.70013 50.85L9.95013 50.75L11.6501 50.4L12.0001 46.9L12.1001 46.65L12.3501 46.5Z" fill="url(#paint0_linear_76_131)"/>
<path d="M56.05 27.9999L57.3 28.3999L58.1 24.2999L58.25 24.0499L58.55 23.8999L58.85 23.9999L59 24.2499L59.95 27.3999L61.35 26.8499H61.7L61.95 27.0499V27.3999L61.05 30.4999H56.2L55.5 28.6998V28.5999V28.2999V28.2499L55.75 28.0499L56.05 27.9999Z" fill="url(#paint1_linear_76_131)"/>
<path d="M43.7001 37.2499V36.8999L43.7501 36.8499L43.9501 36.6499H44.3L47.1501 37.6499L49.1 34.7999L49.35 34.6499H49.6L49.85 34.7999L49.9501 35.0499L50.35 38.5499L52.0001 38.8499L52.2501 38.9999L52.3 39.0999L52.4001 39.2499L52.35 39.4999L52.3 39.5499L50.85 42.6998H44.85L43.2501 41.5999L43.1501 41.4498L43.05 41.3499L43.1501 40.9999L43.4001 40.7999L44.9501 40.3499L43.7001 37.2499Z" fill="url(#paint2_linear_76_131)"/>
<path d="M40.2501 51.9999L40.4001 52.2499L41.2501 56.3999L42.5001 55.9999H42.8L43.05 56.1998V56.2499V56.5499V56.6499L42.35 58.4498H37.5001L36.55 55.3999L36.6 55.0499V54.9999L36.85 54.8499H37.2001L38.55 55.3999L39.55 52.2499L39.7001 51.9999L40.0001 51.8999L40.2501 51.9999Z" fill="url(#paint3_linear_76_131)"/>
<path d="M60.75 45.15L61 45L61.25 45.05C61.35 45.05 61.4333 45.1 61.5 45.2L63.5 48.05L66.3 47H66.65L66.85 47.2L66.9 47.25V47.6L65.7 50.75L67.2 51.15L67.5 51.4L67.55 51.7L67.5 51.85L67.35 52L65.75 53.05H59.75L58.3 49.9H58.25V49.65L58.3 49.45L58.35 49.35L58.6 49.25L60.3 48.9L60.65 45.4L60.75 45.15Z" fill="url(#paint4_linear_76_131)"/>
<path d="M92.5999 28.2001L92.9 28.1001L93.15 28.2001L93.2999 28.4501L94.15 32.6001L95.4 32.2001H95.7L95.95 32.4001V32.4501V32.7501V32.8501L95.2499 34.6501H90.4L89.45 31.6001L89.4999 31.2501V31.2001L89.7499 31.0502H90.0999L91.45 31.6001L92.45 28.4501C92.45 28.3501 92.4999 28.2667 92.5999 28.2001Z" fill="url(#paint5_linear_76_131)"/>
<path d="M108.1 95.9L108.4 95.8L108.65 95.9L108.8 96.15L109.65 100.3L110.9 99.9H111.2L111.45 100.1V100.15V100.45V100.55L110.75 102.35H105.9L104.95 99.3C104.917 99.1667 104.933 99.05 105 98.95V98.9C105.067 98.8 105.15 98.75 105.25 98.75H105.6L106.95 99.3L107.95 96.15L108.1 95.9Z" fill="url(#paint6_linear_76_131)"/>
<path d="M85.9999 79.6499L86.2499 79.7499L86.3999 79.9999L87.2499 84.1499L88.4999 83.7499H88.7999L89.0499 83.9498V83.9999V84.2999V84.3999L88.3499 86.1998H83.4999L82.5499 83.1499C82.5165 83.0166 82.5332 82.8999 82.5999 82.7999V82.7499L82.8499 82.5999H83.1999L84.5499 83.1499L85.5499 79.9999C85.5499 79.8999 85.5999 79.8165 85.6999 79.7499L85.9999 79.6499Z" fill="url(#paint7_linear_76_131)"/>
<path d="M69.1 90.0499V89.9999L69.35 89.8499H69.7001L71.05 90.3999L72.05 87.2499C72.05 87.1499 72.1001 87.0665 72.2001 86.9999L72.5001 86.8999L72.7501 86.9999L72.9001 87.2499L73.7501 91.3999L75.0001 90.9999H75.3L75.55 91.1998V91.2499V91.5499V91.6499L74.85 93.4498H70.0001L69.05 90.3999L69.1 90.0499Z" fill="url(#paint8_linear_76_131)"/>
<path d="M27.7999 60.2499L27.9499 60.4999L28.7999 64.6499L30.0499 64.2499H30.3499L30.5999 64.4498V64.4999V64.7999V64.8999L29.9 66.6998H25.0499L24.0999 63.6499C24.0666 63.5166 24.0833 63.3999 24.15 63.2999V63.2499C24.2166 63.1499 24.3 63.0999 24.4 63.0999H24.7499L26.0999 63.6499L27.0999 60.4999L27.2499 60.2499L27.5499 60.1499L27.7999 60.2499Z" fill="url(#paint9_linear_76_131)"/>
<path d="M62.7501 106.15L61.5501 109.3L63.0501 109.7L63.3501 109.95L63.4001 110.25L63.3501 110.4L63.2001 110.55L61.6001 111.6H55.6001L54.1501 108.45H54.1001V108.2L54.1501 108L54.2001 107.9L54.4501 107.8L56.1501 107.45L56.5001 103.95L56.6001 103.7L56.8501 103.55L57.1001 103.6C57.2001 103.6 57.2834 103.65 57.3501 103.75L59.3501 106.6L62.1501 105.55H62.5001L62.7001 105.75L62.7501 105.8V106.15Z" fill="url(#paint10_linear_76_131)"/>
<path d="M56.7499 119.85H57.0999L58.45 120.4L59.45 117.25C59.45 117.15 59.4999 117.067 59.5999 117L59.9 116.9L60.15 117L60.2999 117.25L61.15 121.4L62.4 121H62.7L62.95 121.2V121.25V121.55V121.65L62.2499 123.45H57.4L56.45 120.4L56.4999 120.05V120L56.7499 119.85Z" fill="url(#paint11_linear_76_131)"/>
<path d="M50.7501 116.15V116.5L49.5501 119.65L51.0501 120.05L51.3501 120.3L51.4001 120.6L51.3501 120.75L51.2001 120.9L49.6001 121.95H43.6001L42.1501 118.8H42.1001V118.55L42.1501 118.35L42.2001 118.25L42.4501 118.15L44.1501 117.8L44.5001 114.3L44.6001 114.05L44.8501 113.9L45.1001 113.95C45.2001 113.95 45.2834 114 45.3501 114.1L47.3501 116.95L50.1501 115.9H50.5001L50.7001 116.1L50.7501 116.15Z" fill="url(#paint12_linear_76_131)"/>
<path d="M72.95 118.5L74.95 121.35L77.7499 120.3H78.0999L78.2999 120.5L78.3499 120.55V120.9L77.15 124.05L78.65 124.45L78.95 124.7L78.9999 125L78.95 125.15L78.7999 125.3L77.2 126.35H71.2L69.7499 123.2H69.7V122.95L69.7499 122.75L69.7999 122.65L70.0499 122.55L71.7499 122.2L72.0999 118.7L72.2 118.45C72.2666 118.383 72.35 118.333 72.45 118.3L72.7 118.35L72.95 118.5Z" fill="url(#paint13_linear_76_131)"/>
<path d="M14.3501 99.2999L14.6001 99.1499L14.8501 99.1998L15.1001 99.3499L17.1001 102.2L19.9001 101.15H20.2501L20.4501 101.35L20.5001 101.4V101.75L19.3001 104.9L20.8001 105.3L21.1001 105.55L21.1501 105.85L21.1001 106L20.9501 106.15L19.3501 107.2H13.3501L11.9001 104.05H11.8501V103.8L11.9001 103.6L11.9501 103.5L12.2001 103.4L13.9001 103.05L14.2501 99.5499L14.3501 99.2999Z" fill="url(#paint14_linear_76_131)"/>
<path d="M26.1 33.6501L27.6 33.6001C28.1 33.7668 28.4833 34.1168 28.75 34.6501L37.85 54.4001L38 55.4501L37.6 56.4001L37.2 56.8002L38.4 60.0001C38.5667 60.4668 38.5667 60.9168 38.4 61.3501L40.7 64.1501C40.9667 64.4835 41.1167 64.8668 41.15 65.3002C41.1834 65.7002 41.0833 66.1001 40.85 66.5001L39.9 67.2501L25.8 72.8501L24.5 72.9501C24.0333 72.7834 23.6833 72.5168 23.45 72.1501L16.65 62.5502C16.3834 62.2168 16.25 61.8335 16.25 61.4001C16.25 60.9668 16.3666 60.5835 16.6 60.2501L18.1 58.1001L17 56.5001C16.7 56.1335 16.5666 55.7168 16.6 55.2501C16.6333 54.7835 16.8 54.3835 17.1 54.0502L19.05 51.8501L18.85 51.1501C18.7833 50.8168 18.8167 50.5001 18.95 50.2001L25.05 34.7501C25.25 34.2168 25.6 33.8501 26.1 33.6501ZM21.8 52.2501H21.75L21.55 51.9501L21.8 52.2501ZM26.9 35.4501L20.8 50.9001L21.55 51.9501L18.6 55.3501L20.55 58.1001L18.25 61.4001L25.05 71.0001L26.55 70.4501L26.5 70.4001L39.15 65.4001L35.55 61.0502L36.5 60.7001L34.65 55.7501L34.25 55.9001L36 55.2001L26.9 35.4501Z" fill="#115F32"/>
<path d="M26.9 35.45L26.5 58.95L34.25 55.9L34.65 55.75L36.5 60.7L35.55 61.05L25.85 64.85L25.05 71L18.25 61.4L20.55 58.1L25.5 65L26.15 58.45V58.4L21.8 52.25L21.55 51.95L20.8 50.9L26.9 35.45Z" fill="#168344"/>
<path d="M21.5501 51.95L21.7501 52.25H21.8001L26.1501 58.4V58.45L25.5001 65L20.5501 58.1L18.6001 55.35L21.5501 51.95Z" fill="#10773C"/>
<path d="M26.9001 35.45L36.0001 55.2L34.2501 55.9L26.5001 58.95L26.9001 35.45ZM35.55 61.05L39.1501 65.4L26.5001 70.4L26.55 70.45L25.05 71L25.85 64.85L35.55 61.05Z" fill="#1B914D"/>
<path d="M30.0001 69.15L29.9501 69.5L31.1 70.8C31.3667 71.1334 31.5167 71.5333 31.55 72C31.5834 72.4667 31.4667 72.8833 31.2001 73.25L30.6501 74.05L31.4501 75.2C31.6834 75.5333 31.8 75.9166 31.8 76.35C31.8 76.7833 31.6834 77.1667 31.4501 77.5L26.6501 84.25C26.3834 84.6167 26.0501 84.8667 25.6501 85C25.2168 85.1333 24.8001 85.1333 24.4001 85L23.35 84.65L22.7501 84.35L14.4001 81.05L13.4501 80.3C13.1834 79.9334 13.0667 79.5333 13.1 79.1C13.1334 78.6666 13.2834 78.2833 13.55 77.95L15.0001 76.2C14.9334 75.8333 14.9667 75.4834 15.1 75.15L15.8 73.3L15.7001 73.2L15.3 72.25C15.2667 71.8833 15.3334 71.5333 15.5001 71.2L21.9001 57.3C22.1334 56.7667 22.5001 56.4167 23.0001 56.25L24.5001 56.3C25.0001 56.5 25.35 56.8667 25.55 57.4L29.85 68.25L30.0001 69.15ZM28.2001 74.05L29.55 72.1L27.5001 69.7L27.35 69.9H27.3L27.5001 69.7L28.0001 68.95L23.7001 58.1L17.3 72L18.55 72.5L18.2501 72.4L16.9501 75.85L17.6 76.1L15.1 79.2L24.0001 82.7L23.9501 82.75L25.0001 83.1L29.8 76.35L28.2001 74.05Z" fill="#115F32"/>
<path d="M28.2001 74.0502L24.7001 78.9001L24.2501 74.3002V74.2501L27.3001 69.9001H27.3501L27.5001 69.7001L29.5501 72.1001L28.2001 74.0502ZM25.0001 83.1001L23.9501 82.7501L24.0001 82.7001L15.1001 79.2001L17.6001 76.1001L24.4501 78.8002L25.0001 83.1001ZM18.5501 72.5001L17.3001 72.0001L23.7001 58.1001L24.0001 74.6501L18.5501 72.5001Z" fill="#168344"/>
<path d="M18.5499 72.5001L23.9999 74.6501L23.7 58.1001L27.9999 68.9501L27.4999 69.7001L27.2999 69.9001L24.2499 74.2501V74.3002L24.7 78.9001L28.2 74.0502L29.7999 76.3501L24.9999 83.1001L24.45 78.8002L17.5999 76.1001L16.95 75.8501L18.2499 72.4001L18.5499 72.5001Z" fill="#1B914D"/>
<path d="M23.75 83.8V79.6L23.95 78.75L45.15 34.25L45.7 33.55C45.9 33.3834 46.15 33.2666 46.45 33.2L58.75 30.05L60.1 30.15L104.25 50.75L105.1 51.5L105.35 52.15L103.4 52.65V52.55L59.25 31.95L46.95 35.1L25.95 79.15L23.75 83.8Z" fill="#115F32"/>
<path d="M46.9501 35.1L59.2501 31.95L103.4 52.55L91.1501 55.7L46.9501 35.1ZM43.4001 63.8L41.3 67.9L37.8 66.25L39.7501 62.2L43.4001 63.8ZM53.2001 57.45L49.6 64.4L43.6 61.6L46.9501 54.65L53.2001 57.45ZM52.1501 64.2L55.8 65.8L53.7001 69.9L50.2001 68.25L52.1501 64.2Z" fill="#178044"/>
<path d="M105.35 52.1499L105.4 52.5499V68.7999C105.4 69.2999 105.25 69.7332 104.95 70.0999L100.85 74.9498V71.7999L103.4 68.7999V52.6499L105.35 52.1499ZM81.5 97.8999L80.2 99.4498C79.9 99.7832 79.5333 99.9999 79.1 100.1L77.8 99.9999L75.55 98.9498V96.6998L78.65 98.1499L81.5 94.7999V97.8999ZM62.5 103.6L61.45 104.9C61.15 105.233 60.7833 105.45 60.35 105.55L59.05 105.45L55.2 103.65V101.4L59.9 103.6L62.5 100.5V103.6ZM29.25 91.5999L24.9 89.5999L24.1 88.8499C23.8666 88.5165 23.75 88.1499 23.75 87.7499V83.7999L25.95 79.1499L25.75 79.5999V87.7499C26.9167 88.3165 28.0833 88.8666 29.25 89.3999V91.5999Z" fill="#775029"/>
<path d="M103.4 52.55V52.65V68.8L100.85 71.8V57.1L91.1499 60L81.4999 80.25V94.8L78.6499 98.15V81.9L91.1499 55.7L103.4 52.55ZM68.4499 77.2V81.2L62.4999 93.2V100.5L59.8999 103.6V95.45L68.4499 77.2Z" fill="#936434"/>
<path d="M94.6001 79.2L93.8501 80.05V71.5L97.8001 66.75V75.45L94.6001 79.2Z" fill="#AA9E85"/>
<path d="M97.8 75.4501V66.7501L93.85 71.5001V80.0502L94.6 79.2001L81.5 94.8002V80.2501L91.15 60.0001L100.85 57.1001V71.8002L97.8 75.4501ZM68.45 81.2001V93.4001L62.5 100.5V93.2001L68.45 81.2001Z" fill="#CBBD9E"/>
<path d="M100.85 74.95L81.5 97.9V94.8L94.6 79.2L97.8 75.45L100.85 71.8V74.95ZM75.55 98.95L69 95.9L62.5 103.6V100.5L68.45 93.4L75.55 96.7V98.95ZM55.2 103.65L29.25 91.6V89.4L55.2 101.4V103.65Z" fill="#726A59"/>
<path d="M75.55 96.7V84.7L68.45 81.2V77.2L71.85 78.8L78.65 81.9V98.15L75.55 96.7ZM55.2 101.4V96.3L29.25 84.45V89.4C28.0833 88.8667 26.9167 88.3167 25.75 87.75V79.6L59.9 95.45V103.6L55.2 101.4Z" fill="#BB8044"/>
<path d="M55.2 101.4L29.25 89.4V84.45L55.2 96.3V101.4ZM68.45 81.2L75.55 84.7V96.7L68.45 93.4V81.2Z" fill="#ECDCB8"/>
<path d="M25.95 79.1501L46.95 35.1001L91.15 55.7001L78.65 81.9001L71.85 78.8002L68.45 77.2001L59.9 95.4501L25.75 79.6001L25.95 79.1501ZM52.15 64.2001L50.2 68.2501L53.7 69.9001L55.8 65.8002L52.15 64.2001ZM53.2 57.4501L46.95 54.6501L43.6 61.6001L49.6 64.4001L53.2 57.4501ZM43.4 63.8002L39.75 62.2001L37.8 66.2501L41.3 67.9001L43.4 63.8002Z" fill="#1B914D"/>
<path d="M85.3499 81.3999L86.8499 81.4498C87.3499 81.6498 87.6999 82.0166 87.8999 82.5499L92.1999 93.3999L92.3499 94.2999L92.2999 94.6499L93.4499 95.9498C93.7166 96.2832 93.8666 96.6832 93.8999 97.1499L93.5499 98.3999L92.9999 99.1998L93.7999 100.35C94.0332 100.683 94.1499 101.067 94.1499 101.5C94.1499 101.933 94.0332 102.317 93.7999 102.65L88.9999 109.4L87.9999 110.15C87.5665 110.283 87.1499 110.283 86.7499 110.15L85.6999 109.8L85.0999 109.5L76.7499 106.2L75.7999 105.45C75.5332 105.083 75.4166 104.683 75.4499 104.25C75.4832 103.817 75.6332 103.433 75.8999 103.1L77.3499 101.35C77.2832 100.983 77.3166 100.633 77.4499 100.3L78.1499 98.4498L78.0499 98.3499L77.6499 97.3999C77.6166 97.0332 77.6832 96.6832 77.8499 96.3499L84.2499 82.4498C84.4832 81.9165 84.8499 81.5666 85.3499 81.3999ZM80.8999 97.6499L80.5999 97.5499L79.2999 101L79.9499 101.25L77.4499 104.35L86.3499 107.85L86.2999 107.9L87.3499 108.25L92.1499 101.5L90.5499 99.1998L91.8999 97.2499L89.8499 94.8499L89.6999 95.0499H89.6499L89.8499 94.8499L90.3499 94.0999L86.0499 83.2499L79.6499 97.1499L80.8999 97.6499Z" fill="#115F32"/>
<path d="M80.9001 97.65L86.35 99.8L86.05 83.25L90.35 94.1L89.85 94.85L89.6501 95.05L86.6 99.4V99.45L87.05 104.05L90.55 99.2L92.1501 101.5L87.35 108.25L86.8 103.95L79.9501 101.25L79.3 101L80.6 97.55L80.9001 97.65Z" fill="#1B914D"/>
<path d="M80.9 97.65L79.65 97.15L86.0499 83.25L86.3499 99.8L80.9 97.65ZM79.95 101.25L86.7999 103.95L87.3499 108.25L86.2999 107.9L86.3499 107.85L77.45 104.35L79.95 101.25ZM90.5499 99.2L87.0499 104.05L86.5999 99.45V99.4L89.65 95.05H89.7L89.8499 94.85L91.9 97.25L90.5499 99.2Z" fill="#168344"/>
<path d="M121 36V106L61 141L1 106L1 36L61 0.999996L121 36Z" stroke="black" stroke-width="0.5"/>
<defs>
<linearGradient id="paint0_linear_76_131" x1="14.2001" y1="54.4875" x2="14.2001" y2="46.6125" gradientUnits="userSpaceOnUse">
<stop stop-color="#27AE60"/>
<stop offset="1" stop-color="#30C26D"/>
</linearGradient>
<linearGradient id="paint1_linear_76_131" x1="58.7" y1="30.4624" x2="58.7" y2="23.9374" gradientUnits="userSpaceOnUse">
<stop stop-color="#27AE60"/>
<stop offset="1" stop-color="#30C26D"/>
</linearGradient>
<linearGradient id="paint2_linear_76_131" x1="47.7001" y1="42.6498" x2="47.7001" y2="34.6499" gradientUnits="userSpaceOnUse">
<stop stop-color="#27AE60"/>
<stop offset="1" stop-color="#30C26D"/>
</linearGradient>
<linearGradient id="paint3_linear_76_131" x1="39.8" y1="58.4123" x2="39.8" y2="51.8874" gradientUnits="userSpaceOnUse">
<stop stop-color="#27AE60"/>
<stop offset="1" stop-color="#30C26D"/>
</linearGradient>
<linearGradient id="paint4_linear_76_131" x1="62.85" y1="52.9875" x2="62.85" y2="45.1125" gradientUnits="userSpaceOnUse">
<stop stop-color="#27AE60"/>
<stop offset="1" stop-color="#30C26D"/>
</linearGradient>
<linearGradient id="paint5_linear_76_131" x1="92.7" y1="34.6126" x2="92.7" y2="28.0876" gradientUnits="userSpaceOnUse">
<stop stop-color="#27AE60"/>
<stop offset="1" stop-color="#30C26D"/>
</linearGradient>
<linearGradient id="paint6_linear_76_131" x1="108.2" y1="102.312" x2="108.2" y2="95.7875" gradientUnits="userSpaceOnUse">
<stop stop-color="#27AE60"/>
<stop offset="1" stop-color="#30C26D"/>
</linearGradient>
<linearGradient id="paint7_linear_76_131" x1="85.7999" y1="86.1623" x2="85.7999" y2="79.6374" gradientUnits="userSpaceOnUse">
<stop stop-color="#27AE60"/>
<stop offset="1" stop-color="#30C26D"/>
</linearGradient>
<linearGradient id="paint8_linear_76_131" x1="72.3" y1="93.4123" x2="72.3" y2="86.8874" gradientUnits="userSpaceOnUse">
<stop stop-color="#27AE60"/>
<stop offset="1" stop-color="#30C26D"/>
</linearGradient>
<linearGradient id="paint9_linear_76_131" x1="27.3499" y1="66.6623" x2="27.3499" y2="60.1374" gradientUnits="userSpaceOnUse">
<stop stop-color="#27AE60"/>
<stop offset="1" stop-color="#30C26D"/>
</linearGradient>
<linearGradient id="paint10_linear_76_131" x1="58.7001" y1="111.537" x2="58.7001" y2="103.663" gradientUnits="userSpaceOnUse">
<stop stop-color="#27AE60"/>
<stop offset="1" stop-color="#30C26D"/>
</linearGradient>
<linearGradient id="paint11_linear_76_131" x1="59.7" y1="123.412" x2="59.7" y2="116.887" gradientUnits="userSpaceOnUse">
<stop stop-color="#27AE60"/>
<stop offset="1" stop-color="#30C26D"/>
</linearGradient>
<linearGradient id="paint12_linear_76_131" x1="46.7001" y1="121.887" x2="46.7001" y2="114.012" gradientUnits="userSpaceOnUse">
<stop stop-color="#27AE60"/>
<stop offset="1" stop-color="#30C26D"/>
</linearGradient>
<linearGradient id="paint13_linear_76_131" x1="74.2999" y1="126.287" x2="74.2999" y2="118.413" gradientUnits="userSpaceOnUse">
<stop stop-color="#27AE60"/>
<stop offset="1" stop-color="#30C26D"/>
</linearGradient>
<linearGradient id="paint14_linear_76_131" x1="16.4501" y1="107.137" x2="16.4501" y2="99.2624" gradientUnits="userSpaceOnUse">
<stop stop-color="#27AE60"/>
<stop offset="1" stop-color="#30C26D"/>
</linearGradient>
</defs>
</svg>
