<svg width="122" height="142" viewBox="0 0 122 142" fill="none" xmlns="http://www.w3.org/2000/svg">
<path d="M95.7 32.2001L95.95 32.4001V32.4501V32.7501V32.8501L95.2499 34.6501H90.4L89.45 31.6001L89.4999 31.2501V31.2001L89.7499 31.0501H90.0999L91.45 31.6001L92.45 28.4501L92.5999 28.2001L92.9 28.1001L93.15 28.2001L93.2999 28.4501L94.15 32.6001L95.4 32.2001H95.7Z" fill="url(#paint0_linear_73_20)"/>
<path d="M95.7 32.2H95.4L94.15 32.6L93.3 28.45L93.15 28.2L92.9 28.1L92.6 28.2L92.45 28.45L91.45 31.6L90.1 31.05H89.75L89.5 31.2V31.25L89.45 31.6L90.4 34.65H95.25L95.95 32.85V32.75V32.45V32.4L95.7 32.2ZM105.25 98.75C105.15 98.75 105.067 98.8 105 98.9V98.95C104.933 99.05 104.917 99.1667 104.95 99.3L105.9 102.35H110.75L111.45 100.55V100.45V100.15V100.1L111.2 99.9H110.9L109.65 100.3L108.8 96.15L108.65 95.9L108.4 95.8L108.1 95.9L107.95 96.15L106.95 99.3L105.6 98.75H105.25ZM121 106L61 141L1 106V36L61 1L121 36V106ZM11.65 50.4L9.95001 50.75L9.70001 50.85L9.65002 50.95L9.59998 51.15V51.4H9.65002L11.1 54.55H17.1L18.7 53.5L18.85 53.35L18.9 53.2L18.85 52.9L18.55 52.65L17.05 52.25L18.25 49.1V48.75L18.2 48.7L18 48.5H17.65L14.85 49.55L12.85 46.7L12.6 46.55L12.35 46.5L12.1 46.65L12 46.9L11.65 50.4ZM11.85 103.8V104.05H11.9L13.35 107.2H19.35L20.95 106.15L21.1 106L21.15 105.85L21.1 105.55L20.8 105.3L19.3 104.9L20.5 101.75V101.4L20.45 101.35L20.25 101.15H19.9L17.1 102.2L15.1 99.35L14.85 99.2L14.6 99.15L14.35 99.3L14.25 99.55L13.9 103.05L12.2 103.4L11.95 103.5L11.9 103.6L11.85 103.8ZM59 24.25L58.85 24L58.55 23.9L58.25 24.05L58.1 24.3L57.3 28.4L56.05 28L55.75 28.05L55.5 28.25V28.3V28.6V28.7L56.2 30.5H61.05L61.95 27.4V27.05L61.7 26.85H61.35L59.95 27.4L59 24.25ZM66.3 47L63.5 48.05L61.5 45.2C61.4333 45.1 61.35 45.05 61.25 45.05L61 45L60.75 45.15L60.65 45.4L60.3 48.9L58.6 49.25L58.35 49.35L58.3 49.45L58.25 49.65V49.9H58.3L59.75 53.05H65.75L67.35 52L67.5 51.85L67.55 51.7L67.5 51.4L67.2 51.15L65.7 50.75L66.9 47.6V47.25L66.85 47.2L66.65 47H66.3ZM43.7 37.25L44.95 40.35L43.4 40.8L43.15 41L43.05 41.35L43.15 41.45L43.25 41.6L44.85 42.7H50.85L52.3 39.55L52.35 39.5L52.4 39.25L52.3 39.1L52.25 39L52 38.85L50.35 38.55L49.95 35.05L49.85 34.8L49.6 34.65H49.35L49.1 34.8L47.15 37.65L44.3 36.65H43.95L43.75 36.85L43.7 36.9V37.25ZM24.15 63.3C24.0834 63.4 24.0666 63.5167 24.1 63.65L25.05 66.7H29.9L30.6 64.9V64.8V64.5V64.45L30.35 64.25H30.05L28.8 64.65L27.95 60.5L27.8 60.25L27.55 60.15L27.25 60.25L27.1 60.5L26.1 63.65L24.75 63.1H24.4C24.3 63.1 24.2167 63.15 24.15 63.25V63.3ZM40.4 52.25L40.25 52L40 51.9L39.7 52L39.55 52.25L38.55 55.4L37.2 54.85H36.85C36.75 54.85 36.6666 54.9 36.6 55V55.05C36.5333 55.15 36.5167 55.2667 36.55 55.4L37.5 58.45H42.35L43.05 56.65V56.55V56.25V56.2L42.8 56H42.5L41.25 56.4L40.4 52.25ZM82.6 82.75V82.8C82.5333 82.9 82.5167 83.0167 82.55 83.15L83.5 86.2H88.35L89.05 84.4V84.3V84V83.95L88.8 83.75H88.5L87.25 84.15L86.4 80L86.25 79.75L86 79.65L85.7 79.75C85.6 79.8167 85.55 79.9 85.55 80L84.55 83.15L83.2 82.6H82.85L82.6 82.75ZM72.75 87L72.5 86.9L72.2 87C72.1 87.0667 72.05 87.15 72.05 87.25L71.05 90.4L69.7 89.85H69.35L69.1 90V90.05C69.0333 90.15 69.0167 90.2667 69.05 90.4L70 93.45H74.85L75.55 91.65V91.55V91.25V91.2L75.3 91H75L73.75 91.4L72.9 87.25L72.75 87ZM62.15 105.55L59.35 106.6L57.35 103.75C57.2833 103.65 57.2 103.6 57.1 103.6L56.85 103.55L56.6 103.7L56.5 103.95L56.15 107.45L54.45 107.8L54.2 107.9L54.15 108L54.1 108.2V108.45H54.15L55.6 111.6H61.6L63.2 110.55L63.35 110.4L63.4 110.25L63.35 109.95L63.05 109.7L61.55 109.3L62.75 106.15V105.8L62.7 105.75L62.5 105.55H62.15ZM77.75 120.3L74.95 121.35L72.95 118.5C72.8833 118.4 72.8 118.35 72.7 118.35L72.45 118.3L72.2 118.45L72.1 118.7L71.75 122.2L70.05 122.55L69.8 122.65L69.75 122.75L69.7 122.95V123.2H69.75L71.2 126.35H77.2L78.8 125.3L78.95 125.15L79 125L78.95 124.7L78.65 124.45L77.15 124.05L78.35 120.9V120.55L78.3 120.5L78.1 120.3H77.75ZM62.95 121.25V121.2L62.7 121H62.4L61.15 121.4L60.3 117.25L60.15 117L59.9 116.9L59.6 117L59.45 117.25L58.45 120.4L57.1 119.85H56.75L56.5 120V120.05C56.4333 120.15 56.4167 120.267 56.45 120.4L57.4 123.45H62.25L62.95 121.65V121.55V121.25ZM50.75 116.15L50.7 116.1L50.5 115.9H50.15L47.35 116.95L45.35 114.1C45.2833 114 45.2 113.95 45.1 113.95L44.85 113.9L44.6 114.05L44.5 114.3L44.15 117.8L42.45 118.15L42.2 118.25L42.15 118.35L42.1 118.55V118.8H42.15L43.6 121.95H49.6L51.2 120.9L51.35 120.75L51.4 120.6L51.35 120.3L51.05 120.05L49.55 119.65L50.75 116.5V116.15Z" fill="#27AE60"/>
<path d="M105.25 98.75H105.6L106.95 99.3L107.95 96.15L108.1 95.9L108.4 95.8L108.65 95.9L108.8 96.15L109.65 100.3L110.9 99.9H111.2L111.45 100.1V100.15V100.45V100.55L110.75 102.35H105.9L104.95 99.3C104.917 99.1667 104.933 99.05 105 98.95V98.9C105.067 98.8 105.15 98.75 105.25 98.75Z" fill="url(#paint1_linear_73_20)"/>
<path d="M11.6501 50.4L12.0001 46.9L12.1001 46.65L12.3501 46.5L12.6001 46.55L12.8501 46.7L14.8501 49.55L17.6501 48.5H18.0001L18.2001 48.7L18.2501 48.75V49.1L17.0501 52.25L18.5501 52.65L18.8501 52.9L18.9001 53.2L18.8501 53.35L18.7001 53.5L17.1001 54.55H11.1001L9.65015 51.4H9.6001V51.15L9.65015 50.95L9.70013 50.85L9.95013 50.75L11.6501 50.4Z" fill="url(#paint2_linear_73_20)"/>
<path d="M11.8501 103.8L11.9001 103.6L11.9501 103.5L12.2001 103.4L13.9001 103.05L14.2501 99.5499L14.3501 99.2999L14.6001 99.1499L14.8501 99.1999L15.1001 99.3499L17.1001 102.2L19.9001 101.15H20.2501L20.4501 101.35L20.5001 101.4V101.75L19.3001 104.9L20.8001 105.3L21.1001 105.55L21.1501 105.85L21.1001 106L20.9501 106.15L19.3501 107.2H13.3501L11.9001 104.05H11.8501V103.8Z" fill="url(#paint3_linear_73_20)"/>
<path d="M59 24.2499L59.95 27.3999L61.35 26.8499H61.7L61.95 27.0499V27.3999L61.05 30.4999H56.2L55.5 28.6999V28.5999V28.2999V28.2499L55.75 28.0499L56.05 27.9999L57.3 28.3999L58.1 24.2999L58.25 24.0499L58.55 23.8999L58.85 23.9999L59 24.2499Z" fill="url(#paint4_linear_73_20)"/>
<path d="M66.3 47H66.65L66.85 47.2L66.9 47.25V47.6L65.7 50.75L67.2 51.15L67.5 51.4L67.55 51.7L67.5 51.85L67.35 52L65.75 53.05H59.75L58.3 49.9H58.25V49.65L58.3 49.45L58.35 49.35L58.6 49.25L60.3 48.9L60.65 45.4L60.75 45.15L61 45L61.25 45.05C61.35 45.05 61.4333 45.1 61.5 45.2L63.5 48.05L66.3 47Z" fill="url(#paint5_linear_73_20)"/>
<path d="M43.7001 37.2499V36.8999L43.7501 36.8499L43.9501 36.6499H44.3L47.1501 37.6499L49.1 34.7999L49.35 34.6499H49.6L49.85 34.7999L49.9501 35.0499L50.35 38.5499L52.0001 38.8499L52.2501 38.9999L52.3 39.0999L52.4001 39.2499L52.35 39.4999L52.3 39.5499L50.85 42.6999H44.85L43.2501 41.5999L43.1501 41.4499L43.05 41.3499L43.1501 40.9999L43.4001 40.7999L44.9501 40.3499L43.7001 37.2499Z" fill="url(#paint6_linear_73_20)"/>
<path d="M24.15 63.2999V63.2499C24.2166 63.1499 24.3 63.0999 24.4 63.0999H24.7499L26.0999 63.6499L27.0999 60.4999L27.2499 60.2499L27.5499 60.1499L27.7999 60.2499L27.9499 60.4999L28.7999 64.6499L30.0499 64.2499H30.3499L30.5999 64.4499V64.4999V64.7999V64.8999L29.9 66.6999H25.0499L24.0999 63.6499C24.0666 63.5166 24.0833 63.3999 24.15 63.2999Z" fill="url(#paint7_linear_73_20)"/>
<path d="M40.3999 52.2499L41.2499 56.3999L42.4999 55.9999H42.7999L43.0499 56.1999V56.2499V56.5499V56.6499L42.3499 58.4499H37.4999L36.5499 55.3999C36.5165 55.2666 36.5332 55.1499 36.5999 55.0499V54.9999C36.6665 54.8999 36.7499 54.8499 36.8499 54.8499H37.1999L38.5499 55.3999L39.5499 52.2499L39.6999 51.9999L39.9999 51.8999L40.2499 51.9999L40.3999 52.2499Z" fill="url(#paint8_linear_73_20)"/>
<path d="M72.7499 86.9999L72.8999 87.2499L73.7499 91.3999L74.9999 90.9999H75.2999L75.5499 91.1999V91.2499V91.5499V91.6499L74.8499 93.4499H69.9999L69.0499 90.3999C69.0165 90.2666 69.0332 90.1499 69.0999 90.0499V89.9999L69.3499 89.8499H69.6999L71.0499 90.3999L72.0499 87.2499C72.0499 87.1499 72.0999 87.0666 72.1999 86.9999L72.4999 86.8999L72.7499 86.9999Z" fill="url(#paint9_linear_73_20)"/>
<path d="M82.5999 82.7499L82.8499 82.5999H83.1999L84.5499 83.1499L85.5499 79.9999C85.5499 79.8999 85.5999 79.8166 85.6999 79.7499L85.9999 79.6499L86.2499 79.7499L86.3999 79.9999L87.2499 84.1499L88.4999 83.7499H88.7999L89.0499 83.9499V83.9999V84.2999V84.3999L88.3499 86.1999H83.4999L82.5499 83.1499C82.5165 83.0166 82.5332 82.8999 82.5999 82.7999V82.7499Z" fill="url(#paint10_linear_73_20)"/>
<path d="M62.1501 105.55H62.5001L62.7001 105.75L62.7501 105.8V106.15L61.5501 109.3L63.0501 109.7L63.3501 109.95L63.4001 110.25L63.3501 110.4L63.2001 110.55L61.6001 111.6H55.6001L54.1501 108.45H54.1001V108.2L54.1501 108L54.2001 107.9L54.4501 107.8L56.1501 107.45L56.5001 103.95L56.6001 103.7L56.8501 103.55L57.1001 103.6C57.2001 103.6 57.2834 103.65 57.3501 103.75L59.3501 106.6L62.1501 105.55Z" fill="url(#paint11_linear_73_20)"/>
<path d="M77.7499 120.3H78.0999L78.2999 120.5L78.3499 120.55V120.9L77.15 124.05L78.65 124.45L78.95 124.7L78.9999 125L78.95 125.15L78.7999 125.3L77.2 126.35H71.2L69.7499 123.2H69.7V122.95L69.7499 122.75L69.7999 122.65L70.0499 122.55L71.7499 122.2L72.0999 118.7L72.2 118.45L72.45 118.3L72.7 118.35C72.8 118.35 72.8833 118.4 72.95 118.5L74.95 121.35L77.7499 120.3Z" fill="url(#paint12_linear_73_20)"/>
<path d="M62.95 121.25V121.55V121.65L62.25 123.45H57.4L56.45 120.4C56.4167 120.267 56.4333 120.15 56.5 120.05V120L56.75 119.85H57.1L58.45 120.4L59.45 117.25L59.6 117L59.9 116.9L60.15 117L60.3 117.25L61.15 121.4L62.4 121H62.7L62.95 121.2V121.25Z" fill="url(#paint13_linear_73_20)"/>
<path d="M50.7501 116.15V116.5L49.5501 119.65L51.0501 120.05L51.3501 120.3L51.4001 120.6L51.3501 120.75L51.2001 120.9L49.6001 121.95H43.6001L42.1501 118.8H42.1001V118.55L42.1501 118.35L42.2001 118.25L42.4501 118.15L44.1501 117.8L44.5001 114.3L44.6001 114.05L44.8501 113.9L45.1001 113.95C45.2001 113.95 45.2834 114 45.3501 114.1L47.3501 116.95L50.1501 115.9H50.5001L50.7001 116.1L50.7501 116.15Z" fill="url(#paint14_linear_73_20)"/>
<path d="M121 36V106L61 141L1 106L1 36L61 0.999996L121 36Z" stroke="black"/>
<defs>
<linearGradient id="paint0_linear_73_20" x1="92.7" y1="34.6126" x2="92.7" y2="28.0876" gradientUnits="userSpaceOnUse">
<stop stop-color="#27AE60"/>
<stop offset="1" stop-color="#30C26D"/>
</linearGradient>
<linearGradient id="paint1_linear_73_20" x1="108.2" y1="102.313" x2="108.2" y2="95.7875" gradientUnits="userSpaceOnUse">
<stop stop-color="#27AE60"/>
<stop offset="1" stop-color="#30C26D"/>
</linearGradient>
<linearGradient id="paint2_linear_73_20" x1="14.2001" y1="54.4875" x2="14.2001" y2="46.6125" gradientUnits="userSpaceOnUse">
<stop stop-color="#27AE60"/>
<stop offset="1" stop-color="#30C26D"/>
</linearGradient>
<linearGradient id="paint3_linear_73_20" x1="16.4501" y1="107.137" x2="16.4501" y2="99.2624" gradientUnits="userSpaceOnUse">
<stop stop-color="#27AE60"/>
<stop offset="1" stop-color="#30C26D"/>
</linearGradient>
<linearGradient id="paint4_linear_73_20" x1="58.7" y1="30.4624" x2="58.7" y2="23.9374" gradientUnits="userSpaceOnUse">
<stop stop-color="#27AE60"/>
<stop offset="1" stop-color="#30C26D"/>
</linearGradient>
<linearGradient id="paint5_linear_73_20" x1="62.85" y1="52.9875" x2="62.85" y2="45.1125" gradientUnits="userSpaceOnUse">
<stop stop-color="#27AE60"/>
<stop offset="1" stop-color="#30C26D"/>
</linearGradient>
<linearGradient id="paint6_linear_73_20" x1="47.7001" y1="42.6499" x2="47.7001" y2="34.6499" gradientUnits="userSpaceOnUse">
<stop stop-color="#27AE60"/>
<stop offset="1" stop-color="#30C26D"/>
</linearGradient>
<linearGradient id="paint7_linear_73_20" x1="27.3499" y1="66.6624" x2="27.3499" y2="60.1374" gradientUnits="userSpaceOnUse">
<stop stop-color="#27AE60"/>
<stop offset="1" stop-color="#30C26D"/>
</linearGradient>
<linearGradient id="paint8_linear_73_20" x1="39.7999" y1="58.4124" x2="39.7999" y2="51.8874" gradientUnits="userSpaceOnUse">
<stop stop-color="#27AE60"/>
<stop offset="1" stop-color="#30C26D"/>
</linearGradient>
<linearGradient id="paint9_linear_73_20" x1="72.2999" y1="93.4124" x2="72.2999" y2="86.8874" gradientUnits="userSpaceOnUse">
<stop stop-color="#27AE60"/>
<stop offset="1" stop-color="#30C26D"/>
</linearGradient>
<linearGradient id="paint10_linear_73_20" x1="85.7999" y1="86.1624" x2="85.7999" y2="79.6374" gradientUnits="userSpaceOnUse">
<stop stop-color="#27AE60"/>
<stop offset="1" stop-color="#30C26D"/>
</linearGradient>
<linearGradient id="paint11_linear_73_20" x1="58.7001" y1="111.538" x2="58.7001" y2="103.663" gradientUnits="userSpaceOnUse">
<stop stop-color="#27AE60"/>
<stop offset="1" stop-color="#30C26D"/>
</linearGradient>
<linearGradient id="paint12_linear_73_20" x1="74.2999" y1="126.288" x2="74.2999" y2="118.413" gradientUnits="userSpaceOnUse">
<stop stop-color="#27AE60"/>
<stop offset="1" stop-color="#30C26D"/>
</linearGradient>
<linearGradient id="paint13_linear_73_20" x1="59.7" y1="123.412" x2="59.7" y2="116.887" gradientUnits="userSpaceOnUse">
<stop stop-color="#27AE60"/>
<stop offset="1" stop-color="#30C26D"/>
</linearGradient>
<linearGradient id="paint14_linear_73_20" x1="46.7001" y1="121.887" x2="46.7001" y2="114.012" gradientUnits="userSpaceOnUse">
<stop stop-color="#27AE60"/>
<stop offset="1" stop-color="#30C26D"/>
</linearGradient>
</defs>
</svg>
